<svg width="352" height="31" viewBox="0 0 352 31" fill="none" xmlns="http://www.w3.org/2000/svg">
<g clip-path="url(#clip0_721_9931)">
<path d="M17.3006 30.3931L7.69125 17.7744H7.58437V30.3931H0.75V0.768125H7.53V12.6931H7.69125L17.0887 0.81875H24.9356L13.35 14.9394L25.5244 30.3931M27.1781 30.3931V0.768125H44.9587L43.3031 6.275H34.0125V12.4812H43.3031V18.0425H34.0125V24.8862H44.85V30.395M126.06 30.3931V15.26C126.06 14.1913 126.06 12.9594 126.114 12.05H126.06C125.794 12.6931 124.566 14.4575 124.086 15.2056L119.28 22.5312H116.289L110.738 14.9375C110.096 14.0825 109.402 13.175 108.761 12.05H108.654C108.709 13.0662 108.709 14.1894 108.709 15.0462V30.3931H101.874V0.768125H108.067L115.489 11.1425C116.396 12.3725 117.092 13.4938 117.786 14.6713H117.893C118.552 13.394 119.264 12.1448 120.028 10.9269L126.647 0.820625H132.894V30.5M156.441 30.3931L153.611 23.3338H144L141.33 30.3931H134.606L146.243 0.606875H151.635L163.916 30.3931H156.441ZM149.927 13.1731C149.447 11.7294 149.019 10.4469 148.858 9.5375H148.806C148.646 10.4994 148.219 11.7838 147.737 13.0662L145.922 17.8269H151.528M193.228 10.7131C192.321 12.1044 191.627 13.3869 191.038 14.4575H190.931C190.217 13.2482 189.452 12.0702 188.636 10.9269L181.268 0.55625H175.022V30.2881H181.856V14.885C181.856 14.0825 181.856 12.9069 181.802 11.8906H181.909C182.55 13.0138 183.244 13.9231 183.885 14.7781L189.437 22.3719H192.48L197.34 15.0462C197.82 14.2437 199.048 12.5337 199.314 11.8906H199.369C199.314 12.8 199.314 14.0281 199.314 15.0987V30.2862H206.149V0.554375H199.901M219.549 0.5L207.911 30.2862H214.639L217.361 23.2269H226.973L229.802 30.2862H237.223L224.944 0.5H219.549ZM219.231 17.72L221.046 12.9594C221.526 11.6769 221.953 10.3925 222.112 9.37813H222.167C222.326 10.34 222.754 11.57 223.234 13.0138L224.837 17.6656M273.529 0.5L262.264 29.3769C258.206 22.3175 255.591 17.8269 254.042 16.9175V16.8631C256.658 15.6331 259.328 13.0138 259.328 9.21688C259.328 4.565 256.444 0.554375 248.274 0.554375H238.986V30.2862H245.872V19.1112H247.956C248.97 19.5369 250.517 22.4788 255.002 30.2862H268.671L271.341 23.2269H280.952L283.781 30.2862H291.203L278.921 0.5H273.529ZM248.436 14.1894H245.925V6.16813H248.488C250.944 6.16813 252.6 7.82562 252.6 9.965C252.6 12.425 250.837 14.1894 248.436 14.1894ZM273.262 17.72L275.077 12.9594C275.557 11.6769 275.985 10.3925 276.146 9.37813H276.199C276.36 10.34 276.786 11.57 277.267 13.0138L278.869 17.6656M82.4925 0.5L71.2275 29.3769C67.17 22.3175 64.5525 17.8269 63.0056 16.9175V16.8631C65.6212 15.6331 68.2913 13.0138 68.2913 9.21688C68.2913 4.565 65.4075 0.554375 57.2381 0.554375H47.9494V30.2862H54.8363V19.1112H56.9175C57.9319 19.5369 59.4806 22.4788 63.9675 30.2862H77.6344L80.3044 23.2269H89.9137L92.745 30.2862H100.166L87.885 0.5H82.4925ZM57.3994 14.1894H54.8888V6.16813H57.4519C59.9081 6.16813 61.5637 7.82562 61.5637 9.965C61.5637 12.425 59.8013 14.1894 57.3994 14.1894ZM82.2244 17.72L84.0431 12.9594C84.5212 11.6769 84.9488 10.3925 85.11 9.37813H85.1625C85.3219 10.34 85.7494 11.57 86.2312 13.0138L87.8325 17.6656M292.269 0.554375L293.925 5.95437L306.152 5.8475L291.255 30.2862H316.564V24.725L302.361 24.8844L316.83 0.55625M317.899 0.554375L319.5 5.95437L331.779 5.8475L316.83 30.2862H342.139V24.725L327.936 24.8844L342.405 0.55625M351.375 0.554375H344.488V30.2862H351.375V0.554375Z" fill="#F0F0F0"/>
<mask id="mask0_721_9931" style="mask-type:alpha" maskUnits="userSpaceOnUse" x="0" y="0" width="352" height="31">
<path d="M17.3006 30.3931L7.69125 17.7744H7.58437V30.3931H0.75V0.768125H7.53V12.6931H7.69125L17.0887 0.81875H24.9356L13.35 14.9394L25.5244 30.3931M27.1781 30.3931V0.768125H44.9587L43.3031 6.275H34.0125V12.4812H43.3031V18.0425H34.0125V24.8862H44.85V30.395M126.06 30.3931V15.26C126.06 14.1913 126.06 12.9594 126.114 12.05H126.06C125.794 12.6931 124.566 14.4575 124.086 15.2056L119.28 22.5312H116.289L110.738 14.9375C110.096 14.0825 109.402 13.175 108.761 12.05H108.654C108.709 13.0662 108.709 14.1894 108.709 15.0462V30.3931H101.874V0.768125H108.067L115.489 11.1425C116.396 12.3725 117.092 13.4938 117.786 14.6713H117.893C118.552 13.394 119.264 12.1448 120.028 10.9269L126.647 0.820625H132.894V30.5M156.441 30.3931L153.611 23.3338H144L141.33 30.3931H134.606L146.243 0.606875H151.635L163.916 30.3931H156.441ZM149.927 13.1731C149.447 11.7294 149.019 10.4469 148.858 9.5375H148.806C148.646 10.4994 148.219 11.7838 147.737 13.0662L145.922 17.8269H151.528M193.228 10.7131C192.321 12.1044 191.627 13.3869 191.038 14.4575H190.931C190.217 13.2482 189.452 12.0702 188.636 10.9269L181.268 0.55625H175.022V30.2881H181.856V14.885C181.856 14.0825 181.856 12.9069 181.802 11.8906H181.909C182.55 13.0138 183.244 13.9231 183.885 14.7781L189.437 22.3719H192.48L197.34 15.0462C197.82 14.2437 199.048 12.5337 199.314 11.8906H199.369C199.314 12.8 199.314 14.0281 199.314 15.0987V30.2862H206.149V0.554375H199.901M219.549 0.5L207.911 30.2862H214.639L217.361 23.2269H226.973L229.802 30.2862H237.223L224.944 0.5H219.549ZM219.231 17.72L221.046 12.9594C221.526 11.6769 221.953 10.3925 222.112 9.37813H222.167C222.326 10.34 222.754 11.57 223.234 13.0138L224.837 17.6656M273.529 0.5L262.264 29.3769C258.206 22.3175 255.591 17.8269 254.042 16.9175V16.8631C256.658 15.6331 259.328 13.0138 259.328 9.21688C259.328 4.565 256.444 0.554375 248.274 0.554375H238.986V30.2862H245.872V19.1112H247.956C248.97 19.5369 250.517 22.4788 255.002 30.2862H268.671L271.341 23.2269H280.952L283.781 30.2862H291.203L278.921 0.5H273.529ZM248.436 14.1894H245.925V6.16813H248.488C250.944 6.16813 252.6 7.82562 252.6 9.965C252.6 12.425 250.837 14.1894 248.436 14.1894ZM273.262 17.72L275.077 12.9594C275.557 11.6769 275.985 10.3925 276.146 9.37813H276.199C276.36 10.34 276.786 11.57 277.267 13.0138L278.869 17.6656M82.4925 0.5L71.2275 29.3769C67.17 22.3175 64.5525 17.8269 63.0056 16.9175V16.8631C65.6212 15.6331 68.2913 13.0138 68.2913 9.21688C68.2913 4.565 65.4075 0.554375 57.2381 0.554375H47.9494V30.2862H54.8363V19.1112H56.9175C57.9319 19.5369 59.4806 22.4788 63.9675 30.2862H77.6344L80.3044 23.2269H89.9137L92.745 30.2862H100.166L87.885 0.5H82.4925ZM57.3994 14.1894H54.8888V6.16813H57.4519C59.9081 6.16813 61.5637 7.82562 61.5637 9.965C61.5637 12.425 59.8013 14.1894 57.3994 14.1894ZM82.2244 17.72L84.0431 12.9594C84.5212 11.6769 84.9488 10.3925 85.11 9.37813H85.1625C85.3219 10.34 85.7494 11.57 86.2312 13.0138L87.8325 17.6656M292.269 0.554375L293.925 5.95437L306.152 5.8475L291.255 30.2862H316.564V24.725L302.361 24.8844L316.83 0.55625M317.899 0.554375L319.5 5.95437L331.779 5.8475L316.83 30.2862H342.139V24.725L327.936 24.8844L342.405 0.55625M351.375 0.554375H344.488V30.2862H351.375V0.554375Z" fill="white"/>
</mask>
<g mask="url(#mask0_721_9931)">
<path d="M7.69125 17.7725L9.18188 16.6363L8.61938 15.8975H7.69125V17.7725ZM7.58437 17.7725V15.8975H5.70937V17.7725H7.58437ZM7.58437 30.3931V32.2681H9.45937V30.3931H7.58437V30.3931ZM0.75 30.3931H-1.125V32.2681H0.75V30.3931V30.3931ZM0.75 0.768126V-1.10687H-1.125V0.768126H0.75ZM7.53 0.768126H9.405V-1.10687H7.53V0.768126V0.768126ZM7.53 12.6931H5.655V14.5681H7.53V12.6931ZM7.69125 12.6931V14.5681H8.59875L9.16125 13.8556L7.69125 12.6931ZM17.0887 0.81875V-1.05625H16.1812L15.6188 -0.34375L17.0887 0.81875V0.81875ZM24.9356 0.81875L26.3869 2.00938L28.8994 -1.05625H24.9375V0.81875H24.9356ZM13.35 14.9394L11.9006 13.7488L10.9444 14.915L11.8781 16.0981L13.35 14.9394V14.9394ZM27.1781 0.768126V-1.10687H25.3031V0.768126H27.1781V0.768126ZM44.9587 0.768126L46.755 1.30625L47.4806 -1.10687H44.9587V0.768126V0.768126ZM43.3031 6.275V8.15H44.6981L45.0994 6.815L43.3031 6.275V6.275ZM34.0125 6.275V4.4H32.1375V6.275H34.0125ZM34.0125 12.4794H32.1375V14.3544H34.0125V12.4794ZM43.3031 12.4794H45.1781V10.6044H43.3031V12.4794ZM43.3031 18.0406V19.9156H45.1781V18.0406H43.3031ZM34.0125 18.0406V16.1656H32.1375V18.0406H34.0125ZM34.0125 24.8844H32.1375V26.7594H34.0125V24.8844ZM44.85 24.8844H46.725V23.0094H44.85V24.8844ZM126.116 12.05L127.988 12.1625L128.104 10.175H126.116V12.05ZM126.062 12.05V10.175H124.811L124.331 11.33L126.062 12.05ZM124.087 15.2056L125.655 16.235L125.666 16.2181L124.087 15.2056V15.2056ZM119.282 22.5313V24.4063H120.294L120.849 23.5606L119.282 22.5313ZM116.291 22.5313L114.778 23.6375L115.341 24.4063H116.291V22.5313V22.5313ZM110.737 14.9375L112.251 13.8313L112.237 13.8144L110.737 14.9394V14.9375ZM108.761 12.05L110.391 11.1219L109.851 10.175H108.763V12.05H108.761ZM108.654 12.05V10.175H106.68L106.783 12.1494L108.654 12.05ZM108.709 30.3931V32.2681H110.584V30.3931H108.709V30.3931ZM101.874 30.3931H99.9994V32.2681H101.874V30.3931V30.3931ZM101.874 0.768126V-1.10687H99.9994V0.768126H101.874ZM108.068 0.768126L109.594 -0.323125L109.031 -1.10687H108.068V0.768126ZM115.489 11.1425L113.964 12.2319L113.972 12.2431L113.981 12.2544L115.489 11.1425V11.1425ZM117.786 14.6713L116.171 15.6238L116.715 16.5463H117.784V14.6713H117.786ZM117.893 14.6713V16.5463H119.051L119.569 15.5094L117.893 14.6713V14.6713ZM120.028 10.9269L118.459 9.90125L118.444 9.92375L118.431 9.94625L120.028 10.9269V10.9269ZM126.647 0.820626V-1.05437H125.634L125.079 -0.206875L126.649 0.820626H126.647ZM132.894 0.820626H134.769V-1.05437H132.894V0.820626ZM156.441 30.3931L154.701 31.0906L155.173 32.2681H156.441V30.3931V30.3931ZM153.611 23.3338L155.351 22.6363L154.879 21.4588H153.611V23.3338ZM144 23.3338V21.4588H142.706L142.247 22.67L144 23.3338ZM141.33 30.3931V32.2681H142.627L143.085 31.0569L141.33 30.3931V30.3931ZM134.604 30.3931L132.857 29.7106L131.858 32.2681H134.604V30.3931V30.3931ZM146.243 0.606876V-1.26813H144.962L144.497 -0.0756247L146.243 0.606876V0.606876ZM151.635 0.606876L153.369 -0.1075L152.891 -1.26813H151.635V0.606876V0.606876ZM163.916 30.3931V32.2681H166.717L165.649 29.6788L163.916 30.3931V30.3931ZM148.86 9.5375L150.705 9.21125L150.433 7.6625H148.858V9.5375H148.86ZM148.806 9.5375V7.6625H147.217L146.955 9.23L148.806 9.5375ZM147.737 13.0663L149.49 13.7356L149.494 13.7244L147.739 13.0681L147.737 13.0663ZM145.922 17.8269L144.171 17.1575L143.201 19.7019H145.922V17.8269ZM191.038 14.4575V16.3325H192.148L192.682 15.3594L191.038 14.4575V14.4575ZM190.931 14.4575L189.317 15.41L189.861 16.3325H190.931V14.4575V14.4575ZM188.636 10.9269L190.166 9.845L190.164 9.84125L188.636 10.9288V10.9269ZM181.268 0.55625L182.798 -0.53125L182.235 -1.31875H181.268V0.55625V0.55625ZM175.022 0.55625V-1.31875H173.147V0.55625H175.022V0.55625ZM175.022 30.2881H173.147V32.1631H175.022V30.2881V30.2881ZM181.856 30.2881V32.1631H183.731V30.2881H181.856V30.2881ZM181.802 11.8925V10.0175H179.826L179.929 11.99L181.804 11.8925H181.802ZM181.909 11.8925L183.538 10.9625L182.998 10.0175H181.911V11.8925H181.909ZM183.885 14.78L185.398 13.6738L185.385 13.655L183.885 14.78ZM189.437 22.3738L187.924 23.48L188.486 24.2488H189.437V22.3738ZM192.48 22.3738V24.2488H193.487L194.044 23.4106L192.48 22.3738ZM197.34 15.0481L198.902 16.0831L198.926 16.0475L198.947 16.01L197.34 15.0481ZM199.314 11.8925V10.0175H198.064L197.584 11.1725L199.314 11.8925ZM199.369 11.8925L201.24 12.0013L201.356 10.0175H199.369V11.8925ZM199.314 30.2863H197.439V32.1613H199.314V30.2863ZM206.149 30.2863V32.1613H208.024V30.2863H206.149ZM206.149 0.55625H208.024V-1.31875H206.149V0.55625ZM219.549 0.5V-1.375H218.271L217.804 -0.1825L219.549 0.5V0.5ZM207.911 30.2863L206.164 29.6038L205.164 32.1613H207.911V30.2863ZM214.639 30.2863V32.1613H215.925L216.388 30.9613L214.639 30.2863ZM217.361 23.2269V21.3519H216.075L215.612 22.5519L217.361 23.2269ZM226.973 23.2269L228.713 22.5294L228.24 21.3519H226.973V23.2269ZM229.802 30.2863L228.062 30.9838L228.533 32.1613H229.802V30.2863V30.2863ZM237.223 30.2863V32.1613H240.024L238.956 29.5719L237.223 30.2844V30.2863ZM224.944 0.5L226.676 -0.214375L226.198 -1.375H224.944V0.5V0.5ZM221.046 12.9594L222.797 13.6288L222.801 13.6175L221.046 12.9613V12.9594ZM222.112 9.37813V7.50313H220.511L220.26 9.08563L222.112 9.37625V9.37813ZM222.167 9.37813L224.016 9.06875L223.755 7.50125H222.167V9.37625V9.37813ZM223.234 13.0138L221.454 13.6063L221.462 13.625L223.234 13.0138ZM273.529 0.5V-1.375H272.248L271.783 -0.180625L273.529 0.5V0.5ZM262.264 29.3769L260.638 30.3106L262.588 33.7044L264.011 30.0594L262.264 29.3769ZM254.042 16.9175H252.167V17.99L253.091 18.5338L254.042 16.9175V16.9175ZM254.042 16.8631L253.243 15.1663L252.167 15.6725V16.8631H254.042ZM238.986 0.55625V-1.31875H237.111V0.55625H238.986V0.55625ZM238.986 30.2881H237.111V32.1631H238.986V30.2881V30.2881ZM245.872 30.2881V32.1631H247.747V30.2881H245.872V30.2881ZM245.872 19.1131V17.2381H243.997V19.1131H245.872ZM247.956 19.1131L248.683 17.3844L248.334 17.2363H247.956V19.1113V19.1131ZM255.002 30.2881L253.376 31.2219L253.918 32.1631H255.002V30.2881ZM268.671 30.2881V32.1631H269.966L270.424 30.9519L268.671 30.2881ZM271.341 23.2288V21.3538H270.045L269.588 22.565L271.341 23.2288ZM280.952 23.2288L282.692 22.5313L282.219 21.3538H280.952V23.2288ZM283.781 30.2881L282.041 30.9856L282.512 32.1631H283.781V30.2881ZM291.203 30.2881V32.1631H294.004L292.935 29.5738L291.203 30.2863V30.2881ZM278.921 0.5L280.656 -0.214375L280.177 -1.375H278.921V0.5V0.5ZM245.925 14.1894H244.05V16.0644H245.925V14.1894ZM245.925 6.16813V4.29313H244.05V6.16813H245.925ZM275.077 12.9594L276.831 13.6288L276.834 13.6175L275.077 12.9613V12.9594ZM276.146 9.37813V7.50313H274.543L274.294 9.08563L276.146 9.37625V9.37813ZM276.199 9.37813L278.049 9.06875L277.789 7.50125H276.199V9.37625V9.37813ZM277.267 13.0138L275.488 13.6063L275.494 13.625L277.267 13.0138V13.0138ZM82.4925 0.5V-1.375H81.2119L80.7469 -0.180625L82.4925 0.5ZM71.2275 29.3769L69.6019 30.3106L71.5519 33.7044L72.975 30.0594L71.2275 29.3769ZM63.0056 16.9175H61.1306V17.99L62.055 18.5338L63.0056 16.9175V16.9175ZM63.0056 16.8631L62.2069 15.1663L61.1306 15.6725V16.8631H63.0056ZM47.9494 0.55625V-1.31875H46.0744V0.55625H47.9494V0.55625ZM47.9494 30.2881H46.0744V32.1631H47.9494V30.2881V30.2881ZM54.8363 30.2881V32.1631H56.7113V30.2881H54.8363V30.2881ZM54.8363 19.1131V17.2381H52.9613V19.1131H54.8363ZM56.9175 19.1131L57.6469 17.3844L57.2981 17.2363H56.9175V19.1113V19.1131ZM63.9675 30.2881L62.34 31.2219L62.88 32.1631H63.9675V30.2881V30.2881ZM77.6344 30.2881V32.1631H78.93L79.3875 30.9519L77.6344 30.2881ZM80.3044 23.2288V21.3538H79.0087L78.5494 22.565L80.3044 23.2288ZM89.9138 23.2288L91.6556 22.5313L91.1831 21.3538H89.9138V23.2288ZM92.745 30.2881L91.005 30.9856L91.4756 32.1631H92.745V30.2881ZM100.166 30.2881V32.1631H102.967L101.899 29.5738L100.166 30.2863V30.2881ZM87.885 0.5L89.6194 -0.214375L89.1412 -1.375H87.885V0.5ZM54.8888 14.1894H53.0138V16.0644H54.8888V14.1894ZM54.8888 6.16813V4.29313H53.0138V6.16813H54.8888ZM61.5637 9.965H59.6887H61.5637ZM84.0413 12.9594L85.7925 13.6288L85.7981 13.6175L84.0413 12.9613V12.9594ZM85.11 9.37813V7.50313H83.5069L83.2575 9.08563L85.11 9.37625V9.37813ZM85.1625 9.37813L87.0113 9.06875L86.7506 7.50125H85.1625V9.37625V9.37813ZM86.2313 13.0138L84.45 13.6063L84.4575 13.625L86.2313 13.0138V13.0138ZM293.925 5.95438L292.133 6.50375L292.543 7.8425L293.942 7.82938L293.925 5.95438V5.95438ZM306.152 5.8475L307.753 6.8225L309.508 3.9425L306.135 3.9725L306.152 5.8475ZM291.255 30.2863L289.654 29.3113L287.918 32.1613H291.255V30.2863ZM316.564 30.2863V32.1613H318.439V30.2863H316.564ZM316.564 24.725H318.439V22.8275L316.543 22.85L316.564 24.725ZM302.361 24.8844L300.75 23.9281L299.042 26.7969L302.383 26.7594L302.361 24.8844ZM319.5 5.95625L317.702 6.48875L318.103 7.84438L319.517 7.83125L319.5 5.95625V5.95625ZM331.779 5.84938L333.379 6.82813L335.143 3.94438L331.764 3.97438L331.779 5.84938V5.84938ZM316.83 30.2881L315.231 29.3094L313.485 32.1631H316.83V30.2881V30.2881ZM342.139 30.2881V32.1631H344.014V30.2881H342.139ZM342.139 24.7269H344.014V22.8294L342.116 22.8519L342.139 24.7269ZM327.936 24.8863L326.325 23.93L324.617 26.7988L327.956 26.7613L327.936 24.8863ZM344.488 0.55625V-1.31875H342.613V0.55625H344.488V0.55625ZM351.375 0.55625H353.25V-1.31875H351.375V0.55625V0.55625ZM351.375 30.2881V32.1631H353.25V30.2881H351.375V30.2881ZM344.488 30.2881H342.613V32.1631H344.488V30.2881V30.2881ZM18.7931 29.2569L9.18188 16.6381L6.20063 18.9088L15.81 31.5275L18.7931 29.2588V29.2569ZM7.69125 15.8975H7.58437V19.6475H7.69125V15.8975ZM5.70937 17.7725V30.3931H9.45937V17.7744H5.70937V17.7725ZM7.58437 28.5181H0.75V32.2681H7.58437V28.5181V28.5181ZM2.625 30.3931V0.768126H-1.125V30.3931H2.625V30.3931ZM0.75 2.64313H7.53V-1.10687H0.75V2.64313ZM5.655 0.768126V12.6931H9.405V0.768126H5.655V0.768126ZM7.53 14.5681H7.69125V10.8181H7.53V14.5681ZM9.16125 13.8556L18.5588 1.985L15.6169 -0.34375L6.22125 11.5288L9.16125 13.8556V13.8556ZM17.0887 2.69563H24.9356V-1.05437H17.0906V2.69563H17.0887ZM23.4863 -0.368125L11.9006 13.7506L14.7994 16.1281L26.3869 2.00938L23.4881 -0.368125H23.4863ZM11.88 16.0981L24.0525 31.5538L26.9981 29.2325L14.8256 13.7788L11.88 16.0981V16.0981ZM29.055 30.3931V0.768126H25.305V30.3931H29.055V30.3931ZM27.18 2.64313H44.9606V-1.10687H27.1819V2.64313H27.18ZM43.1625 0.228125L41.5069 5.735L45.0994 6.815L46.755 1.30625L43.1625 0.228125V0.228125ZM43.3031 4.4H34.0125V8.15H43.3031V4.4ZM32.1375 6.275V12.4813H35.8875V6.275H32.1375ZM34.0125 14.3544H43.3031V10.6044H34.0125V14.3544V14.3544ZM41.4281 12.4794V18.0406H45.1781V12.4794H41.4281ZM43.3031 16.1656H34.0125V19.9156H43.3031V16.1656ZM32.1375 18.0406V24.8844H35.8875V18.0406H32.1375ZM34.0125 26.7594H44.85V23.0094H34.0125V26.7594ZM42.975 24.8844V30.3931H46.725V24.8844H42.975ZM127.937 30.3931V15.26H124.187V30.3931H127.937V30.3931ZM127.937 15.26C127.937 14.1706 127.937 13.0025 127.986 12.1606L124.243 11.9413C124.187 12.9163 124.187 14.21 124.187 15.26H127.937ZM126.113 10.175H126.058V13.925H126.113V10.175ZM124.327 11.33C124.327 11.3281 124.314 11.3638 124.267 11.4481C124.213 11.5487 124.156 11.6481 124.097 11.7463C123.93 12.0228 123.757 12.296 123.579 12.5656C123.233 13.0981 122.73 13.8444 122.505 14.1931L125.663 16.2181C125.918 15.8188 126.27 15.3088 126.722 14.6113C127.089 14.0488 127.577 13.2856 127.791 12.7719L124.327 11.33V11.33ZM122.516 14.1781L117.711 21.5038L120.846 23.5606L125.651 16.235L122.516 14.1781ZM119.278 20.6563H116.287V24.4063H119.278V20.6563V20.6563ZM117.803 21.425L112.249 13.8313L109.223 16.0438L114.774 23.6375L117.803 21.425ZM112.237 13.8144C111.583 12.9406 110.962 12.1269 110.391 11.1219L107.134 12.98C107.842 14.2231 108.609 15.2263 109.236 16.0625L112.237 13.8125V13.8144ZM108.761 10.1769H108.654V13.9269H108.761V10.1769ZM106.783 12.1494C106.834 13.1075 106.834 14.1819 106.834 15.0463H110.584C110.584 14.1988 110.584 13.0269 110.528 11.9525L106.783 12.1494ZM106.834 15.0463V30.3931H110.584V15.0463H106.834V15.0463ZM108.709 28.5181H101.874V32.2681H108.709V28.5181ZM103.749 30.3931V0.768126H99.9994V30.3931H103.749V30.3931ZM101.874 2.64313H108.068V-1.10687H101.874V2.64313ZM106.543 1.8575L113.964 12.2319L117.015 10.0513L109.592 -0.325L106.545 1.8575H106.543ZM113.981 12.2563C114.832 13.4113 115.491 14.4725 116.169 15.6256L119.4 13.7188C118.666 12.4469 117.864 11.2151 116.998 10.0288L113.979 12.2544L113.981 12.2563ZM117.786 16.5481H117.893V12.7981H117.786V16.5481ZM119.569 15.5113C120.204 14.2833 120.89 13.0823 121.626 11.9113L118.431 9.94813C117.638 11.2122 116.899 12.509 116.214 13.835L119.571 15.5113H119.569ZM121.596 11.9563L128.216 1.85L125.081 -0.206875L118.462 9.89938L121.594 11.9563H121.596ZM126.649 2.6975H132.894V-1.0525H126.649V2.6975ZM131.019 0.822501V30.5H134.769V0.820626H131.019V0.822501ZM158.181 29.6975L155.351 22.6381L151.871 24.0331L154.701 31.0925L158.181 29.6975ZM153.611 21.4606H144V25.2106H153.611V21.4606V21.4606ZM142.247 22.6719L139.577 29.7313L143.083 31.0588L145.755 23.9994L142.247 22.6738V22.6719ZM141.33 28.52H134.606V32.27H141.334V28.52H141.33ZM136.35 31.0775L147.99 1.2875L144.497 -0.0774996L132.857 29.7088L136.35 31.0738V31.0775ZM146.243 2.48375H151.635V-1.26625H146.243V2.48375ZM149.902 1.32313L162.184 31.1094L165.649 29.6806L153.368 -0.105625L149.902 1.32313V1.32313ZM163.916 28.52H156.441V32.27H163.916V28.52V28.52ZM151.706 12.5825C151.206 11.0788 150.836 9.95375 150.705 9.21313L147.011 9.86375C147.202 10.9438 147.686 12.3856 148.147 13.7675L151.706 12.5844V12.5825ZM148.86 7.6625H148.806V11.4125H148.86V7.6625V7.6625ZM146.957 9.23C146.829 9.995 146.462 11.1275 145.982 12.41L149.494 13.7244C149.976 12.44 150.463 11.0056 150.656 9.845L146.957 9.23V9.23ZM145.986 12.3988L144.171 17.1575L147.675 18.4944L149.49 13.7356L145.986 12.3988V12.3988ZM145.922 19.7019H151.528V15.9519H145.922V19.7019ZM191.659 9.68938C190.704 11.15 189.977 12.4981 189.396 13.5556L192.682 15.3594C193.277 14.2775 193.937 13.0588 194.797 11.7406L191.659 9.6875V9.68938ZM191.038 12.5825H190.931V16.3325H191.038V12.5825V12.5825ZM192.547 13.505C191.807 12.2513 191.012 11.0302 190.166 9.845L187.106 12.0125C187.987 13.2575 188.651 14.285 189.317 15.4119L192.547 13.5069V13.505ZM190.164 9.84125L182.796 -0.53125L179.741 1.64L187.11 12.0144L190.166 9.84125H190.164ZM181.268 -1.31875H175.022V2.43125H181.268V-1.31875ZM173.147 0.55625V30.2881H176.897V0.554376H173.147V0.55625ZM175.022 32.1631H181.856V28.4131H175.022V32.1631ZM183.731 30.2881V14.885H179.981V30.2863H183.731V30.2881ZM183.731 14.8869C183.731 14.0938 183.731 12.8675 183.675 11.7931L179.929 11.99C179.979 12.9481 179.981 14.075 179.981 14.8869H183.731ZM181.802 13.7675H181.909V10.0175H181.802V13.7675ZM180.279 12.8206C180.99 14.0638 181.757 15.0669 182.383 15.9031L185.385 13.6569C184.729 12.7813 184.11 11.9675 183.538 10.9625L180.281 12.8206H180.279ZM182.372 15.8863L187.924 23.48L190.95 21.2675L185.398 13.6738L182.372 15.8863ZM189.437 24.2488H192.48V20.4988H189.437V24.2488ZM194.044 23.4106L198.902 16.0831L195.776 14.0113L190.918 21.3369L194.044 23.4106ZM198.947 16.01C199.161 15.6538 199.541 15.0969 199.972 14.4406C200.332 13.895 200.827 13.1356 201.045 12.6125L197.584 11.1725L197.527 11.2794C197.486 11.3544 197.43 11.4519 197.359 11.5681C197.191 11.8409 197.018 12.111 196.841 12.3781C196.472 12.9388 195.997 13.6381 195.731 14.0844L198.947 16.01V16.01ZM199.314 13.7675H199.369V10.0175H199.314V13.7675ZM197.496 11.7819C197.439 12.7569 197.439 14.0506 197.439 15.1006H201.189C201.189 14.0131 201.191 12.845 201.24 12.0031L197.496 11.7819ZM197.439 15.1006V30.2881H201.189V15.1006H197.439ZM199.314 32.1631H206.149V28.4131H199.314V32.1631ZM208.024 30.2881V0.554376H204.274V30.2863H208.024V30.2881ZM206.149 -1.31875H199.901V2.43125H206.149V-1.31875ZM217.804 -0.180625L206.164 29.6056L209.657 30.9706L221.297 1.1825L217.804 -0.1825V-0.180625ZM207.911 32.1631H214.639V28.4131H207.911V32.1631ZM216.388 30.9631L219.111 23.9038L215.612 22.5538L212.889 29.6131L216.388 30.9631ZM217.361 25.1038H226.973V21.3538H217.361V25.1038ZM225.231 23.9263L228.062 30.9856L231.542 29.5906L228.713 22.5313L225.231 23.9263ZM229.802 32.1631H237.223V28.4131H229.802V32.1631ZM238.956 29.5738L226.676 -0.214375L223.209 1.21438L235.489 31.0006L238.956 29.5719V29.5738ZM224.944 -1.375H219.549V2.375H224.944V-1.375ZM220.982 18.3875L222.797 13.6288L219.292 12.2919L217.477 17.0506L220.982 18.3875V18.3875ZM222.801 13.6175C223.283 12.3313 223.772 10.8913 223.965 9.66875L220.26 9.08563C220.132 9.89563 219.769 11.0225 219.289 12.3031L222.801 13.6156V13.6175ZM222.112 11.2513H222.167V7.50125H222.112V11.2513ZM220.316 9.68563C220.507 10.8313 221.002 12.245 221.454 13.6044L225.013 12.4213C224.505 10.8931 224.145 9.84688 224.016 9.06875L220.316 9.68563V9.68563ZM221.462 13.6231L223.063 18.2769L226.609 17.0563L225.007 12.4025L221.462 13.6231V13.6231ZM271.783 -0.180625L260.516 28.6944L264.011 30.0575L275.276 1.1825L271.783 -0.180625V-0.180625ZM263.889 28.4431C261.868 24.9256 260.175 21.995 258.791 19.8313C258.199 18.8835 257.559 17.9667 256.873 17.0844C256.32 16.3906 255.69 15.71 254.991 15.2994L253.091 18.5338C253.168 18.5788 253.444 18.8 253.944 19.4244C254.411 20.0094 254.968 20.8138 255.632 21.8506C256.957 23.9244 258.602 26.7706 260.638 30.3106L263.889 28.4431V28.4431ZM255.917 16.9175V16.8631H252.167V16.9175H255.917ZM254.839 18.56C257.844 17.1481 261.203 13.9963 261.203 9.21688H257.453C257.453 12.0294 255.471 14.12 253.243 15.1663L254.839 18.56ZM261.203 9.21688C261.203 6.49813 260.349 3.77563 258.126 1.75438C255.924 -0.248125 252.645 -1.32063 248.274 -1.32063V2.42938C252.075 2.42938 254.321 3.36125 255.604 4.5275C256.862 5.67313 257.453 7.28 257.453 9.215H261.203V9.21688ZM248.274 -1.32063H238.986V2.42938H248.274V-1.32063ZM237.111 0.554376V30.2863H240.861V0.554376H237.111V0.554376ZM238.986 32.1613H245.872V28.4113H238.986V32.1613V32.1613ZM247.747 30.2863V19.1113H243.997V30.2863H247.747ZM245.872 20.9863H247.956V17.2363H245.872V20.9863ZM247.226 20.8363C247.007 20.7444 247.044 20.6675 247.376 21.0931C247.663 21.4606 248.046 22.0363 248.576 22.9063C249.634 24.6425 251.117 27.2863 253.376 31.22L256.628 29.3525C254.404 25.4788 252.87 22.7469 251.779 20.9544C251.336 20.2047 250.853 19.4799 250.331 18.7831C249.947 18.2938 249.411 17.6881 248.683 17.3825L247.226 20.8381V20.8363ZM255.002 32.1613H268.671V28.4113H255.002V32.1613ZM270.424 30.95L273.094 23.8906L269.588 22.565L266.917 29.6225L270.424 30.95V30.95ZM271.341 25.1019H280.952V21.3519H271.341V25.1019ZM279.21 23.9244L282.041 30.9838L285.521 29.5888L282.692 22.5294L279.21 23.9244ZM283.781 32.1613H291.203V28.4113H283.781V32.1613ZM292.935 29.5719L280.656 -0.214375L277.189 1.21438L289.468 31.0006L292.935 29.5719V29.5719ZM278.921 -1.375H273.529V2.375H278.921V-1.375ZM248.436 12.3144H245.925V16.0644H248.436V12.3144ZM247.8 14.1894V6.16813H244.05V14.1894H247.8ZM245.925 8.04313H248.488V4.29313H245.925V8.04313ZM248.488 8.04313C250.009 8.04313 250.725 8.95813 250.725 9.965H254.475C254.475 6.69313 251.88 4.29313 248.488 4.29313V8.04313ZM250.725 9.965C250.725 11.4088 249.784 12.3144 248.436 12.3144V16.0644C251.891 16.0644 254.475 13.4413 254.475 9.965H250.725ZM275.014 18.3875L276.831 13.6288L273.326 12.2919L271.511 17.0506L275.014 18.3875V18.3875ZM276.834 13.6175C277.316 12.3313 277.806 10.8913 277.999 9.66875L274.294 9.08563C274.166 9.89563 273.801 11.0225 273.322 12.3031L276.834 13.6156V13.6175ZM276.146 11.2513H276.199V7.50125H276.146V11.2513ZM274.35 9.68563C274.541 10.8313 275.034 12.245 275.488 13.6044L279.047 12.4213C278.537 10.8931 278.179 9.84688 278.049 9.06875L274.35 9.68563V9.68563ZM275.494 13.6231L277.095 18.2769L280.643 17.0563L279.039 12.4025L275.494 13.625V13.6231ZM80.7469 -0.180625L69.48 28.6944L72.975 30.0575L84.24 1.1825L80.7469 -0.180625V-0.180625ZM72.8531 28.4431C70.8319 24.9256 69.1388 21.995 67.7531 19.8313C67.1612 18.8838 66.5216 17.967 65.8369 17.0844C65.2838 16.3906 64.6537 15.71 63.9544 15.2994L62.055 18.5338C62.13 18.5788 62.4075 18.8 62.9081 19.4244C63.3731 20.0094 63.9319 20.8138 64.5956 21.8506C65.9212 23.9244 67.5656 26.7706 69.6019 30.3106L72.8531 28.4431V28.4431ZM64.8806 16.9175V16.8631H61.1306V16.9175H64.8806ZM63.8025 18.56C66.8081 17.1481 70.1662 13.9963 70.1662 9.21688H66.4162C66.4162 12.0294 64.4344 14.12 62.2069 15.1663L63.8025 18.56ZM70.1662 9.21688C70.1662 6.49813 69.3131 3.77563 67.0912 1.75438C64.8881 -0.248125 61.6088 -1.32063 57.2381 -1.32063V2.42938C61.0388 2.42938 63.285 3.36125 64.5675 4.5275C65.8256 5.67313 66.4162 7.28 66.4162 9.215H70.1662V9.21688ZM57.2381 -1.32063H47.9494V2.42938H57.2381V-1.32063ZM46.0744 0.554376V30.2863H49.8244V0.554376H46.0744V0.554376ZM47.9494 32.1613H54.8363V28.4113H47.9475V32.1613H47.9494ZM56.7113 30.2863V19.1113H52.9613V30.2863H56.7113ZM54.8363 20.9863H56.9175V17.2363H54.8363V20.9863ZM56.19 20.8363C55.9706 20.7444 56.0063 20.6675 56.34 21.0931C56.6269 21.4606 57.0094 22.0363 57.54 22.9063C58.5975 24.6425 60.0806 27.2863 62.34 31.22L65.5913 29.3525C63.3675 25.4788 61.8338 22.7469 60.7425 20.9544C60.1988 20.06 59.7225 19.3306 59.295 18.7831C58.9106 18.2938 58.3744 17.6881 57.6469 17.3825L56.19 20.8381V20.8363ZM63.9656 32.1613H77.6344V28.4113H63.9656V32.1613ZM79.3875 30.95L82.0575 23.8906L78.5512 22.565L75.8812 29.6225L79.3875 30.95V30.95ZM80.3044 25.1019H89.9138V21.3519H80.3063V25.1019H80.3044ZM88.1737 23.9244L91.005 30.9838L94.485 29.5888L91.6537 22.5294L88.1737 23.9244ZM92.745 32.1613H100.166V28.4113H92.745V32.1613ZM101.899 29.5719L89.6175 -0.214375L86.1544 1.2125L98.4356 30.9988L101.901 29.57L101.899 29.5719ZM87.885 -1.375H82.4925V2.375H87.885V-1.375ZM57.3975 12.3144H54.8888V16.0644H57.3994V12.3144H57.3975ZM56.7638 14.1894V6.16813H53.0138V14.1894H56.7638ZM54.8888 8.04313H57.4519V4.29313H54.8888V8.04313ZM57.4519 8.04313C58.9706 8.04313 59.6887 8.95813 59.6887 9.965H63.4387C63.4387 6.69313 60.8437 4.29313 57.4519 4.29313V8.04313V8.04313ZM59.6887 9.965C59.6887 11.4088 58.7475 12.3144 57.3994 12.3144V16.0644C60.855 16.0644 63.4369 13.4413 63.4369 9.965H59.6869H59.6887ZM83.9775 18.3875L85.7925 13.6288L82.29 12.2919L80.475 17.0506L83.9775 18.3875V18.3875ZM85.7963 13.6175C86.28 12.3313 86.7694 10.8913 86.9606 9.66875L83.2575 9.08563C83.13 9.89563 82.7644 11.0225 82.2863 12.3031L85.7981 13.6156L85.7963 13.6175ZM85.11 11.2513H85.1625V7.50125H85.11V11.2513ZM83.3138 9.68563C83.505 10.8313 83.9981 12.245 84.4519 13.6044L88.0087 12.4213C87.5025 10.8931 87.1425 9.84688 87.0131 9.06875L83.3138 9.68563V9.68563ZM84.4575 13.6231L86.0588 18.2769L89.6044 17.0563L88.0031 12.4025L84.4594 13.6231H84.4575ZM290.477 1.10375L292.133 6.50375L295.717 5.405L294.062 0.00500035L290.477 1.10375V1.10375ZM293.942 7.82938L306.169 7.7225L306.135 3.9725L293.908 4.07938L293.942 7.82938ZM304.551 4.8725L289.654 29.3094L292.856 31.2613L307.753 6.82438L304.551 4.8725V4.8725ZM291.255 32.1613H316.564V28.4113H291.255V32.1613ZM318.439 30.2863V24.725H314.689V30.2863H318.439ZM316.543 22.85L302.34 23.0094L302.383 26.7594L316.584 26.6L316.543 22.85V22.85ZM303.973 25.8444L318.443 1.5125L315.219 -0.405625L300.75 23.9263L303.973 25.8444V25.8444ZM316.101 1.08688L317.702 6.48688L321.298 5.42188L319.695 0.0218754L316.101 1.08688V1.08688ZM319.517 7.82938L331.796 7.7225L331.764 3.9725L319.483 4.07938L319.517 7.82938ZM330.18 4.86875L315.231 29.3075L318.429 31.265L333.379 6.82625L330.18 4.86875V4.86875ZM316.83 32.1613H342.139V28.4113H316.83V32.1613ZM344.014 30.2863V24.725H340.264V30.2863H344.014ZM342.116 22.85L327.915 23.0094L327.956 26.7594L342.159 26.6L342.116 22.85V22.85ZM329.548 25.8444L344.018 1.5125L340.794 -0.405625L326.325 23.9263L329.548 25.8444V25.8444ZM344.488 2.42938H351.375V-1.32063H344.488V2.42938ZM349.5 0.554376V30.2863H353.25V0.554376H349.5V0.554376ZM351.375 28.4113H344.488V32.1613H351.375V28.4113V28.4113ZM346.363 30.2863V0.554376H342.613V30.2863H346.363V30.2863Z" fill="#F0F0F0"/>
</g>
</g>
<defs>
<clipPath id="clip0_721_9931">
<rect width="350.625" height="30" fill="white" transform="translate(0.75 0.5)"/>
</clipPath>
</defs>
</svg>
