<svg width="179" height="69" viewBox="0 0 179 69" fill="none" xmlns="http://www.w3.org/2000/svg">
<g clip-path="url(#clip0_721_9940)">
<path d="M71.0089 7.39886H74.1825V7.85661C74.1485 7.86491 74.1078 7.87652 74.0614 7.88979C74.0145 7.9024 73.9696 7.92137 73.9279 7.94618C73.8273 7.9948 73.7397 8.06672 73.6725 8.15598C73.5962 8.25383 73.558 8.39647 73.558 8.58222V15.6327H77.2035V8.58222C77.2046 8.41685 77.1558 8.25498 77.0634 8.11783C76.9705 7.97769 76.8038 7.89061 76.5666 7.85661V7.39886H79.8679V7.85661C79.6474 7.89061 79.4948 7.9611 79.4094 8.06642C79.327 8.16665 79.2742 8.28782 79.2568 8.41637C79.2478 8.44309 79.2433 8.47111 79.2435 8.4993V15.0091C79.2435 15.1791 79.2601 15.3076 79.2949 15.3972C79.3316 15.4909 79.3879 15.5757 79.4599 15.6459C79.4765 15.6708 79.4989 15.694 79.5238 15.7156C79.6007 15.7738 79.6751 15.8352 79.7469 15.8997C79.7941 15.9428 79.8381 15.9892 79.8812 16.0407C79.9915 16.1592 80.0935 16.2986 80.1864 16.4603C80.2801 16.6212 80.3274 16.8169 80.3274 17.0457V17.1287C80.3273 17.1568 80.3228 17.1848 80.3141 17.2116C80.2643 17.6428 80.0321 18.0409 79.62 18.4008C79.2078 18.7615 78.6663 18.9423 77.9946 18.9423L77.8669 18.9547C77.5023 18.9341 77.14 18.8831 76.7839 18.8021C76.5741 18.7519 76.3657 18.6966 76.1586 18.6363C75.9689 18.5815 75.7818 18.5179 75.598 18.4455C74.9263 18.1827 74.4445 18.0077 74.151 17.9231C73.9444 17.8586 73.7339 17.8076 73.5207 17.7705C73.4483 17.7748 73.378 17.7967 73.3159 17.8344C73.274 17.8594 73.239 17.8945 73.2139 17.9364C73.2133 17.9471 73.211 17.9578 73.2073 17.9679C73.2032 17.9782 73.2009 17.9891 73.2006 18.0002C73.2006 18.0508 73.2114 18.0865 73.2338 18.108C73.2428 18.1176 73.2535 18.1253 73.2655 18.1307C73.2774 18.1362 73.2903 18.1391 73.3035 18.1395H73.354L73.4179 18.152C73.449 18.1437 73.4814 18.1417 73.5133 18.1462C73.5514 18.1503 73.592 18.157 73.6343 18.1653C73.694 18.1818 73.7496 18.2167 73.8002 18.2673C73.8516 18.3178 73.8765 18.3991 73.8765 18.5094V18.5475C73.8642 18.6558 73.8119 18.7555 73.7297 18.827C73.641 18.9116 73.5075 18.9547 73.3283 18.9547L73.2006 18.9672C73.1139 18.9654 73.0285 18.9459 72.9496 18.9098C72.8707 18.8737 72.8001 18.8218 72.742 18.7573C72.6235 18.6247 72.5637 18.4538 72.5637 18.2415C72.5637 17.8767 72.7611 17.574 73.1567 17.3318C73.5514 17.0905 74.0805 16.9694 74.7431 16.9694L74.8708 16.9819C75.1942 16.9736 75.4977 17.001 75.783 17.0648C76.1422 17.1439 76.4955 17.2478 76.8403 17.3758C77.2453 17.5245 77.6534 17.6647 78.0643 17.7962C78.3064 17.8725 78.5204 17.9148 78.7078 17.9231C78.9118 17.9148 79.0992 17.8427 79.2692 17.7075C79.4392 17.5715 79.5238 17.3808 79.5238 17.1345C79.5247 17.0233 79.5013 16.9133 79.4552 16.8121C79.409 16.711 79.3413 16.6212 79.2568 16.549C79.0776 16.3881 78.8396 16.3077 78.5428 16.3077H70.8803V15.8491C70.9703 15.8459 71.058 15.8196 71.1349 15.7728C71.2383 15.7227 71.3284 15.6488 71.3978 15.5572C71.4782 15.4552 71.5189 15.3109 71.5189 15.1235V8.58222C71.5189 8.33676 71.4525 8.15598 71.3198 8.04154C71.1987 7.93153 71.0437 7.86627 70.8803 7.85661V7.39886H71.0089ZM80.8879 7.39886H87.1978C87.3678 7.39886 87.4956 7.38808 87.581 7.36735C87.6656 7.34579 87.7335 7.27944 87.785 7.16915H88.2303V9.44798H87.644C87.4831 8.85339 87.236 8.47608 86.9051 8.3152C86.5734 8.15432 86.1356 8.07305 85.5916 8.07305H83.5905V11.2931H84.8776C85.2176 11.2931 85.4854 11.2351 85.6811 11.1214C85.876 11.0062 85.9738 10.8013 85.9738 10.5045V10.4796H86.561V12.7692H85.9738C85.9573 12.5569 85.9042 12.396 85.8146 12.2857C85.74 12.188 85.6471 12.1057 85.541 12.0436C85.4635 12.0115 85.3821 11.9903 85.2988 11.9806C85.2438 11.9736 85.1884 11.9694 85.133 11.9681H83.5905V15.6327H86.5228C87.0403 15.6327 87.4723 15.4734 87.8165 15.1558C88.1606 14.8374 88.3671 14.47 88.4343 14.0546H89.0214V16.3069H80.8879V15.8491C81.1085 15.8242 81.2636 15.7579 81.3523 15.6517C81.4389 15.5517 81.4985 15.4313 81.5256 15.3018C81.5411 15.2049 81.5494 15.1071 81.5505 15.0091V8.58969C81.5507 8.55311 81.5465 8.51664 81.5381 8.48105C81.5193 8.34114 81.4666 8.20793 81.3847 8.09296C81.3001 7.96857 81.1342 7.89061 80.8871 7.85661V7.39886H80.8879ZM93.3427 7.39886V7.85661C93.2525 7.86015 93.1647 7.88639 93.0873 7.93291C92.9845 7.98332 92.8953 8.05752 92.8269 8.14935C92.7456 8.25135 92.7058 8.39564 92.7058 8.58222V11.3818H97.0139V8.4993C97.0141 8.47117 97.0099 8.44319 97.0014 8.41637C96.9833 8.28789 96.9302 8.16686 96.848 8.06642C96.7635 7.9611 96.6109 7.89061 96.3895 7.85661V7.39886H99.6916V7.85661C99.4785 7.89061 99.3193 7.96442 99.2131 8.08052C99.1061 8.19413 99.0539 8.36247 99.0539 8.58222L99.0663 15.1235C99.0663 15.3275 99.102 15.4759 99.175 15.5688C99.2471 15.6625 99.3765 15.7388 99.5631 15.7985C99.6045 15.8186 99.6475 15.8352 99.6916 15.8483V16.3069H96.3895V15.8491C96.4328 15.8344 96.4755 15.8175 96.5172 15.7985C96.7037 15.7388 96.8331 15.6625 96.9053 15.5688C96.9782 15.4759 97.0139 15.3275 97.0139 15.1235V12.0569H92.7058V15.1235C92.7058 15.3109 92.7456 15.461 92.8269 15.5754C92.9065 15.6899 93.0798 15.7811 93.3427 15.8491V16.3077H90.0406V15.8491C90.2869 15.7645 90.4527 15.6708 90.5381 15.5688C90.6227 15.4676 90.6658 15.3184 90.6658 15.1235V8.58222C90.6658 8.39564 90.6269 8.25383 90.5506 8.15598C90.4839 8.06649 90.3966 7.99449 90.296 7.94618C90.2541 7.92091 90.2089 7.90165 90.1616 7.88896C90.1214 7.87771 90.0811 7.86693 90.0406 7.85661V7.39886H93.3427ZM100.456 7.16915H100.966C101.085 7.22886 101.21 7.27364 101.342 7.30349C101.474 7.33335 101.62 7.34827 101.781 7.34827H107.467C107.546 7.34854 107.625 7.34411 107.703 7.33501L107.926 7.31013C107.986 7.29354 108.046 7.27364 108.105 7.25208C108.164 7.23135 108.228 7.20398 108.295 7.16915H108.921V9.46125H108.334C108.235 9.21213 108.097 8.97994 107.926 8.77296C107.791 8.61049 107.632 8.46908 107.454 8.35335C107.272 8.2221 107.064 8.13109 106.843 8.08632C106.683 8.05577 106.521 8.03858 106.358 8.03491L105.645 8.02247V15.1235C105.645 15.3109 105.685 15.461 105.766 15.5754C105.846 15.6899 106.019 15.7811 106.282 15.8491V16.3077H102.98V15.8491C103.023 15.8344 103.066 15.8175 103.108 15.7985C103.295 15.7388 103.424 15.6625 103.496 15.5688C103.568 15.4759 103.605 15.3275 103.605 15.1235V8.02247L103.018 8.03491C102.891 8.03491 102.752 8.0432 102.604 8.06062C102.45 8.07872 102.298 8.11291 102.151 8.16261C101.895 8.24973 101.659 8.38797 101.457 8.56896C101.232 8.76466 101.051 9.06237 100.915 9.46125H100.328V7.16832H100.456V7.16915ZM109.557 16.3077V15.8491C109.667 15.8439 109.773 15.809 109.863 15.7479C109.952 15.6941 110.026 15.6199 110.08 15.5315C110.149 15.4287 110.183 15.2893 110.183 15.1111V10.1354C110.183 9.14198 110.486 8.42549 111.094 7.98432C111.673 7.5532 112.367 7.30486 113.088 7.27115C113.128 7.26316 113.169 7.25899 113.21 7.25871H113.458C114.605 7.25871 115.471 7.56222 116.053 8.16925C116.635 8.77544 116.926 9.46125 116.926 10.2242C116.926 10.3942 116.913 10.5741 116.887 10.7649C116.862 10.9556 116.819 11.1488 116.76 11.3437C116.615 11.8363 116.344 12.2882 115.944 12.6995C115.545 13.1109 114.95 13.3165 114.159 13.3165H114.032C113.763 13.311 113.494 13.2833 113.229 13.2336C112.906 13.1789 112.57 13.0453 112.222 12.8331V15.1111C112.222 15.2893 112.283 15.4502 112.407 15.5945C112.531 15.7395 112.707 15.8308 112.897 15.8491V16.3077H109.557ZM112.222 9.23154V11.3943C112.222 11.6837 112.347 11.9316 112.598 12.1398C112.849 12.3471 113.148 12.4599 113.496 12.4765C114.016 12.4599 114.342 12.2393 114.478 11.8147C114.614 11.391 114.682 10.8561 114.682 10.2117C114.682 9.56657 114.625 9.03003 114.51 8.60213C114.395 8.17257 114.061 7.95032 113.51 7.93291C113.484 7.9331 113.459 7.93532 113.433 7.93954C113.408 7.94373 113.382 7.94595 113.356 7.94618C113.065 7.98997 112.792 8.11826 112.573 8.3152C112.339 8.5192 112.222 8.82437 112.222 9.23154ZM117.499 15.8491C117.559 15.8325 117.654 15.7852 117.786 15.7098C117.918 15.6327 118.057 15.4884 118.201 15.2761C118.29 15.1477 118.367 15.0114 118.431 14.8689L121.005 9.43471C121.032 9.37236 121.055 9.3087 121.075 9.24398C121.097 9.17598 121.112 9.10798 121.12 9.04081C121.138 8.97861 121.148 8.91464 121.151 8.85008C121.156 8.78208 121.158 8.7174 121.158 8.65852C121.158 8.59135 121.113 8.52998 121.025 8.47442C120.918 8.41562 120.795 8.39102 120.674 8.40393H120.558V7.94618C120.908 7.92047 121.195 7.8591 121.419 7.76125C121.645 7.66422 121.826 7.56057 121.962 7.45027C122.003 7.42482 122.041 7.39478 122.076 7.36071C122.11 7.32671 122.14 7.29354 122.166 7.25871H122.752L126.091 14.2329C126.355 14.776 126.571 15.1558 126.742 15.3723C126.911 15.5879 127.077 15.7388 127.239 15.8234C127.247 15.8234 127.256 15.8259 127.264 15.83C127.273 15.8342 127.281 15.84 127.29 15.8491V16.3077H123.516V15.8491H123.555C123.638 15.8529 123.721 15.8383 123.798 15.8063C123.875 15.7744 123.945 15.7258 124.001 15.6642C124.106 15.5529 124.176 15.4139 124.205 15.2636C124.205 15.2388 124.207 15.2155 124.211 15.194C124.216 15.1708 124.218 15.1472 124.218 15.1235C124.216 15.0955 124.212 15.0677 124.205 15.0406C124.196 15.0032 124.184 14.9671 124.167 14.9328V14.9079C124.167 14.8996 124.162 14.8905 124.154 14.8813C124.146 14.8515 124.138 14.822 124.128 14.7926C124.121 14.771 124.113 14.75 124.103 14.7296L123.708 13.902H119.768L119.437 14.6525C119.429 14.6689 119.423 14.6861 119.418 14.7039C119.414 14.7213 119.407 14.7383 119.399 14.7545C119.381 14.7919 119.363 14.8301 119.348 14.8689C119.33 14.9144 119.317 14.9617 119.31 15.0099C119.301 15.0367 119.297 15.0647 119.297 15.0928V15.1873C119.297 15.3233 119.354 15.4527 119.469 15.5754C119.584 15.699 119.803 15.7894 120.126 15.8491V16.3077H117.499V15.8491ZM121.732 9.76642L120.151 13.1764V13.2278H123.337V13.1896L121.732 9.76642ZM130.26 7.39886H133.269L135.83 14.8689C135.849 14.9391 135.875 15.0074 135.907 15.0729C135.975 15.2761 136.058 15.4461 136.155 15.5821C136.253 15.7172 136.412 15.8068 136.634 15.8491V16.3077H134.135L131.853 9.63871H131.827C131.761 9.97943 131.687 10.3187 131.605 10.6562C131.516 11.0294 131.42 11.4075 131.317 11.7898C131.267 12.0187 131.21 12.2434 131.146 12.464L130.961 13.1001C130.885 13.3721 130.806 13.6267 130.725 13.863C130.645 14.1018 130.569 14.3092 130.502 14.4874C130.426 14.674 130.349 14.8457 130.273 15.0024C130.196 15.16 130.119 15.3018 130.043 15.4287C129.822 15.811 129.593 16.0738 129.355 16.2181C129.1 16.3671 128.809 16.442 128.514 16.4346L128.386 16.4478C128.046 16.4395 127.785 16.35 127.602 16.18C127.42 16.01 127.315 15.8234 127.29 15.6202V15.5191C127.291 15.4547 127.299 15.3906 127.315 15.3283C127.349 15.1741 127.434 15.0306 127.57 14.8946C127.706 14.7586 127.888 14.6914 128.118 14.6914H128.246C128.312 14.6913 128.379 14.6996 128.443 14.7163C128.507 14.7329 128.568 14.7545 128.628 14.7802C128.653 14.7885 128.677 14.7968 128.698 14.8051C128.719 14.8141 128.739 14.8274 128.756 14.844C128.815 14.8689 128.872 14.8921 128.927 14.9137C128.979 14.9341 129.032 14.9491 129.087 14.9585C129.154 14.9503 129.218 14.9236 129.272 14.8813C129.327 14.8399 129.384 14.7843 129.444 14.7163C129.563 14.5554 129.689 14.305 129.821 13.9658C129.99 13.5127 130.145 13.0542 130.285 12.5909C130.32 12.464 130.377 12.2708 130.457 12.0121C130.539 11.7533 130.622 11.4631 130.706 11.1405C130.732 11.0385 130.759 10.9349 130.788 10.8287C130.819 10.7215 130.847 10.6133 130.871 10.5045C130.948 10.1728 131.016 9.84935 131.075 9.53008C131.135 9.21247 131.165 8.9471 131.165 8.73564C131.162 8.60173 131.141 8.46886 131.101 8.34091C131.049 8.20852 130.961 8.09352 130.846 8.0092C130.719 7.90803 130.524 7.85661 130.26 7.85661H130.132V7.39886H130.26ZM140.573 7.39886V7.85661C140.361 7.88232 140.211 7.94618 140.126 8.04735C140.045 8.14137 139.992 8.25634 139.973 8.37905C139.957 8.42829 139.949 8.47978 139.948 8.53164V11.0385H141.083C142.069 11.0385 142.805 11.1828 143.295 11.4714C143.783 11.7592 144.125 12.0734 144.32 12.4126C144.465 12.6763 144.552 12.9243 144.582 13.1573C144.611 13.3903 144.626 13.5628 144.626 13.6723C144.627 13.8043 144.618 13.9362 144.601 14.067C144.508 14.6276 144.214 15.1409 143.722 15.607C143.228 16.0738 142.485 16.3077 141.491 16.3077H137.271V15.8491C137.51 15.8242 137.67 15.743 137.756 15.607C137.84 15.4718 137.888 15.3275 137.896 15.1741C137.904 15.1475 137.909 15.1198 137.908 15.092V8.53164C137.908 8.47971 137.9 8.42815 137.883 8.37905C137.864 8.25622 137.812 8.14115 137.73 8.04735C137.645 7.94618 137.496 7.88232 137.284 7.85661V7.39886H140.573ZM139.948 11.7135V15.6327H140.611C141.095 15.6327 141.518 15.5099 141.88 15.2636C142.241 15.0173 142.421 14.509 142.421 13.737C142.421 13.1598 142.294 12.678 142.039 12.2915C141.784 11.9068 141.304 11.7135 140.598 11.7135H139.948ZM149.012 7.39886V7.85661C148.922 7.86064 148.834 7.88685 148.757 7.93291C148.654 7.98353 148.565 8.05768 148.496 8.14935C148.415 8.25135 148.375 8.39564 148.375 8.58222V11.3818H152.684V8.4993C152.684 8.4711 152.679 8.44305 152.67 8.41637C152.652 8.28796 152.6 8.16693 152.518 8.06642C152.432 7.9611 152.28 7.89061 152.058 7.85661V7.39886H155.36V7.85661C155.147 7.89061 154.989 7.96442 154.882 8.08052C154.776 8.19413 154.723 8.36247 154.723 8.58222L154.735 15.1235C154.735 15.3275 154.772 15.4759 154.844 15.5688C154.916 15.6625 155.046 15.7388 155.233 15.7985C155.274 15.8179 155.317 15.8345 155.36 15.8483V16.3069H152.058V15.8491C152.102 15.8348 152.144 15.8179 152.186 15.7985C152.373 15.7388 152.503 15.6625 152.575 15.5688C152.647 15.4759 152.684 15.3275 152.684 15.1235V12.0569H148.375V15.1235C148.375 15.3109 148.415 15.461 148.496 15.5754C148.576 15.6899 148.749 15.7811 149.012 15.8491V16.3077H145.71V15.8491C145.956 15.7645 146.122 15.6708 146.208 15.5688C146.292 15.4676 146.335 15.3184 146.335 15.1235V8.58222C146.335 8.39564 146.296 8.25383 146.22 8.15598C146.153 8.06645 146.066 7.99447 145.965 7.94618C145.923 7.92077 145.878 7.9015 145.831 7.88896C145.791 7.87782 145.751 7.86704 145.71 7.85661V7.39886H149.012ZM159.682 7.39886V7.85661C159.469 7.88232 159.32 7.94618 159.236 8.04735C159.154 8.14097 159.101 8.25613 159.083 8.37905C159.066 8.42815 159.057 8.47971 159.057 8.53164V11.0385H160.192C161.178 11.0385 161.915 11.1828 162.403 11.4714C162.892 11.7592 163.234 12.0734 163.429 12.4126C163.574 12.6763 163.661 12.9243 163.691 13.1573C163.72 13.3903 163.735 13.5628 163.735 13.6723C163.735 13.8045 163.727 13.9367 163.71 14.0678C163.617 14.6276 163.323 15.1409 162.83 15.607C162.338 16.0738 161.594 16.3077 160.6 16.3077H156.38V15.8491C156.618 15.8242 156.78 15.743 156.865 15.607C156.949 15.4718 156.997 15.3275 157.005 15.1741C157.014 15.1476 157.018 15.1199 157.018 15.092V8.53164C157.018 8.47966 157.009 8.4281 156.992 8.37905C156.974 8.25613 156.921 8.14097 156.839 8.04735C156.754 7.94618 156.606 7.88232 156.393 7.85661V7.39886H159.682ZM159.057 11.7135V15.6327H159.72C160.204 15.6327 160.627 15.5099 160.989 15.2636C161.35 15.0173 161.531 14.509 161.531 13.737C161.531 13.1598 161.402 12.678 161.148 12.2915C160.893 11.9068 160.413 11.7135 159.707 11.7135H159.057ZM167.343 7.39886V7.85661C167.123 7.89061 166.969 7.9611 166.885 8.06642C166.802 8.16665 166.749 8.28779 166.731 8.41637C166.723 8.44314 166.718 8.47113 166.718 8.4993V15.2064C166.718 15.2363 166.723 15.2645 166.731 15.2893C166.749 15.4179 166.802 15.5391 166.885 15.6393C166.969 15.7454 167.123 15.8151 167.343 15.8491V16.3077H164.042V15.8491C164.132 15.8456 164.22 15.8194 164.297 15.7728C164.399 15.7224 164.489 15.6486 164.558 15.5572C164.639 15.4552 164.679 15.3109 164.679 15.1235V8.58222C164.679 8.39564 164.639 8.25135 164.558 8.14935C164.489 8.05798 164.399 7.98413 164.297 7.93374C164.22 7.88683 164.132 7.86029 164.042 7.85661V7.39886H167.343ZM168.554 7.39886H171.728V7.85661C171.724 7.86094 171.72 7.86436 171.714 7.86665C171.709 7.86894 171.703 7.87004 171.697 7.86988C171.691 7.8697 171.685 7.87071 171.68 7.87285C171.674 7.87498 171.669 7.8782 171.665 7.88232H171.652C171.641 7.88258 171.63 7.88483 171.62 7.88896L171.563 7.90803L171.473 7.93954C171.437 7.95399 171.403 7.97353 171.372 7.99759C171.294 8.05003 171.228 8.11948 171.18 8.20076C171.121 8.29364 171.091 8.42135 171.091 8.58222V13.2784L175.043 9.16769V8.58222C175.044 8.41685 174.995 8.25498 174.903 8.11783C174.809 7.97769 174.643 7.89061 174.405 7.85661V7.39886H177.707V7.85661C177.486 7.89061 177.333 7.9611 177.248 8.06642C177.166 8.16651 177.113 8.28775 177.096 8.41637C177.086 8.44305 177.082 8.4711 177.082 8.4993V15.2064C177.082 15.2363 177.086 15.2645 177.096 15.2893C177.112 15.4162 177.163 15.5332 177.248 15.6393C177.333 15.7454 177.486 15.8151 177.707 15.8491V16.3077H174.405V15.8491C174.584 15.8242 174.716 15.7712 174.801 15.6899C174.886 15.6094 174.949 15.5273 174.992 15.4419C175.022 15.3383 175.039 15.2314 175.043 15.1235V10.3386L171.091 14.4626V15.1235C171.091 15.2935 171.138 15.4469 171.231 15.5821C171.325 15.7172 171.49 15.8068 171.728 15.8491V16.3077H168.426V15.8491C168.648 15.8151 168.8 15.7454 168.886 15.6393C168.968 15.539 169.021 15.4179 169.038 15.2893C169.047 15.2626 169.052 15.2346 169.052 15.2064V8.4993C169.052 8.47113 169.047 8.44314 169.038 8.41637C169.021 8.28786 168.968 8.16672 168.886 8.06642C168.8 7.9611 168.648 7.89061 168.426 7.85661V7.39886H168.554ZM173.093 5.47661C173.195 5.47661 173.309 5.46998 173.437 5.45754C173.566 5.4444 173.694 5.42083 173.819 5.38705C174.114 5.33113 174.399 5.23485 174.667 5.10096C174.926 4.96993 175.056 4.80242 175.056 4.59842C175.056 4.55046 175.048 4.50283 175.03 4.45827C175.013 4.41598 174.971 4.39027 174.903 4.38198C174.812 4.40057 174.726 4.43511 174.647 4.48398C174.639 4.48398 174.631 4.48564 174.622 4.48979C174.569 4.5178 174.513 4.54138 174.456 4.56027C174.407 4.57671 174.355 4.58511 174.303 4.58515H174.125C174.103 4.58445 174.082 4.58025 174.061 4.57271C173.956 4.55456 173.857 4.50879 173.774 4.44003C173.73 4.40392 173.695 4.35794 173.672 4.30581C173.649 4.25367 173.638 4.19683 173.641 4.13983C173.641 3.99554 173.702 3.86618 173.825 3.75174C173.948 3.6373 174.133 3.58008 174.38 3.58008H174.507C174.872 3.58008 175.159 3.67793 175.367 3.87281C175.575 4.06769 175.68 4.30569 175.68 4.58598C175.68 5.09432 175.425 5.53632 174.915 5.90866C174.43 6.27402 173.839 6.47088 173.232 6.46925H172.927C172.313 6.4713 171.715 6.27238 171.225 5.90286C170.71 5.52554 170.453 5.08603 170.453 4.58515C170.453 4.30569 170.558 4.06769 170.766 3.87281C170.974 3.67793 171.261 3.58008 171.626 3.58008H171.753C171.966 3.58008 172.126 3.61822 172.232 3.69452C172.327 3.75831 172.404 3.84612 172.455 3.9491L172.481 4.0511C172.499 4.11504 172.499 4.18271 172.481 4.24666C172.463 4.3106 172.427 4.36834 172.379 4.41349C172.285 4.50524 172.164 4.56354 172.034 4.57935C172.004 4.58302 171.975 4.58496 171.945 4.58515H171.818C171.768 4.58378 171.718 4.5731 171.671 4.55364C171.613 4.53172 171.556 4.5085 171.499 4.48398C171.492 4.47601 171.483 4.46954 171.473 4.46491C171.465 4.46083 171.457 4.45857 171.448 4.45827C171.413 4.44078 171.377 4.42581 171.34 4.41349C171.304 4.40169 171.267 4.39118 171.231 4.38198C171.19 4.39318 171.152 4.4149 171.122 4.445C171.101 4.47125 171.086 4.50183 171.078 4.53457C171.074 4.53871 171.071 4.54363 171.069 4.54905C171.067 4.55447 171.066 4.56026 171.066 4.56608V4.59842C171.066 4.649 171.087 4.70622 171.129 4.77008C171.171 4.83393 171.231 4.89944 171.308 4.96744C171.461 5.08603 171.686 5.19881 171.983 5.30413C172.281 5.41027 172.65 5.46832 173.093 5.47661ZM70.5279 21.9326H77.3561L82.4271 35.8195L87.4989 21.9326H94.2416V22.951C93.8826 23.0073 93.6089 23.1152 93.4198 23.276C93.2498 23.4143 93.106 23.582 92.9953 23.7711C92.9256 23.918 92.8824 24.0761 92.8676 24.238C92.8576 24.379 92.8535 24.4876 92.8535 24.5631V39.1292C92.8535 39.5247 92.9339 39.8266 93.0939 40.0339C93.2548 40.2412 93.4298 40.4021 93.618 40.5149C93.7308 40.5712 93.8453 40.6144 93.958 40.6426C94.0716 40.6699 94.1662 40.694 94.2416 40.7131V41.7314H86.9043V40.7122C87.2998 40.655 87.5934 40.5472 87.7816 40.3872C87.9707 40.2263 88.1125 40.0521 88.2071 39.8639C88.2635 39.713 88.2966 39.5712 88.3057 39.4393C88.3149 39.3066 88.3207 39.2038 88.3207 39.1283V24.8732L82.1725 41.7306H79.9069L73.6733 24.6476V38.8447C73.6733 39.4492 73.7861 39.8821 74.0133 40.1467C74.2397 40.4104 74.4943 40.5795 74.7779 40.655C74.9355 40.6942 75.0973 40.7134 75.2597 40.7122V41.7306H70.2451V40.7122C70.6979 40.7122 71.0329 40.6086 71.251 40.4013C71.4533 40.2162 71.6046 39.9824 71.6905 39.7221C71.7652 39.5338 71.8075 39.3539 71.8174 39.1847C71.8253 39.0624 71.83 38.9399 71.8315 38.8173V25.2696C71.8315 24.5349 71.6947 23.9643 71.421 23.5588C71.1474 23.1541 70.7551 22.951 70.2451 22.951V21.9326H70.5279ZM105.04 21.9326V22.9228H104.983C104.927 22.9228 104.87 22.9269 104.813 22.9369C104.748 22.9469 104.681 22.9516 104.615 22.951C104.379 22.9929 104.155 23.0898 103.963 23.2337C103.756 23.3838 103.66 23.6202 103.68 23.9403C103.68 24.073 103.713 24.233 103.779 24.4212C103.845 24.6103 103.944 24.8176 104.076 25.0432L108.298 32.0008L111.074 25.4686C111.093 25.4305 111.116 25.3774 111.145 25.3127C111.174 25.2464 111.197 25.1759 111.216 25.1004C111.235 25.06 111.249 25.0174 111.258 24.9735C111.268 24.9263 111.282 24.874 111.301 24.8176C111.337 24.7114 111.365 24.6028 111.386 24.4926C111.403 24.404 111.412 24.3141 111.414 24.2239C111.414 23.8466 111.263 23.5688 110.961 23.3896C110.647 23.2061 110.301 23.0858 109.941 23.0355C109.866 23.0172 109.791 23.0034 109.714 22.9941C109.638 22.9842 109.562 22.9698 109.488 22.951V21.9326H115.041V22.951C114.492 23.1583 114.106 23.422 113.879 23.7429C113.641 24.0829 113.433 24.4424 113.256 24.8176C113.237 24.874 113.218 24.9254 113.199 24.9735C113.178 25.0246 113.16 25.0764 113.142 25.1286L108.184 36.8097C107.58 38.2427 106.796 39.4683 105.832 40.4867C104.87 41.5042 103.548 42.0133 101.867 42.0133L101.583 42.0424C100.601 42.0233 99.8458 41.8682 99.3168 41.5755C98.7877 41.2836 98.4095 40.9577 98.184 40.5994C98.014 40.3357 97.9045 40.0903 97.8581 39.8647C97.8165 39.6881 97.7926 39.5078 97.7868 39.3265V39.1573C97.7868 39.1001 97.7959 39.0446 97.815 38.9873C97.8717 38.4794 98.0732 37.9984 98.3954 37.6016C98.7263 37.187 99.2504 36.9797 99.9686 36.9797H100.251C100.8 36.9797 101.22 37.0833 101.513 37.2907C101.805 37.498 102.027 37.7335 102.179 37.9972C102.273 38.1481 102.339 38.2991 102.377 38.4508C102.414 38.6001 102.443 38.7236 102.461 38.8182C102.461 38.8555 102.47 38.9028 102.49 38.9592C102.507 39.0043 102.516 39.0519 102.519 39.1001C102.575 39.2892 102.665 39.4592 102.787 39.6101C102.91 39.7602 103.122 39.8448 103.425 39.8647C103.576 39.8448 103.826 39.7602 104.175 39.6101C104.525 39.4592 104.889 39.12 105.267 38.591C105.399 38.3836 105.535 38.1531 105.677 37.8985C105.834 37.611 105.971 37.3135 106.089 37.0079L98.495 24.4776C98.2876 24.1194 98.0563 23.8366 97.8009 23.6293C97.5607 23.4316 97.2996 23.2608 97.0222 23.1201C96.9442 23.0815 96.8636 23.0485 96.7809 23.0214C96.6929 22.9924 96.6031 22.9688 96.5122 22.951V21.9326H105.04ZM118.303 26.4297L118.615 21.7344H119.946C119.963 21.7667 119.977 21.8 119.989 21.8339C119.998 21.8621 120.022 21.8953 120.059 21.9326C120.116 22.0263 120.21 22.1209 120.343 22.2146C120.475 22.3099 120.664 22.3663 120.909 22.3846C121.004 22.3846 121.094 22.3754 121.179 22.3564L121.447 22.3C121.579 22.2627 121.721 22.2195 121.873 22.1731C122.024 22.1258 122.194 22.0736 122.383 22.0172C122.766 21.9234 123.153 21.8478 123.544 21.7908C123.874 21.7518 124.205 21.7142 124.536 21.678C124.763 21.659 124.979 21.6449 125.187 21.6349C125.376 21.626 125.566 21.6213 125.755 21.6208H126.037C126.415 21.6208 126.816 21.6457 127.241 21.6921C127.666 21.7394 128.097 21.8107 128.53 21.9044C129.751 22.2117 130.895 22.7704 131.888 23.5447C132.917 24.3367 133.488 25.4686 133.602 26.9389V27.2499C133.602 28.1737 133.352 28.9748 132.852 29.6548C132.351 30.3331 131.798 30.8605 131.194 31.2378V31.3788C131.741 31.6997 132.2 32.0298 132.567 32.369C132.936 32.709 133.243 33.049 133.488 33.3873C133.828 33.8782 134.06 34.3575 134.183 34.8302C134.305 35.3012 134.367 35.7441 134.367 36.1587C134.367 37.7244 133.852 38.9401 132.823 39.8075C131.793 40.6749 130.665 41.2877 129.437 41.646C128.946 41.7588 128.455 41.8483 127.964 41.9147C127.473 41.981 127.019 42.0142 126.604 42.0142L126.32 42.0424C125.3 42.0233 124.403 41.8956 123.629 41.6609C122.903 41.4432 122.193 41.1736 121.505 40.854C120.982 40.6114 120.462 40.3615 119.946 40.1044C119.505 39.8779 119.024 39.7388 118.529 39.6947C118.479 39.6767 118.427 39.6672 118.373 39.6665H118.218H118.501H118.275C117.991 39.6665 117.684 39.6748 117.354 39.6947C117.012 39.716 116.673 39.7826 116.348 39.8929C116.291 39.9112 116.235 39.9344 116.178 39.9634C116.123 39.9905 116.066 40.014 116.008 40.0339H115.725L115.045 38.9028C115.142 38.8059 115.236 38.7066 115.328 38.6051C115.423 38.5022 115.526 38.3936 115.64 38.2808C116.103 37.8623 116.6 37.4836 117.127 37.1489C117.651 36.8049 118.232 36.5559 118.842 36.4133C118.973 36.3951 119.101 36.376 119.223 36.3569C119.341 36.3387 119.459 36.3292 119.577 36.3287H119.861C120.466 36.3287 121.004 36.4946 121.476 36.8238C121.948 37.1538 122.373 37.5162 122.75 37.9126C122.865 38.0254 122.968 38.139 123.062 38.2526C123.157 38.3654 123.251 38.4691 123.346 38.5636C123.422 38.6382 123.492 38.7187 123.558 38.8041C123.624 38.8887 123.696 38.9691 123.771 39.0446C124.092 39.402 124.451 39.737 124.847 40.048C125.244 40.3598 125.726 40.524 126.292 40.5431C127.086 40.5049 127.799 40.1616 128.432 39.5106C129.063 38.8596 129.38 37.6771 129.38 35.9613C129.38 35.3203 129.282 34.7498 129.083 34.2497C128.877 33.7371 128.616 33.2487 128.304 32.7935C127.661 33.0946 127.033 33.3118 126.42 33.4437C125.806 33.5764 125.225 33.6427 124.677 33.6427H124.394C123.016 33.6427 122.029 33.3972 121.433 32.9063C120.839 32.4162 120.541 31.8316 120.541 31.1532V31.0114C120.578 30.4459 120.834 29.9317 121.306 29.4707C121.778 29.0079 122.609 28.7766 123.799 28.7766H124.082C124.667 28.7766 125.287 28.8429 125.938 28.9756C126.59 29.1066 127.416 29.3811 128.417 29.7957C128.581 29.5965 128.728 29.3834 128.856 29.1589C128.976 28.9474 129.076 28.725 129.154 28.4946C129.245 28.2231 129.311 27.9439 129.352 27.6604C129.389 27.3867 129.408 27.1371 129.408 26.9107C129.408 25.7605 129.073 24.8832 128.403 24.2803C127.732 23.6766 126.991 23.2802 126.179 23.0919C126.005 23.0533 125.83 23.0204 125.654 22.9932C125.481 22.965 125.306 22.9506 125.131 22.9501C124.899 22.9506 124.666 22.9698 124.437 23.0073C124.201 23.0447 123.96 23.0919 123.714 23.1483C122.832 23.3429 121.998 23.7135 121.263 24.238C120.498 24.7753 119.946 25.5059 119.606 26.4297H118.303ZM127.171 31.2942C126.9 31.1212 126.615 30.9698 126.32 30.8414C126.019 30.7099 125.706 30.6058 125.386 30.5305C125.125 30.456 124.86 30.3945 124.593 30.3464C124.35 30.3016 124.103 30.278 123.856 30.2759C123.346 30.295 122.982 30.3704 122.765 30.5023C122.548 30.635 122.41 30.7759 122.355 30.9269C122.355 30.9649 122.35 31.0027 122.341 31.0396C122.331 31.0767 122.326 31.1149 122.326 31.1532C122.326 31.3979 122.462 31.6193 122.736 31.8175C123.011 32.0157 123.582 32.1243 124.451 32.1434C125.037 32.1243 125.513 32.058 125.882 31.9444C126.204 31.8513 126.513 31.7184 126.802 31.5488C126.877 31.5115 126.944 31.4692 127 31.4219C127.057 31.3747 127.114 31.3324 127.171 31.2942ZM136.777 21.9326H150.801C151.178 21.9326 151.462 21.9094 151.65 21.8621C151.839 21.8149 151.99 21.6689 152.104 21.4234H153.096V26.4861H151.792C151.433 25.1668 150.886 24.3275 150.149 23.9685C149.412 23.6102 148.44 23.4319 147.231 23.4319H142.783V30.5877H145.645C146.4 30.5877 146.995 30.46 147.429 30.2054C147.864 29.9508 148.081 29.4939 148.081 28.8338V28.7766H149.385V33.8683H148.081C148.043 33.3972 147.925 33.039 147.727 32.7935C147.529 32.5489 147.326 32.369 147.118 32.2562C146.946 32.1853 146.764 32.1376 146.579 32.1144C146.457 32.099 146.334 32.0896 146.211 32.0862H142.783V40.2321H149.299C150.451 40.2321 151.41 39.8788 152.174 39.1706C152.94 38.4641 153.398 37.6489 153.549 36.7243H154.852V41.7314H136.777V40.7122C137.267 40.655 137.612 40.5091 137.811 40.2727C138.003 40.0507 138.135 39.7832 138.194 39.4957C138.229 39.2804 138.248 39.0628 138.25 38.8447V24.5772C138.25 24.4962 138.241 24.4154 138.222 24.3367C138.18 24.0259 138.063 23.7299 137.882 23.4742C137.693 23.2006 137.325 23.0264 136.777 22.951V21.9326ZM167.496 19.3768C167.723 19.3768 167.978 19.3702 168.261 19.3577C168.545 19.3453 168.828 19.3229 169.111 19.2897C169.791 19.2317 170.42 19.138 170.995 19.0094C171.572 18.8801 171.86 18.7159 171.86 18.5169C171.86 18.4656 171.839 18.4166 171.803 18.38C171.766 18.3386 171.671 18.3137 171.52 18.3054C171.329 18.3222 171.139 18.3555 170.953 18.4049C170.934 18.4048 170.915 18.4068 170.897 18.4107L170.869 18.4173C170.756 18.442 170.643 18.4628 170.529 18.4795C170.415 18.4961 170.301 18.5044 170.189 18.5044H169.791C169.754 18.5044 169.707 18.5003 169.65 18.492C169.432 18.4772 169.218 18.4331 169.013 18.361C168.814 18.2905 168.715 18.1926 168.715 18.0682C168.715 17.9272 168.852 17.8004 169.125 17.6876C169.4 17.5756 169.81 17.5192 170.359 17.5192H170.641C171.454 17.5192 172.092 17.6154 172.554 17.8062C173.017 17.9969 173.249 18.2299 173.249 18.5044C173.249 19.0028 172.682 19.4349 171.549 19.8006C170.415 20.1654 169.169 20.3487 167.808 20.3487H167.128C165.749 20.3487 164.488 20.1638 163.345 19.7939C162.203 19.4249 161.63 18.9945 161.63 18.5044C161.63 18.2308 161.863 17.9977 162.325 17.8062C162.788 17.6154 163.426 17.5201 164.238 17.5201H164.521C164.993 17.5201 165.347 17.5574 165.584 17.632C165.82 17.7067 165.985 17.7896 166.08 17.8808L166.137 17.9803C166.155 18.0135 166.165 18.0433 166.165 18.0682C166.165 18.176 166.08 18.2656 165.91 18.3361C165.728 18.4096 165.538 18.4579 165.343 18.4795C165.211 18.4951 165.079 18.5034 164.946 18.5044H164.663C164.569 18.5044 164.46 18.4936 164.337 18.4729C164.209 18.4514 164.082 18.4287 163.954 18.4049C163.919 18.3889 163.88 18.3804 163.841 18.38C163.761 18.3625 163.681 18.3478 163.6 18.3361C163.52 18.3242 163.44 18.3137 163.359 18.3046C163.276 18.3128 163.195 18.3338 163.118 18.3668C163.078 18.386 163.043 18.4165 163.02 18.4547C163 18.463 162.991 18.4729 162.991 18.4853V18.5169C162.991 18.5666 163.039 18.623 163.132 18.6852C163.227 18.7474 163.359 18.8121 163.53 18.8784C163.869 18.9945 164.37 19.1048 165.031 19.2085C165.692 19.3121 166.514 19.3685 167.496 19.3768ZM157.409 21.9268H164.464V22.946C164.455 22.9551 164.444 22.9622 164.432 22.9669C164.42 22.9716 164.407 22.9738 164.394 22.9733C164.38 22.9731 164.367 22.9756 164.355 22.9806C164.343 22.9855 164.332 22.993 164.322 23.0024H164.294C164.27 23.0035 164.246 23.0082 164.224 23.0165L164.096 23.0579C164.029 23.0806 163.963 23.1044 163.898 23.1293C163.817 23.1609 163.74 23.2039 163.671 23.257C163.52 23.3507 163.378 23.5016 163.246 23.7089C163.114 23.9162 163.048 24.1998 163.048 24.5581V34.9961L171.831 25.8592V24.5573C171.831 24.1808 171.728 23.8366 171.52 23.5256C171.312 23.2147 170.944 23.0206 170.415 22.9452V21.9268H177.754V22.946C177.262 23.0206 176.923 23.1765 176.734 23.412C176.55 23.6346 176.433 23.904 176.394 24.1899C176.375 24.2493 176.365 24.3115 176.366 24.374V39.2817C176.366 39.3481 176.375 39.4094 176.394 39.4658C176.431 39.7486 176.545 40.0082 176.734 40.2437C176.923 40.4792 177.262 40.6351 177.754 40.7106V41.7289H170.415V40.7106C170.811 40.6542 171.104 40.5364 171.293 40.3573C171.466 40.1992 171.61 40.0123 171.719 39.805C171.756 39.6732 171.785 39.5454 171.803 39.4235C171.822 39.3008 171.831 39.1922 171.831 39.0976V28.4614L163.048 37.6273V39.0976C163.048 39.475 163.151 39.815 163.359 40.1168C163.567 40.4178 163.935 40.616 164.464 40.7106V41.7289H157.125V40.7106C157.617 40.6351 157.957 40.4792 158.146 40.2437C158.334 40.0082 158.448 39.7486 158.485 39.4658C158.505 39.4065 158.515 39.3443 158.514 39.2817V24.374C158.515 24.3114 158.505 24.2493 158.485 24.1899C158.446 23.9042 158.329 23.6349 158.146 23.412C157.957 23.1765 157.617 23.0206 157.125 22.9452V21.9268H157.409ZM69.8429 45.6994H70.6747C70.8696 45.8014 71.0727 45.8786 71.2883 45.9291C71.5039 45.9806 71.7428 46.0063 72.0065 46.0063H81.2835C81.4228 46.0063 81.5514 45.9988 81.6691 45.9839L82.0323 45.9408C82.1302 45.9117 82.2272 45.8786 82.3242 45.8412C82.4213 45.8056 82.5249 45.7583 82.636 45.7003H83.656V49.6385H82.6982C82.505 49.1567 82.2828 48.7636 82.0323 48.4568C81.8133 48.1789 81.5539 47.9354 81.2628 47.7345C80.917 47.4865 80.5836 47.3339 80.2643 47.2759C80.004 47.2234 79.7395 47.194 79.474 47.188L78.3089 47.1664V59.3741C78.3089 59.695 78.3753 59.9546 78.5079 60.1511C78.6381 60.3476 78.9193 60.5052 79.3488 60.6213V61.4091H73.9611V60.6213C74.0325 60.5969 74.1024 60.5678 74.17 60.5342C74.4744 60.4322 74.6858 60.3012 74.8044 60.1403C74.9214 59.9795 74.9811 59.7249 74.9811 59.3741V47.1664L74.0233 47.188C73.7973 47.189 73.5716 47.2034 73.3474 47.2311C73.1053 47.261 72.8581 47.319 72.6094 47.4061C72.2204 47.5388 71.8431 47.771 71.4757 48.1068C71.1084 48.4418 70.814 48.9527 70.5917 49.6385H69.6348V45.6994H69.8421H69.8429ZM83.8642 60.6213C83.9612 60.5923 84.1171 60.5118 84.3319 60.3808C84.5467 60.2498 84.7714 60.0018 85.0077 59.637C85.1566 59.4174 85.2819 59.1828 85.3817 58.9371L89.5845 49.5945C89.6268 49.4925 89.6649 49.3831 89.6989 49.2661C89.7337 49.15 89.7578 49.0331 89.7719 48.9162C89.8001 48.8142 89.8175 48.7047 89.8241 48.5878C89.8308 48.4717 89.8341 48.3614 89.8341 48.2594C89.8341 48.1433 89.7611 48.0372 89.616 47.9426C89.47 47.8481 89.2801 47.8083 89.0438 47.8215H88.8572V47.0337C89.4253 46.9906 89.893 46.8845 90.2612 46.717C90.6277 46.5494 90.9221 46.3712 91.1443 46.1812C91.214 46.1373 91.2762 46.0867 91.3317 46.0287C91.3841 45.9735 91.4328 45.9151 91.4777 45.8537H92.4338L97.8846 57.8424C98.3142 58.777 98.6683 59.4296 98.9453 59.8012C99.2231 60.1727 99.4934 60.4314 99.7571 60.5774C99.7704 60.5774 99.7845 60.5815 99.7986 60.589C99.8141 60.5976 99.8281 60.6089 99.84 60.6221V61.4099H93.6819V60.6221H93.7449C94.0501 60.6221 94.2931 60.516 94.473 60.3045C94.6457 60.1097 94.7611 59.8709 94.8064 59.6146C94.8064 59.5714 94.8097 59.5316 94.8163 59.4943C94.8235 59.4549 94.8271 59.415 94.8271 59.3749C94.8202 59.2615 94.7921 59.1504 94.7442 59.0474V59.0026C94.7442 58.9876 94.7367 58.9727 94.7226 58.9586C94.7101 58.9072 94.6966 58.8561 94.682 58.8052C94.6704 58.7681 94.6563 58.7318 94.6397 58.6966L93.9945 57.2744H87.5669L87.0254 58.5647C87.0122 58.5929 87.0019 58.6223 86.9947 58.6526C86.9871 58.6826 86.9765 58.7118 86.9632 58.7397C86.9329 58.8043 86.9052 58.8702 86.8802 58.9371C86.8516 59.015 86.8307 59.0955 86.818 59.1776C86.8035 59.2234 86.7963 59.2713 86.7965 59.3194V59.4844C86.7965 59.7166 86.891 59.9396 87.0776 60.1511C87.265 60.3626 87.6216 60.5193 88.149 60.6213V61.4091H83.8642V60.6213ZM90.7703 50.1634L88.1913 56.0272V56.1151H93.3916V56.0487L90.7703 50.1634ZM100.881 46.0942H106.996C108.522 46.0942 109.631 46.3488 110.324 46.8596C111.018 47.3696 111.469 47.9244 111.676 48.5223C111.802 48.911 111.865 49.3171 111.864 49.7255C111.864 50.6153 111.645 51.3153 111.208 51.8261C110.771 52.3361 110.29 52.7159 109.763 52.9638C109.58 53.0468 109.393 53.1199 109.202 53.1828C109.021 53.2408 108.848 53.2922 108.682 53.3354V53.5551C109.776 53.6571 110.708 54.061 111.479 54.7683C112.248 55.4757 112.633 56.392 112.633 57.5149C112.633 58.6377 112.345 59.4695 111.77 60.0093C111.194 60.5483 110.567 60.9215 109.887 61.1247C109.446 61.251 108.993 61.3316 108.536 61.3652C108.106 61.3942 107.766 61.4091 107.517 61.4091H100.672V60.6213C101.033 60.5633 101.282 60.4422 101.421 60.2606C101.56 60.0781 101.644 59.8774 101.67 59.6593C101.685 59.6132 101.692 59.5651 101.692 59.5167V47.9866C101.692 47.9382 101.685 47.8901 101.67 47.8439C101.643 47.6243 101.557 47.4163 101.421 47.2419C101.282 47.0594 101.033 46.9392 100.672 46.8812V46.0933H100.881V46.0942ZM105.019 54.0137V60.2498H106.019C106.185 60.2498 106.385 60.239 106.621 60.2166C106.857 60.1951 107.1 60.1403 107.35 60.0524C107.78 59.9073 108.172 59.6262 108.525 59.2099C108.879 58.7953 109.056 58.1418 109.056 57.2528C109.056 56.2021 108.765 55.4326 108.182 54.9433C107.6 54.4557 106.961 54.1605 106.269 54.0576C106.041 54.0288 105.811 54.0141 105.582 54.0137H105.019ZM105.019 47.2535V52.8544H105.935C106.698 52.8544 107.326 52.6056 107.818 52.1105C108.31 51.6146 108.556 50.9363 108.556 50.0755C108.556 49.1716 108.366 48.5264 107.984 48.1392C107.603 47.7535 107.183 47.5006 106.725 47.3845C106.515 47.328 106.299 47.2917 106.081 47.2759C105.894 47.2619 105.707 47.2544 105.52 47.2535H105.019ZM114.402 61.4091V60.6213C114.581 60.6093 114.754 60.5488 114.901 60.4463C115.026 60.3742 115.144 60.2498 115.254 60.0748C115.366 59.8998 115.421 59.6594 115.421 59.3525V50.7978C115.421 49.0912 115.917 47.8589 116.908 47.1001C117.9 46.3413 118.985 45.9333 120.165 45.8744C120.23 45.861 120.296 45.854 120.362 45.8537H120.768C122.639 45.8537 124.051 46.3745 125.001 47.4169C125.95 48.4609 126.426 49.6385 126.426 50.9512C126.426 51.2431 126.406 51.5524 126.363 51.8808C126.322 52.2084 126.252 52.5409 126.156 52.8759C125.919 53.7218 125.476 54.4996 124.823 55.2062C124.172 55.9144 123.201 56.2676 121.911 56.2676H121.704C121.357 56.2676 120.92 56.2204 120.393 56.125C119.866 56.0305 119.319 55.8008 118.749 55.4367V59.3525C118.749 59.6594 118.85 59.9363 119.051 60.1843C119.252 60.4322 119.519 60.5774 119.852 60.6213V61.4091H114.402ZM118.749 49.2437V52.9638C118.749 53.4597 118.955 53.886 119.364 54.2434C119.771 54.6006 120.289 54.8057 120.83 54.8239C121.676 54.7949 122.21 54.4151 122.432 53.6853C122.653 52.9555 122.764 52.0375 122.764 50.9288C122.764 49.8209 122.671 48.8979 122.483 48.1615C122.296 47.4243 121.753 47.042 120.851 47.013C120.809 47.013 120.768 47.0163 120.726 47.0238C120.685 47.031 120.643 47.0346 120.602 47.0346C120.13 47.1075 119.703 47.319 119.321 47.669C118.941 48.0189 118.749 48.5438 118.749 49.2446V49.2437ZM128.402 46.0942H133.581V46.882C133.575 46.8891 133.567 46.8947 133.558 46.8984C133.549 46.9021 133.54 46.9039 133.53 46.9035C133.52 46.9033 133.51 46.9051 133.501 46.9088C133.492 46.9125 133.484 46.9181 133.478 46.9251H133.457C133.439 46.9257 133.422 46.9294 133.406 46.9359L133.311 46.9691C133.269 46.984 133.221 47.0022 133.166 47.0238C133.106 47.0483 133.05 47.0813 132.999 47.1216C132.871 47.2138 132.764 47.3333 132.687 47.4716C132.59 47.6333 132.541 47.8514 132.541 48.1284V56.2021L138.991 49.1351V48.1284C138.991 47.8365 138.914 47.5711 138.762 47.3298C138.608 47.0893 138.339 46.94 137.95 46.882V46.0942H143.338V46.882C142.978 46.94 142.728 47.0594 142.589 47.2419C142.45 47.4243 142.367 47.6258 142.339 47.8439C142.325 47.8901 142.318 47.9382 142.318 47.9866V59.5167C142.318 59.5651 142.325 59.6132 142.339 59.6593C142.367 59.8774 142.45 60.079 142.589 60.2606C142.728 60.443 142.978 60.5633 143.338 60.6213V61.4091H137.95V60.6213C138.242 60.5774 138.456 60.487 138.595 60.3476C138.734 60.2092 138.838 60.0674 138.907 59.9214C138.957 59.743 138.985 59.5592 138.991 59.3741V51.1477L132.541 58.2372V59.3741C132.541 59.6668 132.619 59.9297 132.77 60.1619C132.923 60.3949 133.194 60.5492 133.581 60.6213V61.4091H128.194V60.6213C128.554 60.5633 128.804 60.4422 128.942 60.2606C129.078 60.0861 129.164 59.8785 129.192 59.6593C129.206 59.6132 129.213 59.5651 129.213 59.5167V47.9866C129.213 47.9382 129.206 47.8901 129.192 47.8439C129.164 47.6245 129.078 47.4167 128.942 47.2419C128.804 47.0594 128.554 46.9392 128.194 46.8812V46.0933H128.402V46.0942ZM158.192 46.0942V46.882C157.803 46.9691 157.525 47.1109 157.358 47.3082C157.192 47.5048 157.108 47.7784 157.108 48.1292V59.0673C157.108 59.3592 157.175 59.6287 157.307 59.8766C157.439 60.1246 157.914 60.249 158.731 60.249H158.836C159.017 60.249 159.176 60.2738 159.314 60.3253C159.453 60.3767 159.529 60.5691 159.543 60.9057C159.527 61.1373 159.477 61.3654 159.397 61.5833C159.307 61.8329 159.195 62.0745 159.065 62.3055C158.85 62.7381 158.589 63.1456 158.284 63.5204C157.999 63.8796 157.675 64.2058 157.317 64.4932C157.104 64.6538 156.878 64.7967 156.641 64.9202C156.452 65.0228 156.242 65.0791 156.027 65.0844L155.819 65.106C155.666 65.0911 155.552 65.0554 155.476 64.9965C155.424 64.9599 155.38 64.9128 155.348 64.8582C155.316 64.8036 155.295 64.7428 155.288 64.6797C155.282 64.6469 155.279 64.6136 155.278 64.5802C155.278 64.4782 155.302 64.3762 155.351 64.2751C155.399 64.1722 155.452 64.0561 155.506 63.9251C155.519 63.9121 155.53 63.8973 155.539 63.8812C155.544 63.8662 155.555 63.8447 155.569 63.8148C155.653 63.6257 155.736 63.4209 155.819 63.2028C155.927 62.9169 155.966 62.6095 155.933 62.3055C155.926 62.2305 155.909 62.1568 155.881 62.0866C155.838 61.9074 155.744 61.7443 155.611 61.6164C155.472 61.4779 155.257 61.4091 154.966 61.4091H148.705C148.274 61.4091 147.97 61.4672 147.789 61.5833C147.609 61.7002 147.519 61.9116 147.519 62.2176C147.519 62.4515 147.54 62.6157 147.581 62.7102C147.623 62.8056 147.679 62.8885 147.748 62.9615C147.748 62.9764 147.754 62.988 147.768 62.9947C147.784 63.0031 147.798 63.0144 147.81 63.0278C147.88 63.1298 147.945 63.2716 148.008 63.4541C148.07 63.6365 148.101 63.9682 148.101 64.4492C148.101 64.654 148.064 64.8108 147.987 64.9202C147.911 65.0297 147.768 65.0844 147.561 65.0844L147.353 65.106C147.208 65.073 147.065 65.0292 146.927 64.975C146.725 64.902 146.417 64.6681 146 64.2751C145.889 64.1724 145.785 64.0624 145.689 63.9458C145.568 63.8025 145.45 63.6568 145.335 63.5088C145.182 63.3048 145.033 63.0859 144.888 62.8529C144.746 62.6268 144.618 62.3932 144.503 62.153C144.409 61.9427 144.329 61.7266 144.263 61.5061C144.203 61.3115 144.172 61.1093 144.169 60.9057C144.169 60.6138 144.243 60.4314 144.388 60.3584C144.533 60.2854 144.724 60.2266 144.961 60.1834C144.989 60.1832 145.016 60.1793 145.043 60.1718C145.071 60.1649 145.099 60.1613 145.127 60.1611C145.335 60.132 145.525 60.0955 145.699 60.0516C145.872 60.0085 146.043 59.9206 146.209 59.7896C146.625 59.4686 147.1 58.6841 147.633 57.4369C148.167 56.1897 149.003 53.9324 150.14 50.6651C150.376 50.01 150.546 49.5133 150.65 49.1782C150.754 48.8424 150.806 48.5355 150.806 48.2586C150.806 47.8655 150.692 47.533 150.463 47.2634C150.233 46.9931 149.668 46.8654 148.767 46.8803V46.0925H158.192V46.0942ZM153.781 47.2535C153.517 47.2966 153.243 47.4392 152.959 47.6797C152.675 47.9202 152.381 48.2453 152.075 48.6533C151.59 49.325 151.115 50.1559 150.65 51.1477C150.18 52.152 149.766 53.1819 149.412 54.2326C149.078 55.1809 148.803 56.1492 148.59 57.1317C148.389 58.0721 148.288 58.879 148.288 59.5491C148.288 59.8269 148.358 60.0126 148.497 60.1072C148.635 60.2025 148.856 60.2498 149.162 60.2498H153.781V47.2535ZM165.243 46.0942V46.882C164.896 46.9251 164.654 47.0346 164.516 47.2095C164.381 47.3725 164.295 47.5694 164.266 47.7784C164.238 47.8633 164.224 47.952 164.224 48.0413V52.351H166.075C167.683 52.351 168.887 52.599 169.684 53.0949C170.481 53.5908 171.04 54.1306 171.359 54.7144C171.595 55.1664 171.738 55.5934 171.786 55.994C171.834 56.3953 171.859 56.6906 171.859 56.8805C171.858 57.107 171.844 57.3332 171.816 57.558C171.665 58.5216 171.186 59.4039 170.381 60.2058C169.577 61.0086 168.363 61.4091 166.74 61.4091H159.855V60.6213C160.243 60.5774 160.507 60.4389 160.645 60.2067C160.784 59.972 160.86 59.7249 160.874 59.462C160.889 59.4158 160.896 59.3677 160.895 59.3194V48.0413C160.895 47.9521 160.881 47.8634 160.853 47.7784C160.824 47.5695 160.737 47.3728 160.604 47.2095C160.465 47.0346 160.222 46.9251 159.876 46.8812V46.0933H165.243V46.0942ZM164.224 53.5112V60.2498H165.306C166.096 60.2498 166.785 60.0375 167.375 59.6146C167.964 59.1916 168.259 58.3168 168.259 56.9899C168.259 55.9973 168.052 55.1697 167.635 54.5063C167.219 53.8429 166.435 53.5112 165.285 53.5112H164.224ZM177.746 46.0942V46.882C177.385 46.94 177.135 47.0594 176.997 47.2419C176.858 47.4243 176.775 47.6258 176.747 47.8439C176.733 47.8901 176.726 47.9382 176.726 47.9866V59.5167C176.726 59.5651 176.733 59.6132 176.747 59.6593C176.775 59.8774 176.858 60.079 176.997 60.2606C177.135 60.443 177.385 60.5633 177.746 60.6213V61.4091H172.358V60.6213C172.425 60.6197 172.491 60.6088 172.554 60.589C172.632 60.5667 172.706 60.5331 172.773 60.4894C172.943 60.402 173.089 60.2749 173.2 60.1188C173.331 59.9438 173.397 59.6958 173.397 59.3749V48.1284C173.397 47.8083 173.331 47.5595 173.2 47.3845C173.09 47.2281 172.943 47.1007 172.773 47.013C172.706 46.9693 172.632 46.9358 172.554 46.9135C172.491 46.8936 172.425 46.8828 172.358 46.8812V46.0933H177.746V46.0942Z" fill="#F0F0F0"/>
<path fill-rule="evenodd" clip-rule="evenodd" d="M62.163 60.8501C62.1472 61.0417 62.1754 60.9413 62.2061 61.1959C62.0983 61.3411 62.1207 61.4314 61.9192 61.4298L61.138 61.38L61.1463 61.1122C61.1612 60.8261 61.0111 60.9911 61.0194 60.6834L61.0277 60.5159C61.0551 59.9653 61.3594 60.1511 61.6488 59.7132C61.8744 59.8674 62.3488 59.9346 62.3297 60.3451C62.3073 60.6718 62.163 60.7539 62.163 60.8501ZM62.2932 58.1334C62.7684 58.0356 63.3795 57.6898 63.8273 57.7138C64.4534 57.7478 64.99 58.6244 64.956 59.3956L64.9402 59.6593C64.9153 60.1925 64.2022 61.1959 63.7908 61.2084L64.2171 59.6012C63.4351 59.0407 64.1093 58.4942 62.4441 58.3847L62.2932 58.1334ZM37.8953 53.2532C37.7916 55.0328 38.1093 55.3488 38.5056 56.5371C38.329 56.6026 38.1789 56.6714 37.9268 56.6499L37.7129 56.6399C37.3563 56.6233 37.2816 55.3413 37.2982 54.9109L37.3306 54.2284C37.3613 53.6247 37.7452 52.7167 38.0753 52.4953C38.1797 52.8336 37.9177 52.8518 37.8953 53.2532ZM44.8985 49.5049L44.9557 49.3722L46.3713 49.3515C47.2121 49.3366 49.6328 50.7057 50.1494 51.1187C50.8294 51.6627 53.2409 52.2714 54.45 52.3393L55.3091 52.4447L57.3765 52.2755C57.4312 52.6238 57.3831 52.7316 57.476 53.2159C57.5813 53.7383 57.6941 53.677 57.8093 54.153C57.9312 54.692 58.3558 55.4566 58.3202 56.1722L58.3094 56.5006C58.2953 56.8108 57.8649 58.15 57.845 58.4428L57.8433 58.6153C57.8093 59.4114 58.8036 59.4437 58.7829 59.8724L58.7647 60.1925C58.7315 60.8145 58.6486 60.3509 58.6933 61.2482C58.7315 61.7963 58.4379 61.5583 58.0299 61.7772C57.9437 61.72 57.9304 61.6811 57.7588 61.6711L57.6128 61.662L54.9691 61.8312L53.8894 61.7756L53.9192 61.4298C53.9292 61.142 54.2526 60.5134 54.2568 60.2613C54.3364 58.6799 53.8197 57.8424 52.7409 57.5389C50.9438 57.0347 50.5848 58.4071 49.7779 58.3433C49.5092 58.3325 48.2769 57.5563 48.0215 57.3929C47.4792 57.0488 46.6316 56.9393 46.3281 56.3936C45.8223 55.479 46.0296 52.5027 45.5586 51.525L45.5843 51.1784L44.8985 49.5041V49.5049ZM18.7401 40.6019C20.4948 40.7113 21.2643 40.5944 22.3839 41.7761C22.7952 42.2181 23.2156 42.6286 23.4578 43.2083C23.651 43.6304 23.9561 44.6612 23.9288 45.2814C23.9288 45.2947 23.6775 45.8138 23.651 46.3744C23.0639 47.3057 22.9959 47.8663 22.1243 48.5944C21.7279 48.9385 20.3132 49.5663 19.6332 49.529L18.216 49.4286C17.4887 49.3872 16.6088 48.6076 16.2589 48.13C15.9902 47.7734 15.8161 47.5304 15.6121 47.1382C15.35 46.6406 15.4047 46.3744 15.1659 45.9067L15.1609 44.4638C15.1609 43.7025 15.8907 42.3351 16.2589 41.9959C16.5433 41.7372 16.8568 41.4303 17.1545 41.2073C17.5915 40.9013 17.8362 41.0032 18.2301 40.7288L18.507 40.7437L18.7392 40.6019H18.7401ZM36.163 51.2646C36.2351 51.1029 36.284 51.1104 36.2907 50.9188C36.3446 49.7462 36.4126 48.567 36.488 47.1083C36.5743 45.6944 36.2708 44.7117 36.2517 43.4952C36.8305 43.8792 37.0337 44.0558 37.9351 44.1279L38.1275 44.3162L39.3424 44.487C39.762 44.5334 40.9636 44.0143 41.4462 43.9239C41.7033 44.1205 42.1544 44.5558 42.477 44.5774C42.6603 44.5849 42.5682 44.5334 42.8419 44.5218C42.7648 44.7988 41.1419 45.7657 40.7903 46.0452C40.4553 46.2998 39.2437 47.5213 39.0123 47.8538C38.7528 48.2676 38.5148 48.4774 38.2842 48.9651C37.999 49.548 38.1482 49.7852 37.6009 50.1235C36.7982 50.6012 36.4126 51.7804 35.9515 52.1038L36.1638 51.2646H36.163ZM62.1472 43.1005C62.1265 43.4181 63.0412 44.4829 63.251 44.8154C63.6888 45.6297 63.6441 46.0361 63.591 47.1979L63.4243 47.5304C63.018 47.474 62.7468 45.9656 62.2932 45.925C62.1207 45.9067 61.9283 46.0145 61.92 46.2368L61.9134 46.3363C61.9043 46.4026 62.8787 48.1466 62.8455 48.9551L62.8107 49.7164C62.809 49.864 62.4574 51.2016 62.3794 51.4222C62.2036 52.0027 61.9582 52.3659 61.9291 53.1562L61.7633 53.405L61.7135 54.0659C61.6323 54.2218 61.5726 54.2152 61.5551 54.4067L61.5402 54.7533C61.5187 55.1995 61.648 55.8231 61.677 56.2875C61.7019 56.732 62.1472 57.5165 61.6853 57.4899C61.5817 57.4883 61.3503 57.2138 61.2035 57.1168L60.842 57.2743L60.827 57.5165C60.8171 57.8084 61.2201 58.053 61.5145 58.0771L61.5062 58.2462C60.8727 58.3839 60.458 59.1004 60.4199 60.0615L60.3701 60.7191C60.3494 61.2233 60.7159 61.2863 60.2731 61.414C60.2648 60.9513 60.0094 60.9015 60.0243 60.632L60.0492 60.0267C60.0658 59.8359 60.1238 59.8475 60.2001 59.7016L60.3262 58.8574C60.4273 58.3424 59.8427 58.466 59.8684 58.0605V57.9634C59.9148 57.3432 60.1421 57.1408 60.1553 56.6225L60.2175 55.343C60.3129 53.7989 59.7589 53.8669 59.8775 52.341C60.0036 51.0026 60.4962 50.0978 60.5368 49.223C60.6031 48.2303 60.3262 47.3389 59.4986 47.2908C59.2332 47.2792 59.0168 47.9235 58.9371 48.256C58.6933 49.1914 58.8766 48.679 58.4636 49.3507L58.4313 49.9436C58.0764 50.5158 58.5167 50.3433 57.9362 50.5432C57.8093 50.6012 57.3226 50.8367 57.2504 50.9064L56.4684 50.7571C56.208 50.7049 55.9211 50.8948 55.747 50.8798C54.1597 50.8002 51.7059 48.8639 50.3683 48.2403C49.3674 47.7626 48.8176 47.3405 47.6516 46.9549C46.9949 46.7352 46.7983 46.7459 46.0238 46.595C45.1282 46.4076 45.1273 46.6232 44.3122 46.6066L42.9306 47.0859C42.9057 47.6523 42.7648 47.5321 42.7498 47.6664C42.7449 47.931 42.8593 47.9235 42.9878 48.0164L42.924 48.6184C43.6454 49.1516 44.3064 49.5663 44.6406 50.5473C44.8056 51.0507 45.3654 53.1562 45.1721 53.6114L45.3131 53.983L45.4665 56.0321C45.702 56.5379 45.5196 56.8099 45.9997 57.145C46.4094 57.4161 46.6632 57.4253 47.0156 57.742L47.0687 57.6591L49.1045 58.8798L50.166 59.0581C50.1411 59.5001 49.9363 59.792 49.5681 59.7903C49.4379 59.2704 46.8083 57.8299 46.0072 57.7744L45.7518 57.4991C44.8612 57.451 45.0585 57.538 44.7011 56.9235C44.4805 56.4874 44.2898 56.4243 44.1123 55.7957C43.9174 55.071 43.4489 53.8818 42.9057 53.5252C42.0052 52.9497 41.4769 53.5791 40.6617 52.4679C40.3599 52.0657 40.1824 51.9289 40.0174 51.3741C39.9809 51.2182 39.6235 50.0589 39.6235 50.0381L39.631 49.864C39.6575 49.3789 40.2612 48.0612 40.4304 47.552C40.7306 46.6638 41.2986 46.5652 41.8998 46.061C42.6379 45.4365 44.5261 44.3692 45.7833 44.4588L45.9973 44.2954C46.9808 44.3601 47.3224 44.0284 48.2288 44.0898C49.0539 44.1578 49.8857 44.1992 50.7166 44.2432C52.2897 44.3535 53.974 44.2084 55.2875 43.9148C56.4129 43.6544 57.986 42.7721 58.6477 41.9652C58.991 41.534 60.1238 41.8748 60.7159 42.0315C61.3462 42.209 62.4358 42.3409 62.9715 42.3881C63.2195 42.3981 63.1457 42.3243 63.4741 42.3351C63.4907 42.4669 64.2876 43.2829 64.2221 44.2523L64.2055 44.5965C64.193 44.8635 64.1159 44.827 63.9227 44.8394C63.8447 44.4091 62.8612 42.8135 62.5204 42.7721C62.3711 42.7721 62.1472 43.0175 62.1472 43.1005ZM16.4189 50.8574C14.8301 50.748 13.9063 50.3209 13.0961 49.1765C12.5686 48.4186 11.9401 46.3413 12.1391 45.0385C12.3588 43.6287 12.1275 43.7937 12.5413 42.4711C12.7204 41.8748 13.1301 41.0771 13.4568 40.7113C13.7105 40.4385 13.7512 40.2063 14.0439 39.9277C14.33 39.6383 14.3731 39.7361 14.6742 39.3497C14.7388 39.2999 16.2382 38.4707 16.273 38.4781L16.414 38.4839C16.6088 38.4972 17.7225 38.9259 17.8967 39.0047C18.0576 39.0959 19.1572 39.5927 19.2874 39.6026L19.2774 39.7793C17.9423 39.6913 16.6553 40.5165 15.9297 41.2835C15.3094 41.9577 14.2753 43.7116 14.5456 45.1355C14.7463 46.2127 14.631 46.3628 14.9603 47.3521C15.0797 47.722 15.7298 48.5761 15.9827 48.8946C16.7664 49.893 18.0916 50.1833 19.4474 50.2836C19.2202 50.6609 17.9158 50.9503 17.3411 50.9064L16.4189 50.8566V50.8574ZM53.6937 41.9652C54.3438 42.0083 54.8323 41.6128 55.708 41.6633L55.9352 41.6816C55.8075 42.1344 53.9284 43.0333 53.3877 43.2008C52.3594 43.5151 51.2026 43.6005 50.1171 43.5209L49.8185 43.5582L49.8036 43.4405L51.0956 42.855C51.5907 42.855 52.1073 42.6444 52.4647 42.5042C52.6936 42.3981 53.5394 42.0813 53.6937 41.9652ZM25.0408 37.6696L25.3145 37.6903C25.3344 37.6928 26.4945 38.022 26.6239 38.0676C26.9506 38.1837 27.7849 38.2459 28.1481 38.2915C29.4567 38.4707 28.775 39.4774 29.6001 40.2229C30.7528 41.2578 30.4311 40.6259 31.0845 42.2612C31.3739 43.0043 31.6236 44.3162 31.5788 45.4249L31.466 47.4649C31.4038 48.7818 30.3946 51.3998 29.9144 52.2846C29.3207 53.3569 28.1887 55.1041 27.3379 55.7593C27.0526 56.008 26.9233 56.251 26.5974 56.4807C26.2806 56.7195 26.031 56.8174 25.7283 57.0347C24.9322 57.5928 24.7299 57.6317 23.8251 57.9601C23.4793 58.0961 23.4379 58.2686 22.8723 58.4038C22.6235 58.4527 22.0546 58.6235 21.8025 58.6965C21.5869 58.7869 19.6531 59.0672 19.4317 59.0581L19.2874 59.0531C19.0709 59.0398 19.0004 58.9594 18.8761 58.8574C17.7134 59.1004 15.9371 58.1193 15.4678 58.2272C15.3683 58.0198 14.4295 57.6516 14.2114 57.5513C13.6724 57.3473 13.3623 57.111 12.9576 56.7884C12.0479 56.0545 11.6556 55.6456 10.9259 54.7666C9.95397 53.6255 8.77392 50.9188 8.48533 49.0049C8.23904 47.3065 8.32611 47.0378 8.41982 45.1355C8.48616 43.6494 8.95884 42.6759 9.31211 41.6128C9.58245 40.8457 10.3694 39.4152 10.8305 38.9284C11.11 38.6299 12.6532 36.9631 12.9219 36.9796C13.4319 37.0128 13.4601 37.2865 14.034 37.3578L15.2323 37.891C15.2016 38.2219 14.3731 38.7402 14.1127 38.853C13.9444 38.9608 13.1815 39.7287 13.0231 39.9393C12.8705 40.1433 12.3365 41.0538 12.2262 41.3267C12.0603 41.6551 11.9359 41.7106 11.8654 42.1236C11.7692 42.5863 11.9094 42.408 11.6108 42.8799C11.5967 43.3103 11.4865 43.5856 11.4384 44.0035C11.4068 44.2382 11.4566 44.8676 11.4483 45.065C11.4334 45.8138 11.6432 46.2998 11.6067 47.2194C12.0412 48.1001 12.0537 48.732 12.6449 49.7338C13.1226 50.5249 13.5522 51.1684 14.2205 51.7589C15.481 52.895 17.0293 53.7043 19.2144 53.8561L19.4259 53.6927C20.4956 53.7632 21.7793 53.5891 22.466 53.1288C23.1261 52.6993 24.3169 52.2307 24.7705 51.5855C25.0491 51.1916 25.3518 51.1029 25.7034 50.5473C25.9688 50.1194 26.2482 49.6873 26.5003 49.276C26.8578 48.7743 27.488 46.8496 27.5485 45.9258C27.6132 44.5243 27.459 42.1667 26.8884 41.2537C26.5692 40.7371 26.4249 39.9725 26.0451 39.416C25.8004 39.0619 25.0209 38.1058 25.0417 37.6688L25.0408 37.6696ZM58.3708 37.2334C59.0491 37.2873 59.55 36.8063 59.9414 36.4083C60.3867 35.9107 60.7806 35.7847 61.4606 35.6487L61.8578 35.9223L62.0494 35.7067L64.1665 35.8104C64.1806 35.8104 64.7429 36.0708 64.8581 36.0998L64.8473 36.3718C64.1814 36.3386 63.4815 36.6877 62.9135 36.5866L61.8495 36.4083C61.7135 36.3287 61.7202 36.2449 61.5734 36.2399L61.2035 36.2225C60.9207 36.2043 61.1455 36.4249 60.6919 36.4406C60.6446 36.9108 60.468 36.8718 60.4514 37.2865C60.4414 37.4822 60.5368 37.6348 60.7018 37.6422L60.7806 37.6497C61.0286 37.6613 60.8975 37.4822 61.1455 37.4971C61.4424 37.5145 61.5916 37.6994 62.1348 37.7243C62.5992 37.7467 62.7932 37.8296 63.1366 37.8769C63.8514 38.0046 64.3722 37.7003 64.9958 37.7334C65.1583 37.7376 65.1973 38.1149 65.2587 38.2642L64.2129 38.6639C63.3505 38.6581 62.7833 38.8521 61.9764 38.6257C61.6488 38.5287 61.1778 38.4897 60.8727 38.4284C60.2839 38.2832 60.4464 38.4698 59.8792 38.4392L59.307 39.4036C59.5508 39.8929 62.1729 40.1997 62.7194 40.1466L62.7277 40.2486L64.6599 40.0778C64.7428 40.1765 64.8009 40.1765 64.7893 40.3639V40.4667C64.7536 41.2072 61.6049 40.7934 61.1181 40.6691C60.6098 40.5364 59.6138 40.4219 59.2937 40.1897C59.0748 40.0488 58.7953 39.9277 58.535 39.7793C58.2422 39.6159 58.1021 39.2535 57.9188 39.2435L57.8359 39.2369C57.3242 39.2137 56.956 39.4426 56.2652 39.5023C55.6184 39.5396 55.3663 39.6913 54.6092 39.6325C53.4325 39.5578 52.2839 39.8531 51.249 39.7627C50.2672 39.6913 48.9611 40.1466 48.2595 40.4219C47.3224 40.7561 46.4235 41.1981 45.5893 41.4544C44.9839 41.6501 44.4888 41.9188 45.0627 40.9328C45.3529 40.4236 45.4043 40.0488 45.8364 39.7287C46.4235 39.329 47.5463 38.4018 48.1998 38.2633C49.2347 38.0403 49.9379 37.6613 51.1984 37.6348C52.3403 37.5883 53.5096 37.6928 54.6332 37.7558C54.8173 37.7666 54.8165 37.828 54.9799 37.8761L55.193 37.7003C56.116 37.7666 57.8135 37.6339 58.3708 37.2334ZM45.5378 36.4083C45.571 36.0185 45.9807 35.0765 46.1183 34.6171C46.3198 33.8972 46.0968 33.1816 46.5952 32.8233L46.7121 33.1667L46.6839 33.6684C46.9119 34.1245 46.8547 34.5557 46.8191 35.2291C46.6797 37.8852 45.615 39.8166 44.3122 41.2172C43.6173 41.9735 42.9572 42.4412 42.0806 42.9454C41.4852 43.3012 41.2638 43.1287 40.6841 43.4537C40.4884 43.5856 39.3474 43.671 39.0215 43.6005L38.329 43.4098V43.2871L38.6947 43.1544C40.4304 43.2531 41.9645 41.8076 42.9431 40.8457C43.6173 40.164 45.4159 36.5202 45.5387 36.4083H45.5378ZM63.5064 32.0239C63.9534 31.9825 64.1566 33.2098 64.1325 33.7646C64.203 33.9304 64.271 33.9304 64.2602 34.122L64.2055 34.8799C64.1856 35.283 63.3314 35.0765 63.1357 35.0673L62.1348 34.9927C62.0933 34.6137 61.8694 33.0307 61.8927 32.6857L61.9175 32.4328C61.9258 32.2362 61.9764 32.2512 62.0759 32.1467L63.5064 32.0239ZM30.0703 39.8738C31.2371 39.9401 31.4104 39.9476 32.4852 39.8323C33.3808 39.7361 33.8418 39.4094 34.6247 39.2352C35.298 39.0968 37.4301 37.4432 38.067 36.9299C38.2453 36.7839 39.359 35.584 39.4734 35.3684C39.6417 35.0931 39.9328 34.8094 40.1517 34.5582C40.3997 34.3019 40.5141 33.9337 40.7215 33.5846C41.3028 32.5729 42.3103 30.5097 42.4936 29.0502C42.6114 29.0593 43.5111 29.425 43.5965 29.5079C43.7814 29.6754 43.502 30.5304 43.4058 30.7178C43.1073 31.2652 43.2192 31.5504 42.9837 31.9833C42.8062 32.3291 42.676 32.7023 42.4994 33.068C42.351 33.3732 42.1901 33.8972 42.0201 34.2348C41.8625 34.5623 41.6137 34.8443 41.4263 35.1644C40.9536 35.9754 40.772 36.3079 40.2604 37.0568C40.0962 37.2931 38.9858 38.4897 38.7959 38.6456C38.2942 39.0487 37.5661 39.4948 37.1622 39.9094C36.5005 40.6309 34.1338 41.1633 32.797 41.0572H32.7315C32.4993 41.0439 31.0779 40.7744 30.917 40.6574C30.5704 40.4385 29.6482 39.9816 29.5894 39.5819L30.0703 39.8738ZM25.8137 30.8945C26.3494 30.921 28.2791 29.8313 28.5669 29.4897C29.0603 28.886 29.1581 29.2127 29.6507 28.4116C29.868 28.0716 30.8416 28.2126 31.16 28.4233C30.9809 29.0676 30.7155 29.1795 30.3697 29.5452C30.1823 29.7351 30.1765 29.8877 29.9534 30.0702C29.7436 30.2369 29.5446 30.2369 29.3555 30.3629C28.7659 30.8538 29.0628 30.7178 28.2799 31.0993C27.9341 31.2768 27.5651 31.713 27.2724 31.8324C27.0501 31.9592 24.9073 32.5853 24.6502 32.6185C24.1693 32.65 23.4287 32.6915 23.078 32.6857C22.7462 32.6857 22.5953 32.65 22.2644 32.6857C21.8531 32.7471 21.9493 32.5572 21.6533 32.5057L20.392 32.315C19.8339 31.8572 19.3139 31.8755 18.6488 31.2121C18.2806 30.8422 17.5426 30.1813 17.5169 29.5179C18.0426 29.5958 18.6488 31.4559 20.5653 31.5894C20.6747 31.7005 20.6747 31.7586 20.8298 31.771L21.4086 31.81L22.1857 31.8274L22.2644 31.8722C22.5572 31.8921 23.8981 31.5894 24.2215 31.5703C24.8493 31.5181 25.3684 31.2146 25.8137 30.8945ZM36.3719 28.4921C38.5139 28.6281 38.3025 27.8328 37.4069 30.1349C37.2452 30.5304 36.0427 32.7081 35.8271 32.9403C34.9066 33.9968 32.6245 36.531 31.0323 36.4273L30.7926 36.7433C30.5505 36.7433 29.5363 37.085 29.081 37.1662C28.5951 37.2525 27.75 37.3172 27.1953 37.3039L26.9962 37.1015C25.2921 37.0037 22.9859 35.8411 22.9494 33.787L23.0937 33.7944C23.1402 34.1493 23.8948 35.3617 24.1096 35.521C24.71 35.9754 25.2407 36.0592 25.9082 36.0981C27.25 36.1893 27.8114 36.3195 29.1706 35.8576C29.4567 35.7623 29.7594 35.7805 29.9775 35.6619C30.2312 35.5301 30.3589 35.4148 30.6326 35.268C31.0845 35.0524 31.5779 34.8036 32.0614 34.7041C32.1302 34.0291 32.7986 33.9495 33.234 33.2761C33.4529 32.9253 33.6851 32.9585 33.9264 32.6592C34.1537 32.3399 34.225 32.2727 34.4505 31.9111C34.7922 31.3481 35.1496 30.8829 35.4515 30.2609C35.7309 29.7094 36.0817 28.9772 36.3719 28.4921ZM54.8422 25.2447C55.0553 24.6542 56.7147 25.0183 57.2363 24.7844C57.714 24.5812 58.2754 23.3092 58.8078 23.3639C59.6006 23.4037 60.2648 23.8697 60.6413 23.9087L61.1969 23.9419C61.5427 23.9593 61.7666 23.6243 62.0046 23.6467C62.3803 23.6649 62.6713 24.6144 62.7675 25.0946C63.018 26.4396 62.8214 25.865 62.7692 26.9413C62.7626 27.0317 62.8952 27.1893 63.0271 27.2026C63.222 27.2125 63.2369 27.1802 63.3903 27.1495L63.4583 26.0358C63.4815 25.5341 64.3747 26.127 64.3523 26.5342L64.3398 26.8742C64.3257 27.0657 64.1566 27.4688 64.0944 27.6263C64.1856 27.7656 64.1665 27.8751 64.3539 27.8859C64.7661 27.9166 65.4353 27.2863 65.6791 27.2954C65.8574 27.3037 66.612 28.1189 66.7605 28.3105C67.03 28.6836 67.0839 29.4963 67.1079 30.1141C67.1328 30.8555 66.6543 31.1938 66.2223 31.3937C66.102 31.4551 64.8838 31.9344 64.8581 31.9311C64.6815 31.9161 64.2445 31.4683 63.6117 31.4202C63.0918 31.3721 62.6465 31.4501 62.0278 31.4003H61.8827C61.6887 31.392 61.5493 31.0935 61.4863 30.9608C62.0129 30.1879 62.9666 30.0586 63.0412 28.4033L63.0686 27.9904C63.0851 27.7764 63.0271 27.7233 62.8612 27.7043C62.3413 27.6769 62.372 29.4764 60.4298 29.3504L60.0658 29.3255C59.7789 29.3131 59.1453 28.9341 58.6593 28.8876L57.8699 28.8462C57.9312 27.905 58.151 27.1495 57.8019 26.5242C57.5208 26.0209 57.0091 25.5424 56.3357 25.4992L56.1409 25.3035C55.3439 25.272 54.7576 25.3334 54.2675 25.7182C53.7675 26.1121 53.5096 27.4596 53.4499 27.4596C53.2815 27.4497 53.0029 27.1694 52.886 27.0749L53.041 25.7182L54.8422 25.2455V25.2447ZM9.74748 23.7354C8.98455 22.7013 8.55748 21.4358 9.22089 19.8586C9.48875 19.2101 10.9872 17.4189 11.6341 17.4603C11.9318 17.4694 12.5628 18.2772 12.7511 18.5326C13.0106 18.8759 13.1292 19.735 13.2155 20.2823L13.4228 20.2964C13.8092 20.318 13.8905 21.0593 13.8548 21.5984C14.1998 22.2883 13.927 22.5139 14.3731 23.1466C14.5406 23.4012 15.0025 24.1451 15.1659 24.301C15.5059 24.6219 15.7937 24.9768 16.1668 25.3317C16.2299 25.3798 17.3112 25.8857 17.4763 25.9545C18.3329 26.2829 19.5818 26.5897 20.6532 26.4338C21.2643 26.3625 21.7528 26.3741 22.281 26.2464C22.5688 26.1867 23.5681 25.7124 23.583 25.7182H23.646C23.9901 25.748 24.6726 26.3692 25.0491 26.5076C24.9811 26.9521 23.7911 27.1495 23.4014 27.2026C22.7827 27.3178 22.0654 27.3825 21.4227 27.3668C20.7262 27.3568 20.3969 27.5169 19.5171 27.2996C19.0834 27.186 18.216 27.1561 17.5824 27.0409C16.7714 26.8949 15.1361 25.6444 14.6999 25.0514C14.2106 24.3847 13.2329 22.6491 13.2793 21.4864C13.0372 21.5528 12.9866 21.7534 12.9684 22.1473L12.9335 22.8298C12.8863 23.7901 14.1384 25.549 14.631 26.0656C14.8301 26.2705 15.6842 27.113 15.8907 27.2457C16.5558 27.6893 16.8402 27.3137 16.7714 28.7823L16.5641 28.7765C16.4695 28.7691 15.3284 28.0924 15.3011 28.0924L15.0954 28.0725C15.0084 27.8162 14.6045 27.8229 14.3275 27.6139C14.0771 27.3966 13.9046 27.2996 13.6019 27.113C13.1186 26.7968 12.6507 26.4578 12.1996 26.0972C11.7435 25.7746 11.275 25.4379 10.8429 25.0523C10.2102 24.4734 10.2326 24.3698 9.74831 23.7354H9.74748ZM3.81241 22.1614C3.65153 22.1482 3.65817 22.0926 3.54704 21.9682C2.70285 21.9251 1.39592 20.9781 1.42246 20.0526C1.70026 20.2251 1.87026 20.3984 2.10246 20.5245C2.4748 20.7683 2.52539 20.629 2.91846 20.7923C3.26924 20.9316 4.07446 21.396 4.05621 21.8214L4.03714 22.1697L3.81324 22.1614H3.81241ZM58.6991 20.9673C59.2647 20.1082 58.9454 19.2831 60.1694 19.0052C60.7168 19.3983 60.5152 20.2865 61.0451 20.8072C61.4739 21.2152 61.8031 21.7899 62.3197 22.1888C63.1283 22.8174 64.3887 23.98 64.3465 25.4238L63.3795 24.879C63.2767 24.2437 62.7742 23.0164 62.1207 22.9733L61.8927 22.9468C61.7019 22.9401 61.3843 23.3523 61.0186 23.3166L60.9539 23.31C60.4555 23.2892 59.895 22.659 59.5475 22.6449L59.4189 22.6408L58.1245 22.7295L58.6991 20.9681V20.9673ZM35.8445 27.701C35.3387 27.5177 33.7349 27.6479 33.0715 27.6155C32.0855 27.5459 31.1335 27.6305 30.2105 27.3419C29.6059 27.157 29.7784 27.3502 29.0553 26.9737C29.0454 26.9695 27.7948 26.6718 27.6887 26.6387C27.3114 26.5499 26.7823 26.224 26.492 26.1635C25.628 25.9885 25.9762 26.0316 25.3145 25.7132C24.9531 25.5186 24.5995 25.3098 24.2547 25.0871C23.9901 24.9088 23.5208 24.4411 23.3151 24.3167C22.4411 23.7362 22.1857 23.5812 21.5778 22.7113C21.3373 22.3845 21.0429 22.0652 20.8356 21.7344C20.6383 21.3811 20.489 20.8587 20.2692 20.648C19.9002 20.2865 19.3355 18.9638 19.2484 18.278C19.61 18.613 20.3215 19.7698 20.7021 20.2807C20.9534 20.6173 21.1615 20.9607 21.4501 21.2302C21.5662 21.3405 22.1342 22.0089 22.2421 22.1614C22.7462 22.8373 23.3317 23.3896 24.1228 23.6832C24.7846 23.951 25.5774 24.6302 26.2789 24.9353C27.94 25.6547 29.7484 25.9685 31.5547 25.8509C32.5731 25.7953 33.3003 25.7447 34.181 25.559C34.7789 25.4387 36.284 25.2289 36.906 25.2886L38.3166 25.4594L39.6086 25.4628H39.6749C40.1824 25.5001 40.068 25.6825 40.743 25.7132C40.9603 25.719 41.4769 26.0225 41.6983 26.1278C42.1378 26.3211 42.3103 26.4272 42.6868 26.6072C43.084 26.7979 43.123 26.9571 43.4954 27.1868C44.2334 27.6213 46.0246 29.3545 46.1498 30.2377C45.8671 30.1747 45.5478 29.7285 45.4035 29.5079C45.2534 29.2898 44.7733 29.0377 44.4996 28.9374C43.8594 28.6579 43.2822 28.2872 42.5301 28.0617C42.0002 27.8801 41.9297 27.8801 41.4529 27.6777C40.9221 27.4505 40.9545 27.5973 40.2919 27.5459C39.4427 27.4961 38.6483 27.6272 37.9268 27.5658H37.8464L35.8445 27.7001V27.701ZM49.6634 24.4859C49.7513 22.8912 50.5076 21.4425 51.1984 20.6323C51.7565 19.9805 53.3462 18.9829 54.5105 19.2391L55.2121 19.3933C55.6516 19.7649 56.2122 19.8868 56.456 20.4764C55.9617 20.7525 55.2917 21.2866 55.0155 21.8214C54.5818 22.7021 54.9749 23.5861 55.1864 24.1533C55.1018 24.2106 53.838 24.7504 53.6937 24.7852C52.7691 25.0523 52.823 24.3515 52.2524 24.3109L51.9696 24.296C51.633 24.2661 51.2026 25.0954 51.1777 25.6079C51.1412 26.2912 51.9746 26.5425 52.332 26.7772C52.2906 27.7001 52.7815 28.1886 53.4764 28.2217C54.0013 28.2557 54.1498 27.6479 54.1796 26.9845C54.2974 26.8078 54.7344 26.2472 54.9426 26.2672L55.6524 26.3211C55.9924 26.3393 56.8184 27.1138 56.8018 27.4986L56.801 27.6628C56.7628 28.5087 56.0496 29.231 55.3522 29.1936L54.4981 29.1455C54.2908 29.129 53.3877 28.3884 53.2625 28.3884C53.1041 28.376 53.1555 28.405 52.9664 28.4382C52.8445 28.9192 52.9167 29.4963 52.6928 29.8007C52.6082 29.9292 52.138 30.6274 52.138 30.693L52.133 30.7858C52.1164 31.0553 52.8147 32.1807 53.2757 32.2122C54.3372 32.2868 54.8381 32.155 55.596 31.776C55.941 31.6085 57.2687 31.0238 57.4254 30.7858C57.9536 30.8149 57.8972 30.6366 58.2115 30.654L58.35 30.6631C58.7506 30.683 59.1461 33.3964 59.108 34.1294L59.098 34.3749C58.991 36.361 58.6776 36.6496 57.2504 36.8071C56.1546 36.936 55.0531 37.011 53.9499 37.0319L53.5195 36.9987L53.2467 36.9912L49.9529 36.9805C49.9993 36.5418 50.166 36.3088 50.3012 35.9638C50.4479 35.6105 50.4687 35.317 50.5914 34.8932C50.6718 34.5847 50.6163 33.0041 50.6163 32.4709C50.6113 32.218 50.2812 30.9849 50.2066 30.416C50.1104 29.5353 49.7862 29.1721 49.8185 28.3254L49.6817 28.0716C49.7447 27.2755 49.5233 27.2465 49.5681 26.5309L49.6634 24.4859ZM17.6993 22.0089C17.4083 21.7634 17.2407 21.7684 16.7772 21.7136C16.4869 21.6556 16.2879 21.4367 15.9595 21.2882C15.7845 21.2211 14.6634 20.4258 14.5033 20.2666C13.7462 19.4846 12.6449 18.6221 12.4302 17.3326C12.6449 17.3716 13.1226 18.0541 13.354 18.278C13.7205 18.6429 13.9129 18.8336 14.306 19.1927C14.602 19.4705 15.0374 19.7872 15.413 19.9506C15.836 20.1248 16.4687 20.216 16.7772 20.4274L17.7101 20.4664L18.4813 20.4274L19.7368 22.1805L19.1149 22.1888L17.6993 22.0089ZM65.9793 21.513C66.209 21.9832 66.9877 22.7834 66.9553 23.4435L66.9288 24.0339C66.9147 24.233 66.8525 24.233 66.7605 24.3706L66.7298 24.7993C66.3317 25.0871 66.4594 25.6651 65.9785 25.6875L66.1327 24.4146L66.1476 23.9112C66.1974 22.6839 65.6526 22.0205 65.0007 21.5088C64.7022 21.2476 64.2785 20.9681 64.0396 20.6729C63.8887 20.4764 63.7237 20.3047 63.9783 20.2118C64.0861 20.1563 64.5447 19.9689 64.5471 19.9689H64.6243C64.6608 19.9689 65.937 21.4068 65.9793 21.513ZM42.3203 18.5624L42.3087 18.8046C42.3004 18.8502 41.355 20.8139 41.2713 20.9615C41.054 20.7716 40.408 19.7649 40.4304 19.3652V19.2963C40.4544 18.8634 40.9371 18.9024 41.3028 18.9265L41.535 18.817L42.3203 18.5624ZM7.98445 20.216C7.99109 20.1082 8.42977 19.1255 8.50275 18.9953C8.76231 18.6072 8.92153 18.6429 9.21592 18.0997C9.42157 17.7249 10.566 16.8226 10.9599 16.7306C10.901 17.2489 10.396 17.3716 10.0352 17.6602C9.44562 18.1171 9.60484 18.0964 9.15787 18.6014C8.74075 19.0791 8.20006 20.4764 8.13953 21.4068C8.13289 21.5818 8.41982 22.7154 8.48948 22.8862C8.8585 23.655 8.70841 23.3896 9.16782 24.0099C9.38343 24.2918 9.82875 24.7852 9.97304 25.015C10.396 25.6651 10.4358 25.4238 10.8728 25.9072C11.542 26.7282 14.7289 28.5609 14.913 28.9341L16.7125 29.6166C17.0168 30.1257 17.3112 30.5677 17.5832 31.1499C17.7648 31.5405 18.4581 31.9319 18.8379 32.1997C19.3048 32.5223 19.7567 32.9535 20.4177 33.0315C21.509 33.1376 21.606 33.4727 22.1716 33.573L23.0531 35.5384C22.5862 35.5309 22.2644 35.1702 22.0065 34.933C21.9029 34.8103 21.2909 34.5159 21.0429 34.3028C20.4334 33.7952 19.5751 33.5854 19.0577 33.1078L18.7707 33.0854C18.3113 32.6873 16.7722 32.3838 16.55 31.9319C15.2082 31.8324 11.717 29.2401 10.9806 28.366C10.1986 27.3709 9.56255 26.9845 8.92236 25.816C8.4588 24.971 7.81114 23.6201 7.88909 22.256L7.98445 20.216ZM22.4469 17.1278C22.9801 17.1543 23.4204 17.5225 24.0839 17.1278C24.5068 16.8699 24.9546 16.5954 25.3336 16.2512C25.8975 15.7719 27.0128 14.5388 27.1331 13.5852L27.2823 13.5893L27.2326 14.6018C27.2177 14.9642 26.0658 16.4345 26.0003 17.6096L25.9854 17.8667C25.8867 19.9017 26.1811 20.415 26.4796 21.8214C26.6803 22.8464 27.7849 24.4262 27.8371 24.7852C27.2732 25.0705 26.4249 23.8407 25.9762 23.4767C25.6893 23.2486 25.5102 23.0164 25.1246 22.7113C24.9256 22.5404 24.3932 22.1473 24.2257 21.9832C23.9984 21.7899 23.5681 21.2658 23.374 21.1356C22.9212 20.7923 22.83 20.9068 22.5472 20.3188C22.2097 19.6239 22.0165 18.5218 22.0779 17.4437C22.0862 17.2621 22.1044 17.3235 22.1608 17.1079L22.4469 17.1278ZM34.4937 16.4295C34.5177 15.9535 35.099 14.4194 35.3959 14.4534C35.6662 14.4758 36.7534 15.7147 37.6051 15.796L39.0215 15.869C39.412 15.8905 40.408 15.291 40.709 15.1226C40.6659 15.8814 40.3997 15.859 40.3674 16.1393C40.34 16.7049 40.8599 16.3773 40.9669 17.1079L38.8838 17.4313C38.5886 17.6171 38.2312 17.6668 38.1922 18.2075L38.1673 18.6238C38.1159 19.7814 38.8473 21.0909 39.286 21.7941C39.4236 22.0205 39.5787 22.2784 39.6824 22.4832C39.8996 22.8696 39.9428 22.7021 40.1824 23.0048C40.7007 23.6409 40.4304 23.7354 40.3599 24.5688L40.7654 25.2198L40.6841 25.2729C39.9992 25.0432 39.4071 24.3358 38.8473 23.8523C38.5305 23.5961 38.1839 23.4659 37.9227 23.164C37.7394 22.9401 37.2982 22.4533 37.1158 22.3323C36.3263 21.8198 34.6197 19.6065 34.6844 18.2407L34.4937 18.0441L34.4505 17.1212L34.4937 16.4295ZM48.3491 16.7231C48.767 16.7455 49.6328 15.8292 50.0117 15.5953C50.5392 15.2652 51.1835 14.912 51.7731 14.6707C52.5651 14.3555 52.9648 14.2743 53.911 14.1524C54.4019 14.1026 55.747 13.9517 56.208 13.9782L56.6409 14.0056C56.6061 14.5794 56.4833 14.271 56.4701 14.5886L56.4054 15.869C56.3274 17.2489 57.0273 17.1336 56.5149 19.2026C55.9808 19.1628 55.7586 18.6429 54.9766 18.5923L53.4764 18.4861C53.3752 18.4861 52.138 19.0061 52.0965 19.0061L51.8718 18.9953C51.7971 19.3171 51.2324 19.5136 50.977 19.6919C50.6951 19.8826 50.4844 20.2865 50.2804 20.5916C49.928 21.0909 49.3873 22.0793 49.2604 22.8373C49.0009 24.1807 48.9453 24.2777 48.8997 25.6278C48.8375 26.9737 49.0092 27.5459 49.1029 28.6248C49.1916 29.8678 50.2555 32.7545 49.8567 34.1062C49.5357 35.1536 49.6908 35.5989 49.1476 36.6123C48.8566 37.1729 48.9345 37.1729 48.393 37.4034C48.1948 37.493 47.4966 37.8288 47.334 37.818C47.0745 37.7932 47.5812 36.8188 47.6599 36.4282C47.8009 35.8278 47.8009 35.1494 47.9319 34.6054C47.8399 34.4197 47.7304 34.3749 47.7429 34.1692C47.7711 33.573 47.9792 32.8996 47.7711 32.5223C47.4443 31.9733 47.5223 31.8208 47.334 31.2154C47.2403 30.9011 46.3713 29.2169 46.1896 28.978C45.8687 28.551 44.6663 27.6454 44.6663 27.0732C44.6638 25.7132 44.7733 25.0523 44.8288 23.9278C44.8288 23.8971 45.343 21.8422 45.4043 21.6929C45.5229 21.3347 45.5843 20.8943 45.7692 20.629C46.0296 20.2392 46.0395 20.3188 46.2419 19.7872C46.5819 18.817 48.2089 17.1966 48.3491 16.7231ZM4.53553 13.9351C4.56041 13.3911 4.26104 12.7128 4.33816 12.0535C4.3987 11.57 4.70221 10.8353 4.98251 10.6354C5.06709 10.8593 5.06046 10.5799 5.04636 10.8867C5.03558 11.2192 4.81997 11.0683 4.90373 11.5999C4.9568 12.0294 4.9568 11.9349 4.96426 12.4358C4.96426 12.9532 5.19397 13.2999 5.2628 13.7941C5.33577 14.2312 6.07548 15.9005 6.49094 15.9436C6.92382 15.961 7.06314 14.9236 7.42138 14.7926C7.39153 15.3714 7.26133 15.6451 7.34924 16.1559C7.39733 16.4196 7.59636 16.884 7.64114 17.1958C8.55748 17.0034 8.28797 16.0307 9.12304 15.4502C9.41494 15.2495 10.7874 14.1134 10.8894 14.086L11.1431 16.0572L10.6688 15.7139L10.5917 16.3657C9.43236 16.2861 7.96455 18.2979 7.19416 18.9538C6.59046 19.4348 5.38636 22.2419 5.31172 23.548L4.37714 22.2958C4.54963 22.188 4.66573 22.2212 4.68977 21.9583L4.70636 21.7053C4.72294 21.3927 4.22041 20.6721 3.93431 20.5112C3.53792 20.279 3.05529 20.1073 2.5967 19.9158C1.9167 19.6148 1.14963 18.3037 1.20353 17.3782L1.22924 16.9512C1.25412 16.4569 1.31051 15.9925 1.57256 15.7952L1.78734 16.7223C2.14724 17.5681 2.09251 18.0715 2.87534 18.6677C3.21699 18.9389 4.2088 19.8851 4.64085 19.9116L5.07621 19.9365C5.12929 19.701 5.14587 19.7872 5.15748 19.5965C5.19397 19.186 4.40119 19.0351 4.10265 18.8759C3.89534 18.7623 3.40192 18.2788 3.19212 18.0864C2.42919 17.4429 2.49885 16.3806 2.14724 15.6542L2.26665 13.3654L2.59421 12.8264L2.66056 12.8786L2.52373 13.882C2.45407 14.3779 2.9906 16.5631 3.39114 16.5854C3.60924 16.6037 3.59846 16.4445 3.70212 16.2562C3.60924 16.0298 3.14651 14.2245 3.1548 14.0139L3.20207 13.4243C3.2286 12.9151 3.43012 12.1887 3.82402 12.1729L3.70875 12.94C3.63909 13.3729 4.62509 15.7263 5.0787 15.7694C5.12016 15.7694 5.28933 15.5912 5.3789 15.5182L4.53553 13.9351ZM59.7631 13.1854C60.0533 13.0378 61.2607 13.0146 61.6878 13.0445C62.333 13.0868 62.7626 13.7203 63.3074 13.7552C63.3969 13.7568 63.4566 13.6424 63.4625 13.4956C63.4741 13.2684 63.3314 13.2186 63.3455 12.9914C63.3513 12.7799 63.5064 12.3114 63.7303 12.3247C64.203 12.3487 65.1069 13.4226 65.3034 13.7941C65.6144 14.3539 65.8615 15.3457 65.8209 16.301C65.7396 17.8368 64.4012 19.6081 63.0802 19.5385C61.4266 19.4182 59.647 16.9487 58.6088 19.4472C58.4885 19.701 58.413 19.8859 58.2887 20.1073C58.1021 20.459 58.214 20.4954 58.1021 20.862C58.01 21.1215 57.6717 21.9425 57.549 22.1366C57.3093 22.5396 56.2719 23.8366 55.8481 23.849C55.7809 23.3639 55.4517 23.2478 55.4791 22.6441C55.5065 22.1681 57.3134 20.9308 57.6999 20.0742C58.1427 19.1454 57.9072 18.7755 57.9437 17.928C57.9827 16.9346 57.5315 16.5473 57.6211 15.8681C57.8135 14.305 58.7522 13.6581 59.7631 13.1854ZM7.59636 11.3229C7.62455 10.6147 8.93231 8.92798 9.36518 8.95452C9.42738 8.95783 9.49289 9.04739 9.48875 9.14027C9.45392 9.8012 9.26484 10.0508 9.1305 10.5583L8.40572 10.0931L8.32611 10.1619L8.31782 10.939L8.46709 11.1927L8.49031 11.9623C8.50275 12.2542 8.23904 12.7816 8.21084 13.2277L7.50928 14.5098L7.42967 14.5396L7.59636 11.3221V11.3229ZM30.961 15.699C31.0422 14.1772 31.6584 12.6332 32.2057 11.6438C32.4833 11.1211 32.8306 10.6384 33.2381 10.2092C33.3368 10.0898 34.589 9.35339 34.7258 9.37247L35.2234 9.39237C35.162 9.56652 34.1669 10.929 33.9206 11.4879C33.5475 12.3056 33.3775 13.2277 33.3252 14.2303L33.3003 14.567C33.1992 16.549 34.0998 19.8743 34.8179 20.9076C35.4763 21.8928 35.9266 22.1656 36.6771 22.9459C37.0561 23.3291 38.4833 24.4967 38.6342 24.8018C38.4103 24.9212 35.4498 24.9179 34.9224 24.9105C34.016 24.9096 34.2424 24.7687 33.6544 24.1608C33.4886 23.9941 33.3269 23.7462 33.1735 23.5496C32.9545 23.232 32.8028 23.232 32.6303 23.0056C32.4221 22.6972 31.2031 20.4606 31.1003 20.1314C30.922 19.5924 30.7661 16.7986 30.7968 15.9544L30.961 15.699ZM20.2443 5.98325C20.7527 6.01061 20.8398 5.84227 21.3108 5.86217L21.9518 5.91027L23.078 6.19637C23.3251 6.37466 23.6369 6.43852 23.9188 6.63091C24.2447 6.8631 24.3094 6.97837 24.5939 7.20144C25.1262 7.66749 25.3435 7.94861 25.7714 8.53739C26.1222 9.0051 26.5178 9.38657 26.7201 10.089C26.8345 10.5144 27.1546 11.7276 27.1339 12.2061L27.1123 12.8123C27.0543 13.8936 26.0973 14.9004 25.681 15.5439C25.3062 16.1791 23.9893 16.7264 23.0241 16.4246C21.6077 15.9933 21.4866 15.9245 20.6167 14.9004C19.7949 13.9326 19.935 13.2999 19.7261 11.8238L20.4948 10.5102L21.0802 10.4638C21.9294 10.3502 22.8109 11.415 22.7637 12.5353C22.7114 13.6258 21.8697 13.2402 21.8332 13.7576C21.8332 13.7858 22.0737 14.2884 22.1608 14.2917C23.0788 14.3456 23.5855 13.2634 24.015 12.9458L24.156 12.3487C24.2356 11.2018 23.816 10.1387 23.3616 9.47778C22.8499 8.72896 22.1732 8.22891 21.2685 8.18081C20.2792 8.10949 19.7236 8.41632 18.9631 8.98935C18.6281 9.25637 17.7648 10.7151 17.672 11.2707C17.4845 12.4839 17.4622 13.4624 17.5658 14.6906C17.5965 15.0646 17.7126 15.9112 17.8013 16.199C17.8619 16.3665 18.1322 17.491 18.1322 17.6171C17.8743 17.36 17.1719 15.3556 17.2125 14.7337L16.8742 13.5147L16.8244 12.1547L17.1139 9.53169C17.3684 9.15603 17.3419 8.78535 17.657 8.24383C17.8975 7.86486 18.0045 7.50081 18.2956 7.18237C18.6041 6.87637 18.7707 6.66988 19.158 6.44183C19.5585 6.24281 19.9334 6.19637 20.2443 5.98325ZM33.5914 9.03496C34.7375 8.00003 36.5162 7.44276 38.5239 7.56052L38.9609 7.60447C39.2329 7.61939 39.315 7.7952 39.8648 7.82837C40.8915 8.73808 41.802 10.0251 41.3343 12.1406C40.9827 13.7361 39.8648 15.155 38.4269 15.0695L37.999 15.0447C36.6315 14.941 36.2948 13.7858 35.5178 13.0851C35.5891 12.0071 35.5178 11.5841 36.2127 11.0078C36.5992 10.6678 37.6391 10.8212 37.5935 11.8669C37.5296 12.9201 36.4938 12.3039 36.4632 12.8919C36.4582 13.0635 36.7534 13.2485 36.9524 13.2626L37.0951 13.2767C37.8953 13.3239 38.6947 12.4913 38.7519 11.5841L38.7959 10.6512C38.8067 10.4008 38.1159 9.3451 37.9227 9.1751C37.5827 8.87408 36.8214 8.6452 36.2617 8.617C35.9797 8.60042 35.0037 8.62696 34.8088 8.67505C34.4323 8.79613 33.9264 9.04657 33.5914 9.03496ZM55.1109 9.13944C56.927 9.2431 56.5497 7.94115 57.3765 8.00003H57.4519C57.8135 8.02657 58.6801 9.66271 59.0864 9.72408L59.0599 9.97535L58.5681 9.95461C57.4312 9.87749 56.684 9.97535 55.5579 9.92476C54.7618 9.89408 53.4184 10.4008 52.7574 10.3419C52.3594 10.6296 51.7623 10.6744 51.2565 10.8809C50.7324 11.0692 50.3443 11.2707 49.8052 11.4971C49.4279 11.6322 49.452 11.677 49.1476 11.8926C48.9403 12.0543 48.675 12.095 48.4444 12.1953C48.0298 12.386 47.6069 12.7609 47.1756 12.9914C46.1109 13.5429 45.7311 14.1814 44.9242 15.0364C44.5261 15.451 43.1678 17.2804 42.9572 17.394C43.0169 16.1144 42.6752 15.9336 42.2332 15.1201C41.8078 14.3895 41.6419 13.6341 42.3203 13.0154C42.574 13.1838 44.4241 13.1357 44.8363 13.0154C45.6241 12.7808 46.1631 12.4648 46.586 11.7185C46.7867 11.3552 46.7394 10.5882 46.7718 10.05C46.8083 9.18588 46.6433 8.85749 47.1881 9.10793C47.786 9.34925 48.5074 10.0832 49.2637 10.1238L49.6212 10.1462C50.1353 10.1802 50.938 9.57066 51.22 9.20413C51.5641 8.77125 51.7673 7.71974 52.3834 7.76037C53.862 7.85988 54.0279 9.06232 54.8165 9.11871L55.1109 9.13944ZM59.9331 11.2309C59.9472 10.9041 60.3262 9.45374 60.4472 9.18588C60.6247 8.75881 61.1853 8.16588 61.658 8.18993L61.8653 8.20486C62.2161 8.22891 62.7941 8.48017 63.0677 8.617C63.6242 8.88652 63.6018 8.88652 63.8116 9.52091C63.4177 9.4811 63.2137 9.13944 62.6796 9.10793C61.6057 9.02998 61.0186 9.50183 60.9548 10.7905C60.9232 11.5468 61.1057 11.9258 61.0916 12.4209L60.4472 12.4839L60.2175 12.4557C59.9887 12.4424 59.8759 12.1198 59.8941 11.8238L59.9331 11.2309ZM54.9392 6.98003L54.5818 6.97091C54.4019 6.951 53.017 5.77095 52.3461 5.70793L51.9904 5.693C50.2348 5.591 50.5839 8.34252 49.0821 8.23886C48.0091 8.17832 46.115 5.78339 44.9748 7.46764L44.9632 10.2764C44.9607 11.2831 43.5119 11.4556 42.6213 11.41L42.5458 11.4017C42.1627 11.3851 42.1312 9.76305 41.9687 9.20413C41.734 8.38647 41.6743 8.88652 41.3932 8.38647C41.2282 8.09465 41.0145 7.83325 40.7613 7.61359C40.073 6.98003 37.95 6.17398 36.59 6.271L33.8535 6.58447C32.9371 7.2512 31.403 7.53813 30.2826 8.35081C29.8216 8.66427 29.1449 9.11871 28.7866 9.603C28.615 9.85593 27.6447 11.0327 27.4764 11.1372C27.25 10.4638 27.2243 9.67432 26.8437 9.04988C26.4796 8.45944 26.157 8.05393 25.7548 7.50081C25.3749 7.00405 24.9462 6.5465 24.4753 6.135C24.1096 5.78339 23.1343 5.51637 22.7728 5.2112L21.4965 5.03705L20.7834 4.98149C20.0403 4.93505 18.4747 5.70793 18.1189 6.22954C17.8503 6.6193 17.5003 6.76359 17.1412 7.29764C17.0384 7.47676 16.5981 8.70076 16.5815 8.9852C16.4936 9.03496 16.3244 9.21905 16.2796 9.21905C16.0723 9.20413 16.1055 9.02998 15.7903 9.01837L14.5025 8.94042C13.6674 8.88652 11.8215 10.6404 11.7742 10.6404C11.3223 10.6213 11.0469 9.4753 10.4805 9.1212C9.93489 8.7812 9.24743 8.3533 8.46792 8.29359C7.98445 8.25876 7.36914 8.67505 7.03411 8.92052C6.57221 9.23398 6.24465 9.89491 5.94197 10.1022C5.99504 8.94042 5.28933 9.47778 4.81416 9.76222C4.72294 9.84681 4.27016 10.1205 4.19636 10.2092C4.06782 10.3178 3.7527 10.8212 3.61587 10.8021C3.42514 10.7938 3.44836 10.7151 3.42182 10.5252C2.78329 10.5102 2.63402 11.4432 2.31226 11.9001C1.94573 12.4316 1.72265 12.8919 1.69031 13.8431L1.52944 14.0927L1.48797 14.509C1.2707 14.8689 0.563338 15.9469 0.542607 16.5058C0.484558 17.3791 0.475436 19.798 0.705972 20.2541L0.685241 20.5966C1.03353 21.2957 1.00285 21.1746 1.46475 21.6995C1.98802 22.2883 2.13646 22.1109 2.58924 22.5039C4.24363 22.62 4.3987 23.4327 4.97338 24.6152L4.94021 25.0705L5.14753 25.3127C5.14173 25.4594 5.49997 27.8859 5.57046 28.0932C5.6849 28.551 5.82919 28.8478 5.92041 29.3272C5.98924 29.7667 6.39641 30.3919 6.39226 30.5105C6.39226 30.5205 5.23626 32.4344 5.08699 32.7628C4.8009 33.437 4.25192 34.7862 3.98241 35.3277L3.47656 37.1621L3.31319 37.3901C3.27007 38.3189 2.94582 39.2742 2.88446 40.3539C2.80817 41.5298 2.80734 42.3417 2.78826 43.4969C2.76007 45.0973 2.69539 48.6599 3.35797 49.2495C3.28251 50.4884 4.37465 52.8145 4.76441 53.6935C6.98436 62.6878 23.942 65.9145 30.917 59.9844C31.4494 59.5167 31.6949 59.4321 32.219 58.8217C32.627 58.3126 32.9902 58.097 33.4081 57.5173C33.637 57.1856 34.3328 56.3704 34.4688 56.0321C34.628 55.6091 35.1173 54.4938 35.4042 54.2715C35.3577 55.0552 35.2947 55.4101 35.2947 56.2386C35.2947 56.7088 35.9557 57.1358 36.3263 57.1566L38.028 57.2702C38.6831 57.3075 38.8324 57.1566 39.2719 56.9244C39.2595 55.9972 38.0753 54.2624 38.5239 53.2872C39.3474 54.0219 39.1176 55.2227 40.9827 55.4939C41.7539 55.61 42.3974 55.4367 42.5599 56.2386C42.7474 57.1773 42.8021 57.2611 43.186 57.9626C44.0037 59.4694 44.7733 58.981 46.2751 59.5167C46.9318 59.748 48.8085 60.8501 48.8168 61.6114L48.3275 61.5948L48.3126 61.7607L48.6675 61.7772C48.8251 61.788 48.8168 61.8477 48.9544 61.9572L50.4911 62.502C51.1105 62.3569 52.9175 62.3859 53.6448 62.4349C54.6714 62.5112 55.1192 61.9356 56.5223 62.0318L56.7545 61.9315L64.6243 61.5998C64.9958 61.3411 65.6832 60.4471 65.7106 59.792C65.7512 59.243 65.6144 59.1485 65.6451 58.6003C65.4477 58.2048 65.466 57.9203 65.1475 57.5853C65.0306 57.4725 64.4866 56.8945 64.3606 56.8688L63.2925 56.9152C63.0918 57.0479 62.9807 57.1458 62.6407 57.1176C62.2045 57.1027 62.1754 54.1355 62.4209 53.5592C62.5204 53.2756 63.4243 50.3441 63.4326 50.1766L63.5089 48.4783L63.591 48.5289L64.1325 47.4923L64.203 46.0477C64.4908 45.6115 64.8191 45.2657 64.8581 44.4779C64.9162 43.5309 64.6218 42.884 64.3257 42.3069L65.4427 41.1567L65.3573 41.0779L65.4386 40.3266C65.3565 40.164 65.3034 40.164 65.3117 39.9733L65.3217 39.7295C65.33 39.5645 65.7952 38.9939 65.8109 38.5685L65.8391 37.9573C65.8574 37.6505 65.6451 37.7475 65.655 37.4457C65.6633 37.1322 65.8765 37.2657 65.8889 36.9498L65.8922 36.8536C65.9088 36.6645 65.66 36.0326 65.5331 35.8726C65.3258 35.5989 64.8175 35.3634 64.7893 35.3004C64.7014 35.113 64.8473 34.2281 64.8133 33.9312C64.7603 33.5166 64.6732 33.0953 64.6243 32.6973L64.7868 32.5812L65.4925 32.3158L65.8433 32.3407C66.1708 32.1069 66.7422 31.9211 67.0001 31.713C67.2589 31.5098 67.7075 30.8339 67.7241 30.416C67.8634 27.7889 66.1899 26.9695 66.1974 26.8078C66.209 26.6387 66.7845 26.0391 66.9147 25.8509C67.122 25.5498 67.2091 24.8955 67.525 24.762L67.6121 23.1474C67.6237 22.8464 67.4695 23.0894 67.4977 22.4625C67.025 22.0371 66.9006 21.3347 66.4113 20.8885C66.1476 20.6563 65.1973 19.7872 65.218 19.4149C65.2255 19.3054 66.2214 18.0723 66.3127 16.5058L66.345 15.7296C66.4412 14.0354 65.1807 12.2351 64.0396 11.8254C64.0836 11.2309 64.3108 10.8519 64.3506 10.0649L64.3722 9.64613C64.4451 8.36408 63.0918 7.6791 61.9764 7.61359L61.8313 7.61193C61.0493 7.54476 60.7018 7.72388 60.3602 8.27203C59.7797 7.73798 58.214 5.41603 57.7264 5.38286C57.0298 5.32315 56.684 5.85056 56.2594 6.02554C55.6043 6.30086 55.5844 7.03393 54.9392 6.9792V6.98003ZM60.8536 16.7546L60.842 17.0001C60.8279 17.2489 61.1853 17.8791 61.4415 17.894L61.8645 17.9139C62.4806 17.9637 63.2245 16.5125 62.8314 16.1144L62.7111 16.7049C62.5486 16.5539 62.4333 16.2463 62.2542 16.2347L61.964 16.2214C61.9333 16.0265 61.9582 15.971 61.7666 15.9618L61.6812 15.9535C61.3138 15.9245 60.8801 16.2753 60.8536 16.7546ZM58.4927 25.1302C58.5449 25.5001 58.5756 26.0648 58.9488 26.0922L59.448 26.1419C60.0102 26.1635 60.1164 24.6302 59.249 24.5821C58.8517 24.5522 58.6668 24.8682 58.4927 25.1294V25.1302Z" fill="#F0F0F0"/>
</g>
<defs>
<clipPath id="clip0_721_9940">
<rect width="178.293" height="68" fill="white" transform="translate(0.14502 0.5)"/>
</clipPath>
</defs>
</svg>
