<svg width="206" height="30" viewBox="0 0 206 30" fill="none" xmlns="http://www.w3.org/2000/svg">
<path d="M0.7055 11.916C0.7055 18.636 5.7615 23.884 12.6735 23.884C19.5855 23.884 24.6415 18.636 24.6415 11.916C24.6415 5.356 19.5855 0.235998 12.6735 0.235998C5.7615 0.235998 0.7055 5.356 0.7055 11.916ZM6.6575 11.916C6.6575 8.268 9.3455 5.516 12.6735 5.516C16.0015 5.516 18.6895 8.268 18.6895 11.916C18.6895 15.724 16.0015 18.604 12.6735 18.604C9.3455 18.604 6.6575 15.724 6.6575 11.916ZM27.9023 23.5H33.4383V17.42H38.4623V21.164C38.4623 22.796 39.1663 23.5 40.7983 23.5H45.9183V18.86H44.7023C44.2543 18.86 43.9983 18.604 43.9983 18.156V7.02H38.4623V12.94H33.4383V9.356C33.4383 7.724 32.7343 7.02 31.1023 7.02H25.9823V11.66H27.1983C27.6463 11.66 27.9023 11.916 27.9023 12.364V23.5ZM48.996 23.5H54.532L59.076 16.108C59.332 15.66 59.684 15.148 59.972 14.476H60.036C59.972 15.116 59.972 15.756 59.972 16.14V21.164C59.972 22.796 60.676 23.5 62.308 23.5H67.012V18.86H65.796C65.348 18.86 65.092 18.604 65.092 18.156V7.02H59.556L55.012 14.444C54.724 14.924 54.404 15.404 54.116 16.076H54.052C54.084 15.66 54.116 15.02 54.116 14.444V9.356C54.116 7.724 53.412 7.02 51.78 7.02H47.076V11.66H48.292C48.74 11.66 48.996 11.916 48.996 12.364V23.5ZM70.0898 23.5H75.6258V17.42H76.3938C76.8098 17.42 77.3218 17.42 77.6098 17.964L79.7858 22.252C80.3298 23.308 80.9698 23.5 82.1538 23.5H86.3458V18.86H85.1618C84.5218 18.86 84.2018 18.764 83.9458 18.316L82.8898 16.492C82.2498 15.404 81.3538 15.116 81.3538 15.116V15.052C81.3538 15.052 81.9618 14.732 82.5698 13.676L86.5058 7.02H80.4898L77.6418 12.236C77.3538 12.748 76.7778 12.78 76.2978 12.78H75.6258V9.356C75.6258 7.724 74.9218 7.02 73.2898 7.02H68.1698V11.66H69.3858C69.8338 11.66 70.0898 11.916 70.0898 12.364V23.5ZM87.5485 15.244C87.5485 19.788 90.8445 23.884 96.7325 23.884C101.437 23.884 104.029 20.684 104.029 20.684L101.821 16.972C101.821 16.972 99.6445 19.116 97.2765 19.116C95.2285 19.116 93.1165 17.996 93.1165 15.18C93.1165 12.972 94.5245 11.212 96.8605 11.212C97.5325 11.212 98.1405 11.404 98.1405 11.916V12.78H102.941V10.508C102.941 7.532 99.1645 6.636 96.8605 6.636C90.6205 6.636 87.5485 10.892 87.5485 15.244ZM115.442 23.5H121.17V14.22H121.618C122.482 14.22 123.154 14.22 123.538 14.956L126.962 21.804C127.666 23.244 128.594 23.5 130.194 23.5H133.554V18.7H132.946C132.306 18.7 131.698 18.636 131.378 17.964L129.298 13.74C128.498 12.14 127.538 11.916 127.538 11.916V11.852C127.538 11.852 128.466 11.436 129.234 9.868L133.81 0.619999H127.57L123.698 8.748C123.314 9.452 122.738 9.452 121.938 9.452H121.17V2.956C121.17 1.324 120.466 0.619999 118.834 0.619999H113.362V5.42H114.738C115.186 5.42 115.442 5.676 115.442 6.124V23.5ZM136.309 29.9H141.845V23.884C141.845 23.052 141.781 22.476 141.781 22.476H141.845C141.845 22.476 143.349 23.884 146.037 23.884C150.421 23.884 153.717 20.492 153.717 15.276C153.717 10.156 150.773 6.636 146.293 6.636C142.805 6.636 141.365 8.748 141.365 8.748H141.301V8.46C141.301 7.756 140.757 7.02 139.157 7.02H134.389V11.66H135.605C136.053 11.66 136.309 11.916 136.309 12.364V29.9ZM141.685 15.372C141.685 12.524 143.253 11.308 144.917 11.308C146.837 11.308 148.149 12.908 148.149 15.372C148.149 17.9 146.645 19.308 144.917 19.308C142.741 19.308 141.685 17.356 141.685 15.372ZM173.412 21.164C173.412 22.796 174.116 23.5 175.748 23.5H180.868V18.86H179.652C179.204 18.86 178.948 18.604 178.948 18.156V7.02H173.412V21.164ZM156.964 21.804C156.964 22.988 157.476 23.5 158.66 23.5H164.996C168.452 23.5 171.524 21.74 171.524 17.836C171.524 14.7 169.572 12.204 164.996 12.204H162.5V8.876C162.5 7.756 161.7 7.02 160.196 7.02H155.044V11.66H156.26C156.708 11.66 156.964 11.916 156.964 12.364V21.804ZM162.5 19.34V15.852H164.068C165.252 15.852 166.02 16.588 166.02 17.804C166.02 19.02 165.22 19.852 164.068 19.852H163.012C162.692 19.852 162.5 19.66 162.5 19.34ZM182.046 23.5H186.046C187.262 23.5 187.71 22.988 187.774 21.804L188.19 16.236C188.254 14.956 188.254 13.324 188.254 13.324H188.318C188.318 13.324 188.766 14.796 189.15 15.852L191.038 21.292H196.03L198.174 15.852C198.59 14.828 199.069 13.324 199.069 13.324H199.134C199.134 13.324 199.134 14.956 199.198 16.236L199.614 21.804C199.678 22.988 200.126 23.5 201.342 23.5H205.342V18.86H204.766C204.446 18.86 204.286 18.668 204.254 18.348L203.134 7.02H196.798L194.302 14.252C194.014 15.084 193.694 16.172 193.694 16.172H193.662C193.662 16.172 193.374 15.084 193.086 14.252L190.59 7.02H184.254L183.134 18.348C183.102 18.668 182.942 18.86 182.622 18.86H182.046V23.5Z" fill="#F0F0F0"/>
</svg>
