<svg width="113" height="31" viewBox="0 0 113 31" fill="none" xmlns="http://www.w3.org/2000/svg">
<g clip-path="url(#clip0_190_2695)">
<path d="M96.2787 11.6601L96.6792 11.0831L97.2137 10.4654L97.6769 9.82401L98.2335 9.43881L98.7528 8.9518L99.1821 8.7872C99.4146 8.8415 99.6623 8.77871 99.8982 8.63617C101.03 7.94892 101.877 5.4256 99.496 5.41033C100.009 3.26203 97.4411 2.99052 96.6333 4.39896C93.6824 2.4543 93.3227 6.84932 93.2056 8.02867L93.3634 9.52536L93.6247 10.8965L94.0472 12.0945C95.3929 12.6511 95.8205 12.1776 96.2787 11.6601Z" fill="#282C35"/>
<path d="M95.7363 11.4929C96.2555 10.7615 96.7171 10.0573 97.4027 9.43116C97.9711 8.91191 98.6431 8.50634 99.4271 8.41301C100.14 8.32817 100.834 8.63701 101.423 9.00184L101.64 9.14438L101.382 9.16475C100.486 9.23771 99.5119 9.39213 98.8909 10.0947C98.677 10.3373 98.5107 10.6224 98.3495 10.9007C98.1459 11.2537 97.9474 11.5981 97.7115 11.9307C97.1888 12.6689 96.3166 13.7244 95.2628 13.4291C94.9048 13.329 94.6027 13.0778 94.3618 12.8046C93.9562 12.7503 93.3657 12.6791 93.0619 12.4025C92.9313 12.282 92.8261 12.1361 92.7548 11.9731C92.4833 11.369 92.6394 10.7497 92.6496 10.1269C92.6699 8.98487 92.8515 7.87169 92.6716 6.72797C92.619 6.39538 92.5104 6.07975 92.4307 5.75394L92.3306 5.34668L92.5902 5.67928L92.9941 6.19684L92.9975 6.20023L92.9992 6.20362C93.5014 6.9859 93.7679 7.758 93.7831 8.68282C93.7916 9.18681 93.6813 9.87915 93.8154 10.3526C93.89 10.6173 94.0377 10.8226 94.2379 10.9974C94.5128 9.42777 95.648 9.77564 96.0655 8.7507C96.3421 8.13472 96.5372 7.78515 96.2844 7.09451L96.1588 6.75173L96.4303 6.99948C97.2584 7.75461 97.0769 8.92718 96.6441 9.83164C96.5355 10.0573 96.4066 10.2542 96.2487 10.4476C96.1384 10.5834 96.0112 10.7174 95.9162 10.8651C95.7838 11.067 95.7397 11.2723 95.7363 11.4929Z" fill="#282C35"/>
<path d="M92.3334 5.34687L92.5931 5.67947L92.9969 6.19703L92.9986 6.20042L93.0003 6.20382C93.5026 6.9861 93.769 7.7582 93.7843 8.68302C93.7928 9.187 93.6825 9.87934 93.8165 10.3528C93.8912 10.6175 94.0388 10.8228 94.2391 10.9976C94.514 9.42796 95.6492 9.77583 96.0667 8.75089C96.3433 8.13491 96.5384 7.78535 96.2856 7.0947L96.16 6.75192L96.4315 6.99967C97.2596 7.7548 97.078 8.92737 96.6453 9.83183C96.5367 10.0575 96.4077 10.2544 96.2499 10.4478C96.1396 10.5836 96.0124 10.7176 95.9173 10.8653C95.7867 11.0672 95.7408 11.2725 95.7391 11.4931C96.2584 10.7617 96.7217 10.0575 97.4055 9.43136C97.974 8.9121 98.646 8.50654 99.4299 8.41321C99.5097 8.40302 99.5895 8.39963 99.6692 8.39963C100.297 8.39963 100.901 8.67962 101.426 9.00204L101.643 9.14458L101.385 9.16494C100.489 9.23791 99.5148 9.39233 98.8937 10.0949C98.6799 10.3375 98.5136 10.6226 98.3524 10.9009C98.1488 11.2538 97.9502 11.5983 97.7144 11.9309C97.2528 12.5825 96.5214 13.4819 95.6305 13.4819C95.5067 13.4819 95.3845 13.4649 95.264 13.431C94.906 13.3309 94.6039 13.0797 94.3646 12.8065C93.9591 12.7522 93.3686 12.681 93.0648 12.4044C92.9341 12.2839 92.8289 12.1379 92.7577 11.975C92.4862 11.3709 92.6423 10.7516 92.6525 10.1288C92.6728 8.98677 92.8544 7.87359 92.6745 6.72986C92.6219 6.39727 92.5133 6.08164 92.4336 5.75583L92.3334 5.34687ZM92.3334 4.92773C92.101 4.92773 91.9126 5.11609 91.9126 5.34857C91.9126 5.38251 91.916 5.41645 91.9245 5.44869L92.0246 5.85595C92.0517 5.96964 92.084 6.08164 92.1145 6.19364C92.1722 6.40066 92.2265 6.5975 92.2571 6.79435C92.3742 7.5376 92.3283 8.27067 92.2808 9.04616C92.2588 9.39572 92.2367 9.75547 92.2299 10.1186C92.2265 10.2679 92.2163 10.419 92.2045 10.5683C92.1671 11.0502 92.1264 11.5966 92.3708 12.1447C92.4658 12.3602 92.6049 12.5537 92.7797 12.7115C93.1395 13.039 93.7062 13.1374 94.1559 13.2002C94.4682 13.5226 94.8008 13.7347 95.1486 13.8332C95.3047 13.8773 95.4659 13.8993 95.6288 13.8993C96.7081 13.8993 97.5311 12.9134 98.0554 12.1719C98.2998 11.8257 98.5085 11.466 98.7088 11.1181C98.8547 10.8653 99.0142 10.5887 99.206 10.3715C99.7167 9.7928 100.569 9.65026 101.415 9.58238L101.673 9.56202C101.904 9.54335 102.077 9.34142 102.058 9.10894C102.048 8.97998 101.979 8.86289 101.87 8.79162L101.653 8.64908C100.916 8.196 100.27 7.9788 99.6658 7.9788C99.5691 7.9788 99.4724 7.98389 99.3773 7.99576C98.6918 8.07722 98.0215 8.37757 97.3852 8.89174C97.5294 8.00764 97.3003 7.22536 96.7132 6.68914L96.4417 6.44139C96.2703 6.28527 96.0039 6.29715 95.8478 6.46854C95.7425 6.58393 95.7103 6.75023 95.7629 6.89616L95.8885 7.23894C96.0684 7.72595 95.9699 7.94146 95.7324 8.46581L95.6815 8.5795C95.5508 8.90192 95.3387 9.03089 95.0451 9.20906C94.76 9.38215 94.4308 9.58238 94.178 9.97098C94.161 9.74529 94.1746 9.47717 94.1882 9.23282C94.1983 9.03767 94.2085 8.85271 94.2051 8.67623C94.1882 7.71238 93.9184 6.85543 93.355 5.97643C93.3482 5.96625 93.3397 5.95267 93.3312 5.94249L93.1225 5.67438L92.924 5.41984L92.6643 5.08724C92.5863 4.98713 92.4624 4.92773 92.3334 4.92773Z" fill="#F0F0F0"/>
<path d="M45.6665 24.3606C44.857 25.6282 43.7422 26.4766 42.1793 26.4766C41.3308 26.4766 40.6046 26.2238 40.0005 25.8029C38.6412 24.8578 37.898 23.0692 37.7758 21.4096H46.4504V21.3214C46.4504 17.8071 43.8779 14.7764 40.1803 14.7764C40.1192 14.7764 40.0615 14.7798 40.0005 14.7815C31.3937 14.9715 30.7268 28.7352 40.0005 28.7827C40.0157 28.7827 40.031 28.7844 40.048 28.7844C43.0159 28.7844 45.0793 27.2962 46.4403 24.7543L46.4827 24.6745L45.7106 24.2961L45.6665 24.3606ZM39.9988 15.8709C40.0361 15.8692 40.0734 15.8675 40.1125 15.8675C42.2506 15.8675 42.2675 18.7862 42.2183 20.3066H37.769C37.7792 18.8303 38.0762 15.9795 39.9988 15.8709Z" fill="#282C35"/>
<path d="M62.003 25.2524V20.16C62.003 18.3918 62.0709 16.6711 60.4401 15.5291C58.224 13.9611 55.307 14.9759 53.532 16.7102V15.0828H47.5571V15.7497L47.625 15.7667C48.913 16.0925 48.8179 17.2023 48.8179 18.2679V25.2541C48.8179 26.3351 48.913 27.3753 47.6233 27.713L47.5571 27.7299V28.3968H54.9031V27.7249L54.8284 27.7113C53.442 27.4703 53.532 26.3707 53.532 25.2541V18.2985C54.1123 17.5654 54.9319 16.7662 55.9416 16.7662C57.4196 16.7662 57.2737 18.3969 57.2737 19.415V25.2541C57.2737 26.3639 57.3755 27.4432 56.0078 27.7113L55.9348 27.7249V28.3951H63.1314V27.7401L63.0788 27.7164C61.9063 27.1818 62.003 26.3673 62.003 25.2524Z" fill="#282C35"/>
<path d="M76.6315 24.3606C75.8221 25.6282 74.7072 26.4766 73.1444 26.4766C72.2959 26.4766 71.5696 26.2238 70.9655 25.8029C69.6063 24.8578 68.8614 23.0692 68.7409 21.4096H77.4138V21.3214C77.4138 17.8071 74.8413 14.7764 71.1437 14.7764C71.0826 14.7764 71.0249 14.7798 70.9638 14.7815C62.3571 14.9715 61.6902 28.7352 70.9638 28.7827C70.9791 28.7827 70.9961 28.7844 71.0114 28.7844C73.9793 28.7844 76.0427 27.2962 77.4036 24.7543L77.4461 24.6745L76.674 24.2961L76.6315 24.3606ZM70.9638 15.8709C71.0012 15.8692 71.0385 15.8675 71.0775 15.8675C73.2157 15.8675 73.2326 18.7862 73.1834 20.3066H68.7341C68.7443 18.8303 69.0412 15.9795 70.9638 15.8709Z" fill="#282C35"/>
<path d="M84.718 19.4174C83.929 19.0933 81.8248 18.1108 81.8027 17.1385C81.7942 16.777 82.0844 16.5038 82.3661 16.3155C84.5891 14.8239 87.9388 17.2878 88.7754 19.3394L88.7974 19.3954H89.3608L89.074 14.7764H88.5734L88.5463 14.8154C87.7759 15.9252 86.4947 15.5128 85.4104 15.1819C84.8216 15.0021 84.1411 14.7764 83.52 14.7764C81.107 14.7764 78.5396 16.29 78.5396 18.8914C78.5396 22.7824 83.6914 23.0302 86.0925 24.8662C86.9342 25.5094 87.0445 26.6158 86.079 27.2046C83.5217 28.7624 80.2908 26.2662 79.2624 23.9872L79.2387 23.9346H78.7092L79.0978 28.7844H79.5407L79.5645 28.7352C80.099 27.6543 80.7965 27.8783 81.779 28.199C84.9692 29.246 90.2754 28.8082 90.2754 24.476C90.2754 21.5284 87.0191 20.3592 84.718 19.4174Z" fill="#282C35"/>
<path d="M106.408 19.4174C105.619 19.0933 103.52 18.1159 103.494 17.1419C103.486 16.7804 103.774 16.5055 104.056 16.3155C106.282 14.8324 109.627 17.2844 110.465 19.3394L110.487 19.3954H111.051L110.764 14.7764H110.263L110.236 14.8154C109.466 15.9252 108.183 15.5128 107.1 15.1819C106.511 15.0021 105.831 14.7764 105.21 14.7764C102.797 14.7764 100.229 16.29 100.229 18.8914C100.229 22.7824 105.375 23.037 107.782 24.8662C108.617 25.5162 108.731 26.6107 107.769 27.2046C105.21 28.7556 101.982 26.2679 100.954 23.9872L100.93 23.9346H100.399L100.788 28.7844H101.231L101.254 28.7352C101.789 27.6543 102.486 27.8749 103.469 28.199C106.661 29.2426 111.965 28.8082 111.965 24.476C111.965 21.5284 108.711 20.3592 106.408 19.4174Z" fill="#282C35"/>
<path d="M35.2099 15.2326V14.3282H21.6363V15.1359L21.7245 15.2377C22.931 15.2649 24.6704 15.3989 25.4136 16.4918C25.7819 17.0331 25.8803 17.7373 25.921 18.3736C25.9957 19.5479 25.9499 20.7273 25.9499 21.9032V25.5024C25.6953 25.6297 25.4153 25.7434 25.154 25.8469C24.4074 26.1404 23.6336 26.3814 22.853 26.5732C20.3992 27.1739 17.8233 27.2893 15.339 26.7887C13.3808 26.3933 11.4887 25.6534 9.91907 24.4164C6.44887 21.6809 5.65641 17.4098 5.97034 13.2557C6.17906 10.4915 7.22776 8.11407 9.15206 6.09135C10.7302 4.43176 12.6596 3.26767 14.8876 2.66527C17.3431 2.00177 19.9003 2.11716 22.332 2.81969C25.9091 3.85311 28.7498 6.08965 29.8579 9.68542L29.8765 9.74821H30.8658L30.0242 0.5H29.0213L29.0128 0.578058C28.9483 1.13634 28.6497 2.24274 28.0048 2.40055C27.4958 2.52442 26.6914 2.27837 26.2061 2.12395C25.2847 1.83038 24.3819 1.48252 23.4571 1.19065C22.6375 0.932714 21.7076 0.785082 20.854 0.686661C19.7069 0.554301 18.553 0.501697 17.4008 0.528848C14.1172 0.605209 10.8439 1.57585 7.99476 3.16586C5.81592 4.38085 4.08337 5.99462 2.64777 8.00717C0.864313 10.5084 -0.0689918 13.6749 0.00397578 16.7225C0.131245 21.9575 4.07658 26.3831 8.72614 28.5348C12.5968 30.3267 17.1564 30.7883 21.3801 30.3403C23.7761 30.0858 26.1671 29.5156 28.407 28.6417C29.0654 28.3838 29.7187 28.0987 30.3483 27.7797C30.5774 27.6643 30.8149 27.5404 31.0338 27.4063L31.0763 27.3809V22.7212L31.0712 22.7228V20.9445C31.0712 20.0061 31.0525 19.0032 31.1679 18.0733C31.2442 17.4573 31.3919 16.7989 31.8025 16.3102C32.5407 15.4278 34.0459 15.2886 35.1217 15.2377L35.2099 15.2326Z" fill="#282C35"/>
<path d="M97.6348 25.2507L97.5805 15.0811H91.3545L91.3732 15.1846C91.4054 15.3593 91.4309 15.5358 91.4529 15.714L91.4614 15.7836L91.531 15.7921C91.9128 15.8379 92.2861 15.9567 92.5339 16.2604C92.936 16.7508 92.9208 17.6689 92.9208 18.2679V25.2541C92.9208 26.6948 92.8546 27.7095 91.1051 27.7095H91.0151V28.3951H99.2808V27.7146L99.196 27.7095C97.6128 27.6196 97.6399 26.4945 97.6348 25.2507Z" fill="#282C35"/>
<path d="M13.7591 17.8575C13.5826 17.9304 13.4044 18 13.2296 18.0781C13.099 18.1358 13.0175 18.1934 12.9649 18.3326C12.9564 18.3564 12.9462 18.3801 12.9378 18.4039C12.9293 18.4276 12.9208 18.4497 12.914 18.4734C12.8851 18.56 12.8614 18.6482 12.8444 18.7382C12.8275 18.8281 12.8156 18.9197 12.8088 19.0114C12.7935 19.215 12.7986 19.3558 12.8699 19.5476C12.8953 19.6138 12.9208 19.6766 12.9445 19.7376C13.0345 19.9532 13.1295 20.1704 13.104 20.4096C13.0973 20.469 13.1057 20.542 13.0616 20.5963C12.7545 20.9696 12.2081 20.4385 11.9264 20.2297C11.5022 19.9141 11.0321 19.4984 10.613 19.0538C9.773 18.1663 9.13326 17.1685 9.45737 16.6374C9.65931 16.3065 10.0089 16.1504 10.3194 16.0384C10.6299 15.9264 10.9048 15.8551 10.9574 15.6973C10.9693 15.6616 10.9744 15.6243 10.971 15.587C10.9524 15.4427 10.7759 15.3867 10.6554 15.3545C10.6164 15.3443 10.5773 15.3341 10.5383 15.3257L10.4823 15.3138C10.277 15.2663 10.1005 15.1034 9.95966 14.9591C9.95287 14.9523 9.94778 14.9455 9.94099 14.9405C9.93421 14.9337 9.92912 14.9269 9.92402 14.9218C9.83239 14.8217 9.78827 14.7334 9.78827 14.6452C9.78827 14.557 9.83239 14.4687 9.91893 14.3669C10.1786 14.0648 10.3856 14.0021 10.7436 13.868C10.9286 13.7984 10.9524 13.7594 11.0185 13.5863C11.122 13.3199 11.1645 13.084 11.4496 12.9483C11.5174 12.916 11.5819 12.8872 11.6413 12.8651C11.8602 12.7837 12.052 12.7786 12.2386 12.9313C12.2912 12.9754 12.3404 13.0229 12.3829 13.0755C12.4236 13.1231 12.4626 13.174 12.4999 13.2232C12.5848 13.3403 13.0311 13.4115 13.1804 13.476C13.2907 13.5235 13.3942 13.5829 13.496 13.644C13.5215 13.6593 13.5469 13.6746 13.5724 13.6898C13.6878 13.7543 13.6352 13.8171 13.5368 13.8595C13.3925 13.9206 13.2093 13.907 13.0548 13.9257C12.8631 13.9478 12.8156 14.0411 12.7239 14.1819C12.7002 14.2176 12.6764 14.2549 12.651 14.2922C12.6255 14.3296 12.5984 14.3686 12.5729 14.4076C12.5458 14.4467 12.5203 14.4874 12.4932 14.5264C12.3727 14.7131 11.9994 15.2374 12.3082 15.4495C12.3778 15.497 12.466 15.5208 12.5492 15.5327C13.3976 15.6583 13.4316 15.1458 13.7642 14.5807C14.0967 14.0173 14.0883 14.0343 14.258 13.7679C14.5702 13.2741 15.4305 12.5478 15.456 11.9946C15.4628 11.847 15.3643 11.6569 15.2082 11.5687C15.1522 11.5364 15.047 11.494 14.9503 11.4703C14.5142 11.3667 14.0424 11.421 13.5979 11.3973C13.5419 11.3939 13.4876 11.3905 13.4349 11.3854C13.3823 11.3803 13.3297 11.3735 13.2822 11.365C13.2347 11.3566 13.1872 11.3464 13.1414 11.3328C13.0243 11.2989 13.0005 11.2649 12.9361 11.1665C12.9055 11.1207 12.8784 11.0477 12.8716 10.8763C12.8648 10.7066 13.0141 10.4725 13.2076 10.2298L13.2449 10.184C13.2568 10.1687 13.2703 10.1534 13.2822 10.1382C13.4197 9.97188 13.5656 9.81237 13.7082 9.64946C13.8728 9.45941 14.0441 9.33214 14.2681 9.22863C14.6432 9.05385 15.0436 8.92827 15.4356 8.79931L15.5239 8.77046C15.7207 8.70598 15.9192 8.64319 16.111 8.56513C16.1297 8.55835 16.1466 8.54986 16.1619 8.54307C16.1772 8.53629 16.1924 8.5278 16.206 8.52101C16.4266 8.41071 16.6557 8.02382 16.8916 7.74213C16.9204 7.70819 16.9493 7.67425 16.9815 7.64201C17.0748 7.54359 17.2038 7.4282 17.3463 7.4248C17.3616 7.4248 17.3769 7.4248 17.3939 7.4282C17.4091 7.4299 17.4261 7.43499 17.4414 7.43838C17.6229 7.49947 17.6297 7.61825 17.6365 7.78285C17.6382 7.80831 17.6382 7.83376 17.6399 7.85922C17.645 7.96612 17.6552 8.07133 17.6705 8.17824C17.7027 8.39035 17.7366 8.6398 17.8911 8.68392C18.0607 8.73313 18.2237 8.67883 18.3798 8.70598C18.6462 8.75179 18.9907 8.77555 18.7904 9.10306C18.7497 9.17093 18.6903 9.22184 18.6207 9.26087C18.5512 9.2999 18.4731 9.32875 18.3899 9.3525C18.3085 9.37456 18.222 9.39153 18.1405 9.4119C17.7434 9.51032 17.6043 9.77504 17.9555 10.1263C17.9793 10.1501 18.0081 10.1721 18.0319 10.1976C18.0557 10.223 18.0811 10.2502 18.1032 10.2773C18.1948 10.391 18.2712 10.5251 18.3356 10.6761L18.3424 10.6897C18.4731 10.9968 18.5545 11.3701 18.6105 11.7536C18.7242 12.5223 18.7141 13.3437 18.8311 13.7933C19.1943 15.1865 19.8459 15.9925 20.6163 16.483C21.3867 16.9734 22.303 17.1448 23.2635 17.2517C23.384 17.2652 23.5045 17.2771 23.6249 17.289C23.7454 17.3009 23.8676 17.3127 23.9898 17.3229C24.112 17.3348 24.2341 17.345 24.3563 17.3569C24.4785 17.3687 24.6007 17.3806 24.7245 17.3942C24.8484 17.4078 24.9689 17.4214 25.0911 17.4366C25.2133 17.4519 25.3354 17.4689 25.4559 17.4875C25.5781 17.5062 25.6986 17.5283 25.8191 17.5503C25.9395 17.5741 26.0583 17.5995 26.1771 17.6284C26.2959 17.6572 26.413 17.6895 26.5301 17.7234C26.6472 17.759 26.7625 17.7981 26.8779 17.8405C26.9916 17.8829 27.1053 17.9304 27.2173 17.9813C27.3293 18.0322 27.4396 18.0882 27.5482 18.1493C27.6568 18.2104 27.7637 18.2749 27.8706 18.3462C27.9775 18.4174 28.0793 18.4938 28.1812 18.5753C28.3644 18.7246 28.5375 18.8892 28.6953 19.0657C28.787 19.1675 28.8752 19.3389 28.843 19.4814C28.8328 19.5255 28.8073 19.5663 28.77 19.5934C28.6902 19.6545 28.6241 19.6647 28.5358 19.6307C28.5121 19.6223 28.4883 19.6138 28.4646 19.6053C28.2117 19.517 27.9504 19.4543 27.684 19.4169C27.3259 19.366 26.9645 19.3575 26.603 19.3592C26.2976 19.3609 25.9955 19.344 25.6918 19.327C25.5968 19.3219 25.5 19.3168 25.4016 19.3134C25.3032 19.31 25.2031 19.3049 25.1013 19.3032C24.9994 19.3015 24.8959 19.2981 24.7924 19.2964C24.6889 19.2947 24.5837 19.2947 24.4785 19.2947C24.3733 19.2947 24.2664 19.2964 24.1612 19.2981C24.056 19.2998 23.9474 19.3032 23.8421 19.3083C23.7369 19.3134 23.6283 19.3185 23.5231 19.3253C23.4179 19.3321 23.3127 19.3406 23.2075 19.3507C23.104 19.3609 22.9988 19.3711 22.897 19.3847C22.5779 19.4237 22.2623 19.4848 21.9518 19.5663C21.6769 19.6409 21.4003 19.7156 21.1305 19.8106C21.066 19.8344 20.9981 19.8598 20.9319 19.8904C20.8641 19.9192 20.7962 19.9515 20.7283 19.9871C20.4534 20.1279 20.1734 20.3095 19.9121 20.5013C19.6711 20.6794 19.4403 20.8695 19.2214 21.0748C19.1264 21.1648 19.0416 21.2496 18.9737 21.326C18.9567 21.3446 18.9398 21.3633 18.9262 21.382C18.8261 21.499 18.7293 21.55 18.58 21.5822C18.1897 21.667 17.7926 21.701 17.3956 21.7213C17.3786 21.723 17.3616 21.723 17.3446 21.7247C16.7728 21.7519 15.9379 21.6636 15.4203 21.8825C15.3457 21.9148 15.2693 21.9504 15.193 21.9861C15.0402 22.059 14.8875 22.1405 14.7399 22.2202C14.4429 22.3814 14.1646 22.541 13.9423 22.636C13.832 22.6835 13.7014 22.7022 13.5877 22.6682C13.362 22.6003 13.1108 22.2559 13.3942 22.02C13.5232 21.9131 13.6386 21.8147 13.6963 21.6619C13.754 21.5092 13.7709 21.3226 13.7523 21.1088C13.7353 20.8949 13.6827 20.6506 13.6012 20.3808C13.5215 20.111 13.3467 19.775 13.2805 19.5001C13.2143 19.2252 13.194 19.0826 13.2805 18.8298C13.323 18.7025 13.5351 18.5227 13.7132 18.3326C13.7574 18.2851 13.7998 18.2376 13.8371 18.1901C13.8728 18.1459 13.905 18.0984 13.9304 18.0475C13.9542 18.0051 13.9678 17.9593 13.9729 17.9118C13.9898 17.7251 13.8541 17.8184 13.7591 17.8575Z" fill="#282C35"/>
<path d="M33.9185 7.00173C33.9185 5.48638 35.1385 4.25781 36.7812 4.25781C38.4136 4.25781 39.6235 5.46772 39.6235 7.00173C39.6235 8.51708 38.4034 9.74565 36.7608 9.74565C35.1284 9.74565 33.9185 8.53575 33.9185 7.00173ZM38.1489 7.00173C38.1489 6.22454 37.5889 5.54577 36.7625 5.54577C35.9072 5.54577 35.3948 6.20418 35.3948 7.00173C35.3948 7.77892 35.9548 8.45769 36.7812 8.45769C37.6364 8.45769 38.1489 7.79759 38.1489 7.00173Z" fill="#282C35"/>
<path d="M45.8294 9.62707H44.3344V7.61113H42.495V9.62707H41V4.35645H42.495V6.38257H44.3344V4.35645H45.8294V9.62707Z" fill="#282C35"/>
<path d="M47.4619 4.35645H48.9569V6.52002L50.8456 4.35645H52.5662L50.6284 6.52002L52.8123 9.62708H51.0424L49.6357 7.62132L48.9569 8.35948V9.62877H47.4619V4.35645Z" fill="#282C35"/>
<path d="M53.2139 7.00173C53.2139 5.48638 54.434 4.25781 56.0766 4.25781C57.709 4.25781 58.9189 5.46772 58.9189 7.00173C58.9189 8.51708 57.6988 9.74565 56.0562 9.74565C54.4238 9.74565 53.2139 8.53575 53.2139 7.00173ZM57.4443 7.00173C57.4443 6.22454 56.8843 5.54577 56.0579 5.54577C55.2027 5.54577 54.6902 6.20418 54.6902 7.00173C54.6902 7.77892 55.2502 8.45769 56.0766 8.45769C56.9318 8.45769 57.4443 7.79759 57.4443 7.00173Z" fill="#282C35"/>
<path d="M64.967 4.35521V9.62754H63.472V5.63299H62.1348C62.1348 9.12355 61.5341 9.68523 60.2173 9.68523C60.0204 9.68523 59.6573 9.6462 59.4604 9.59699L59.5589 8.38709C59.6183 8.39727 59.8049 8.41594 59.8728 8.41594C60.4328 8.41594 60.728 8.09183 60.728 4.35352H64.967V4.35521Z" fill="#282C35"/>
<path d="M66.3452 7.00173C66.3452 5.48638 67.5653 4.25781 69.2079 4.25781C70.8404 4.25781 72.0503 5.46772 72.0503 7.00173C72.0503 8.51708 70.8302 9.74565 69.1876 9.74565C67.5551 9.74565 66.3452 8.53575 66.3452 7.00173ZM70.5739 7.00173C70.5739 6.22454 70.014 5.54577 69.1876 5.54577C68.3323 5.54577 67.8198 6.20418 67.8198 7.00173C67.8198 7.77892 68.3798 8.45769 69.2062 8.45769C70.0615 8.45769 70.5739 7.79759 70.5739 7.00173Z" fill="#282C35"/>
<path d="M74.9193 5.63422V9.62707H73.4243V4.35645H77.2695V5.63422H74.9193Z" fill="#282C35"/>
<path d="M83.291 9.62707H81.8452V6.55905L79.7903 9.62707H78.3818V4.35645H79.8276V7.43466L81.8826 4.35645H83.2893V9.62707H83.291Z" fill="#282C35"/>
<path d="M89.595 9.62707H88.1V7.93525H87.294L86.1825 9.62707H84.4517L85.799 7.68919C85.1304 7.43296 84.6977 6.93237 84.6977 6.11615C84.6977 5.06406 85.4545 4.35645 86.8324 4.35645H89.5967V9.62707H89.595ZM88.1 6.85431V5.52732H87.0768C86.5355 5.52732 86.2114 5.76319 86.2114 6.1959C86.2114 6.61844 86.5457 6.85431 87.087 6.85431H88.1Z" fill="#282C35"/>
</g>
<defs>
<clipPath id="clip0_190_2695">
<rect width="112.5" height="30" fill="white" transform="translate(0 0.5)"/>
</clipPath>
</defs>
</svg>
