<svg width="165" height="15" viewBox="0 0 165 15" fill="none" xmlns="http://www.w3.org/2000/svg">
<path d="M3.73925 8.5605L4.43488 8.03025L4.17238 7.6855H3.73925V8.5605ZM3.68937 8.5605V7.6855H2.81437V8.5605H3.68937ZM3.68937 14.4501V15.3251H4.56437V14.4501H3.68937ZM0.5 14.4501H-0.375V15.3251H0.5V14.4501ZM0.5 0.625125V-0.249875H-0.375V0.625125H0.5ZM3.664 0.625125H4.539V-0.249875H3.664V0.625125ZM3.664 6.19012H2.789V7.06513H3.664V6.19012ZM3.73925 6.19012V7.06513H4.16275L4.42525 6.73263L3.73925 6.19012ZM8.12475 0.64875V-0.22625H7.70125L7.43875 0.10625L8.12475 0.64875ZM11.7866 0.64875L12.4639 1.20438L13.6364 -0.22625H11.7875V0.64875H11.7866ZM6.38 7.23838L5.70363 6.68275L5.25737 7.227L5.69312 7.77913L6.38 7.23838ZM12.8331 0.625125V-0.249875H11.9581V0.625125H12.8331ZM21.1307 0.625125L21.969 0.87625L22.3076 -0.249875H21.1307V0.625125ZM20.3581 3.195V4.07H21.0091L21.1964 3.447L20.3581 3.195ZM16.0225 3.195V2.32H15.1475V3.195H16.0225ZM16.0225 6.09037H15.1475V6.96537H16.0225V6.09037ZM20.3581 6.09037H21.2331V5.21537H20.3581V6.09037ZM20.3581 8.68563V9.56063H21.2331V8.68563H20.3581ZM16.0225 8.68563V7.81063H15.1475V8.68563H16.0225ZM16.0225 11.8794H15.1475V12.7544H16.0225V11.8794ZM21.08 11.8794H21.955V11.0044H21.08V11.8794ZM59.0042 5.89L59.8775 5.9425L59.9317 5.015H59.0042V5.89ZM58.9789 5.89V5.015H58.3952L58.1713 5.554L58.9789 5.89ZM58.0575 7.36263L58.789 7.843L58.7943 7.83512L58.0575 7.36263ZM55.8149 10.7812V11.6562H56.2874L56.5464 11.2616L55.8149 10.7812ZM54.4193 10.7812L53.7131 11.2975L53.9756 11.6562H54.4193V10.7812ZM51.8275 7.2375L52.5336 6.72125L52.5275 6.71338L51.8275 7.23838V7.2375ZM50.9053 5.89L51.6656 5.45687L51.4136 5.015H50.9061V5.89H50.9053ZM50.8554 5.89V5.015H49.934L49.9821 5.93637L50.8554 5.89ZM50.8807 14.4501V15.3251H51.7557V14.4501H50.8807ZM47.6914 14.4501H46.8164V15.3251H47.6914V14.4501ZM47.6914 0.625125V-0.249875H46.8164V0.625125H47.6914ZM50.5815 0.625125L51.2938 0.115875L51.0312 -0.249875H50.5815V0.625125ZM54.0448 5.4665L53.3334 5.97487L53.3369 5.98012L53.3412 5.98537L54.0448 5.4665ZM55.1166 7.11325L54.3633 7.55775L54.617 7.98825H55.1157V7.11325H55.1166ZM55.1665 7.11325V7.98825H55.7073L55.9487 7.50437L55.1665 7.11325ZM56.1631 5.36587L55.4307 4.88725L55.4238 4.89775L55.4176 4.90825L56.1631 5.36587ZM59.2519 0.649625V-0.225375H58.7794L58.5204 0.170125L59.2528 0.649625H59.2519ZM62.1674 0.649625H63.0424V-0.225375H62.1674V0.649625ZM73.1556 14.4501L72.3436 14.7756L72.5641 15.3251H73.1556V14.4501ZM71.8353 11.1558L72.6473 10.8302L72.4268 10.2808H71.8353V11.1558ZM67.35 11.1558V10.2808H66.7462L66.5319 10.846L67.35 11.1558ZM66.104 14.4501V15.3251H66.7095L66.923 14.7599L66.104 14.4501ZM62.9654 14.4501L62.1499 14.1316L61.6835 15.3251H62.9654V14.4501ZM68.3965 0.549875V-0.325125H67.7989L67.5819 0.231375L68.3965 0.549875ZM70.913 0.549875L71.7224 0.2165L71.4993 -0.325125H70.913V0.549875ZM76.6443 14.4501V15.3251H77.9515L77.4528 14.1168L76.6443 14.4501ZM69.618 4.7175L70.479 4.56525L70.3521 3.8425H69.6171V4.7175H69.618ZM69.5926 4.7175V3.8425H68.8515L68.729 4.574L69.5926 4.7175ZM69.0939 6.36425L69.912 6.67663L69.9137 6.67137L69.0947 6.36513L69.0939 6.36425ZM68.2469 8.58588L67.4296 8.2735L66.9772 9.46088H68.2469V8.58588ZM89.3011 7.0135V7.8885H89.8191L90.0685 7.43438L89.3011 7.0135ZM89.2513 7.0135L88.4979 7.458L88.7516 7.8885H89.2513V7.0135ZM88.1803 5.36587L88.8943 4.861L88.8934 4.85925L88.1803 5.36675V5.36587ZM84.7415 0.52625L85.4555 0.01875L85.193 -0.34875H84.7415V0.52625ZM81.8269 0.52625V-0.34875H80.9519V0.52625H81.8269ZM81.8269 14.4011H80.9519V15.2761H81.8269V14.4011ZM85.0163 14.4011V15.2761H85.8913V14.4011H85.0163ZM84.9909 5.8165V4.9415H84.0686L84.1167 5.862L84.9917 5.8165H84.9909ZM85.0407 5.8165L85.8011 5.3825L85.5491 4.9415H85.0416V5.8165H85.0407ZM85.963 7.164L86.6691 6.64775L86.663 6.639L85.963 7.164ZM88.5539 10.7078L87.8477 11.224L88.1103 11.5828H88.5539V10.7078ZM89.974 10.7078V11.5828H90.4439L90.7038 11.1916L89.974 10.7078ZM92.242 7.28912L92.9709 7.77213L92.9823 7.7555L92.9919 7.738L92.242 7.28912ZM93.1634 5.8165V4.9415H92.5798L92.3557 5.4805L93.1634 5.8165ZM93.1888 5.8165L94.062 5.86725L94.1162 4.9415H93.1888V5.8165ZM93.1634 14.4002H92.2884V15.2752H93.1634V14.4002ZM96.3527 14.4002V15.2752H97.2277V14.4002H96.3527ZM96.3527 0.52625H97.2277V-0.34875H96.3527V0.52625ZM102.606 0.5V-0.375H102.01L101.792 0.1815L102.606 0.5ZM97.1752 14.4002L96.3597 14.0817L95.8934 15.2752H97.1752V14.4002ZM100.315 14.4002V15.2752H100.915L101.131 14.7153L100.315 14.4002ZM101.585 11.1059V10.2309H100.985L100.769 10.7909L101.585 11.1059ZM106.071 11.1059L106.882 10.7804L106.662 10.2309H106.071V11.1059ZM107.391 14.4002L106.579 14.7257L106.799 15.2752H107.391V14.4002ZM110.854 14.4002V15.2752H112.161L111.663 14.0669L110.854 14.3994V14.4002ZM105.124 0.5L105.932 0.166625L105.709 -0.375H105.124V0.5ZM103.305 6.31437L104.122 6.62675L104.124 6.6215L103.305 6.31525V6.31437ZM103.802 4.64313V3.76812H103.055L102.938 4.50663L103.802 4.64225V4.64313ZM103.828 4.64313L104.691 4.49875L104.569 3.76725H103.828V4.64225V4.64313ZM104.326 6.33975L103.495 6.61625L103.499 6.625L104.326 6.33975ZM127.797 0.5V-0.375H127.199L126.982 0.182375L127.797 0.5ZM122.54 13.9759L121.781 14.4116L122.691 15.9954L123.355 14.2944L122.54 13.9759ZM118.703 8.1615H117.828V8.662L118.259 8.91575L118.703 8.1615ZM118.703 8.13613L118.33 7.34425L117.828 7.5805V8.13613H118.703ZM111.677 0.52625V-0.34875H110.802V0.52625H111.677ZM111.677 14.4011H110.802V15.2761H111.677V14.4011ZM114.89 14.4011V15.2761H115.765V14.4011H114.89ZM114.89 9.18612V8.31112H114.015V9.18612H114.89ZM115.863 9.18612L116.202 8.37938L116.039 8.31025H115.863V9.18525V9.18612ZM119.151 14.4011L118.392 14.8369L118.645 15.2761H119.151V14.4011ZM125.53 14.4011V15.2761H126.134L126.348 14.7109L125.53 14.4011ZM126.776 11.1067V10.2317H126.171L125.958 10.797L126.776 11.1067ZM131.261 11.1067L132.073 10.7812L131.852 10.2317H131.261V11.1067ZM132.581 14.4011L131.769 14.7266L131.989 15.2761H132.581V14.4011ZM136.045 14.4011V15.2761H137.352L136.853 14.0678L136.045 14.4002V14.4011ZM130.313 0.5L131.123 0.166625L130.9 -0.375H130.313V0.5ZM114.915 6.88838H114.04V7.76337H114.915V6.88838ZM114.915 3.14512V2.27012H114.04V3.14512H114.915ZM128.52 6.31437L129.338 6.62675L129.339 6.6215L128.52 6.31525V6.31437ZM129.018 4.64313V3.76812H128.27L128.154 4.50663L129.018 4.64225V4.64313ZM129.043 4.64313L129.906 4.49875L129.785 3.76725H129.043V4.64225V4.64313ZM129.542 6.33975L128.711 6.61625L128.714 6.625L129.542 6.33975ZM38.6465 0.5V-0.375H38.0489L37.8319 0.182375L38.6465 0.5ZM33.3895 13.9759L32.6309 14.4116L33.5409 15.9954L34.205 14.2944L33.3895 13.9759ZM29.5526 8.1615H28.6776V8.662L29.109 8.91575L29.5526 8.1615ZM29.5526 8.13613L29.1799 7.34425L28.6776 7.5805V8.13613H29.5526ZM22.5264 0.52625V-0.34875H21.6514V0.52625H22.5264ZM22.5264 14.4011H21.6514V15.2761H22.5264V14.4011ZM25.7402 14.4011V15.2761H26.6152V14.4011H25.7402ZM25.7402 9.18612V8.31112H24.8652V9.18612H25.7402ZM26.7115 9.18612L27.0519 8.37938L26.8891 8.31025H26.7115V9.18525V9.18612ZM30.0015 14.4011L29.242 14.8369L29.494 15.2761H30.0015V14.4011ZM36.3794 14.4011V15.2761H36.984L37.1975 14.7109L36.3794 14.4011ZM37.6254 11.1067V10.2317H37.0207L36.8064 10.797L37.6254 11.1067ZM42.1097 11.1067L42.9226 10.7812L42.7021 10.2317H42.1097V11.1067ZM43.431 14.4011L42.619 14.7266L42.8386 15.2761H43.431V14.4011ZM46.8942 14.4011V15.2761H48.2015L47.7028 14.0678L46.8942 14.4002V14.4011ZM41.163 0.5L41.9724 0.166625L41.7492 -0.375H41.163V0.5ZM25.7648 6.88838H24.8898V7.76337H25.7648V6.88838ZM25.7648 3.14512V2.27012H24.8898V3.14512H25.7648ZM28.8797 4.917H28.0047H28.8797ZM39.3693 6.31437L40.1865 6.62675L40.1891 6.6215L39.3693 6.31525V6.31437ZM39.868 4.64313V3.76812H39.1199L39.0035 4.50663L39.868 4.64225V4.64313ZM39.8925 4.64313L40.7552 4.49875L40.6336 3.76725H39.8925V4.64225V4.64313ZM40.3913 6.33975L39.56 6.61625L39.5635 6.625L40.3913 6.33975ZM137.315 3.04537L136.479 3.30175L136.67 3.9265L137.323 3.92037L137.315 3.04537ZM143.021 2.9955L143.768 3.4505L144.587 2.1065L143.013 2.1205L143.021 2.9955ZM136.069 14.4002L135.322 13.9453L134.512 15.2752H136.069V14.4002ZM147.88 14.4002V15.2752H148.755V14.4002H147.88ZM147.88 11.805H148.755V10.9195L147.87 10.93L147.88 11.805ZM141.252 11.8794L140.5 11.4331L139.703 12.7719L141.262 12.7544L141.252 11.8794ZM149.25 3.04625L148.411 3.29475L148.598 3.92737L149.258 3.92125L149.25 3.04625ZM154.98 2.99637L155.727 3.45312L156.55 2.10737L154.973 2.12138L154.98 2.99637ZM148.004 14.4011L147.258 13.9444L146.443 15.2761H148.004V14.4011ZM159.815 14.4011V15.2761H160.69V14.4011H159.815ZM159.815 11.8059H160.69V10.9204L159.804 10.9309L159.815 11.8059ZM153.187 11.8802L152.435 11.434L151.638 12.7727L153.196 12.7552L153.187 11.8802ZM160.911 0.52625V-0.34875H160.036V0.52625H160.911ZM164.125 0.52625H165V-0.34875H164.125V0.52625ZM164.125 14.4011V15.2761H165V14.4011H164.125ZM160.911 14.4011H160.036V15.2761H160.911V14.4011ZM8.92013 13.9199L4.43488 8.03113L3.04363 9.09075L7.528 14.9795L8.92013 13.9208V13.9199ZM3.73925 7.6855H3.68937V9.4355H3.73925V7.6855ZM2.81437 8.5605V14.4501H4.56437V8.56138H2.81437V8.5605ZM3.68937 13.5751H0.5V15.3251H3.68937V13.5751ZM1.375 14.4501V0.625125H-0.375V14.4501H1.375ZM0.5 1.50013H3.664V-0.249875H0.5V1.50013ZM2.789 0.625125V6.19012H4.539V0.625125H2.789ZM3.664 7.06513H3.73925V5.31512H3.664V7.06513ZM4.42525 6.73263L8.81075 1.193L7.43787 0.10625L3.05325 5.64675L4.42525 6.73263ZM8.12475 1.52463H11.7866V-0.225375H8.12563V1.52463H8.12475ZM11.1103 0.094875L5.70363 6.68362L7.05638 7.79313L12.4639 1.20438L11.1111 0.094875H11.1103ZM5.694 7.77913L11.3745 14.9918L12.7491 13.9085L7.06862 6.69675L5.694 7.77913ZM13.709 14.4501V0.625125H11.959V14.4501H13.709ZM12.834 1.50013H21.1316V-0.249875H12.8349V1.50013H12.834ZM20.2925 0.373125L19.5199 2.943L21.1964 3.447L21.969 0.87625L20.2925 0.373125ZM20.3581 2.32H16.0225V4.07H20.3581V2.32ZM15.1475 3.195V6.09125H16.8975V3.195H15.1475ZM16.0225 6.96537H20.3581V5.21537H16.0225V6.96537ZM19.4831 6.09037V8.68563H21.2331V6.09037H19.4831ZM20.3581 7.81063H16.0225V9.56063H20.3581V7.81063ZM15.1475 8.68563V11.8794H16.8975V8.68563H15.1475ZM16.0225 12.7544H21.08V11.0044H16.0225V12.7544ZM20.205 11.8794V14.4501H21.955V11.8794H20.205ZM59.8539 14.4501V7.388H58.1039V14.4501H59.8539ZM59.8539 7.388C59.8539 6.87962 59.8539 6.3345 59.8766 5.94162L58.1301 5.83925C58.1039 6.29425 58.1039 6.898 58.1039 7.388H59.8539ZM59.0025 5.015H58.9771V6.765H59.0025V5.015ZM58.1695 5.554C58.1695 5.55312 58.1634 5.56975 58.1415 5.60913C58.116 5.65607 58.0894 5.70246 58.0619 5.74825C57.9839 5.87731 57.9034 6.0048 57.8204 6.13062C57.6585 6.37913 57.424 6.72737 57.319 6.89012L58.7925 7.83512C58.9115 7.64875 59.076 7.41075 59.2869 7.08525C59.4584 6.82275 59.6859 6.46663 59.7856 6.22688L58.1695 5.554ZM57.3242 6.88313L55.0816 10.3018L56.5446 11.2616L58.7872 7.843L57.3242 6.88313ZM55.8131 9.90625H54.4175V11.6562H55.8131V9.90625ZM55.1245 10.265L52.5327 6.72125L51.1205 7.75375L53.7114 11.2975L55.1245 10.265ZM52.5275 6.71338C52.2221 6.30562 51.9325 5.92588 51.6656 5.45687L50.1457 6.324C50.4765 6.90413 50.8344 7.37225 51.1266 7.7625L52.5275 6.7125V6.71338ZM50.9053 5.01587H50.8554V6.76587H50.9053V5.01587ZM49.9821 5.93637C50.0057 6.3835 50.0057 6.88487 50.0057 7.28825H51.7557C51.7557 6.89275 51.7557 6.34587 51.7295 5.8445L49.9821 5.93637ZM50.0057 7.28825V14.4501H51.7557V7.28825H50.0057ZM50.8807 13.5751H47.6914V15.3251H50.8807V13.5751ZM48.5664 14.4501V0.625125H46.8164V14.4501H48.5664ZM47.6914 1.50013H50.5815V-0.249875H47.6914V1.50013ZM49.8701 1.1335L53.3334 5.97487L54.757 4.95725L51.2929 0.115L49.871 1.1335H49.8701ZM53.3412 5.98625C53.7385 6.52525 54.0456 7.0205 54.3624 7.55863L55.87 6.66875C55.5273 6.0752 55.1531 5.50038 54.7491 4.94675L53.3404 5.98537L53.3412 5.98625ZM55.1166 7.98913H55.1665V6.23913H55.1166V7.98913ZM55.9487 7.50525C56.2453 6.9322 56.5655 6.37172 56.9086 5.82525L55.4176 4.90912C55.0477 5.49905 54.7027 6.1042 54.3834 6.723L55.9496 7.50525H55.9487ZM56.8946 5.84625L59.9843 1.13L58.5212 0.170125L55.4325 4.88637L56.8937 5.84625H56.8946ZM59.2528 1.5255H62.1674V-0.2245H59.2528V1.5255ZM61.2924 0.6505V14.5H63.0424V0.649625H61.2924V0.6505ZM73.9676 14.1255L72.6473 10.8311L71.0232 11.4821L72.3436 14.7765L73.9676 14.1255ZM71.8353 10.2816H67.35V12.0316H71.8353V10.2816ZM66.5319 10.8469L65.2859 14.1413L66.9221 14.7607L68.169 11.4664L66.5319 10.8477V10.8469ZM66.104 13.576H62.9662V15.326H66.1057V13.576H66.104ZM63.78 14.7695L69.212 0.8675L67.5819 0.2305L62.1499 14.1307L63.78 14.7677V14.7695ZM68.3965 1.42575H70.913V-0.32425H68.3965V1.42575ZM70.1045 0.884125L75.8357 14.7844L77.4528 14.1176L71.7215 0.217375L70.1045 0.884125ZM76.6443 13.576H73.1556V15.326H76.6443V13.576ZM70.9463 6.1385C70.7126 5.43675 70.5402 4.91175 70.479 4.56612L68.7552 4.86975C68.8445 5.37375 69.0703 6.04663 69.2855 6.6915L70.9463 6.13938V6.1385ZM69.618 3.8425H69.5926V5.5925H69.618V3.8425ZM68.7299 4.574C68.6704 4.931 68.4989 5.4595 68.2749 6.058L69.9137 6.67137C70.1386 6.072 70.3661 5.40263 70.4562 4.861L68.7299 4.574ZM68.2766 6.05275L67.4296 8.2735L69.065 8.89738L69.912 6.67663L68.2766 6.05275ZM68.2469 9.46088H70.8631V7.71088H68.2469V9.46088ZM89.5908 4.78837C89.1454 5.47 88.8059 6.09912 88.5346 6.59262L90.0685 7.43438C90.3459 6.9295 90.6539 6.36075 91.0555 5.74563L89.5908 4.7875V4.78837ZM89.3011 6.1385H89.2513V7.8885H89.3011V6.1385ZM90.0055 6.569C89.6598 5.98394 89.2891 5.41407 88.8943 4.861L87.4662 5.8725C87.8775 6.4535 88.1872 6.933 88.4979 7.45888L90.0055 6.56987V6.569ZM88.8934 4.85925L85.4546 0.01875L84.0293 1.032L87.468 5.87337L88.8943 4.85925H88.8934ZM84.7415 -0.34875H81.8269V1.40125H84.7415V-0.34875ZM80.9519 0.52625V14.4011H82.7019V0.525375H80.9519V0.52625ZM81.8269 15.2761H85.0163V13.5261H81.8269V15.2761ZM85.8913 14.4011V7.213H84.1413V14.4002H85.8913V14.4011ZM85.8913 7.21388C85.8913 6.84375 85.8913 6.2715 85.865 5.77012L84.1167 5.862C84.1404 6.30912 84.1413 6.835 84.1413 7.21388H85.8913ZM84.9909 6.6915H85.0407V4.9415H84.9909V6.6915ZM84.2804 6.24963C84.612 6.82975 84.9699 7.29787 85.2621 7.68813L86.663 6.63988C86.3568 6.23125 86.068 5.8515 85.8011 5.3825L84.2812 6.24963H84.2804ZM85.2569 7.68025L87.8477 11.224L89.26 10.1915L86.6691 6.64775L85.2569 7.68025ZM88.5539 11.5828H89.974V9.83275H88.5539V11.5828ZM90.7038 11.1916L92.9709 7.77213L91.5123 6.80525L89.2451 10.2239L90.7038 11.1916ZM92.9919 7.738C93.0916 7.57175 93.2692 7.31187 93.4705 7.00562C93.6385 6.751 93.8695 6.39663 93.971 6.1525L92.3557 5.4805L92.3295 5.53038C92.3102 5.56537 92.284 5.61088 92.2507 5.66512C92.1723 5.79243 92.0918 5.91845 92.0092 6.04313C91.8369 6.30475 91.6155 6.63112 91.4912 6.83938L92.9919 7.738ZM93.1634 6.6915H93.1888V4.9415H93.1634V6.6915ZM92.3146 5.76488C92.2884 6.21988 92.2884 6.82363 92.2884 7.31363H94.0384C94.0384 6.80613 94.0393 6.261 94.062 5.86812L92.3146 5.76488ZM92.2884 7.31363V14.4011H94.0384V7.31363H92.2884ZM93.1634 15.2761H96.3527V13.5261H93.1634V15.2761ZM97.2277 14.4011V0.525375H95.4777V14.4002H97.2277V14.4011ZM96.3527 -0.34875H93.4372V1.40125H96.3527V-0.34875ZM101.792 0.182375L96.3597 14.0826L97.9899 14.7196L103.422 0.8185L101.792 0.1815V0.182375ZM97.1752 15.2761H100.315V13.5261H97.1752V15.2761ZM101.131 14.7161L102.402 11.4218L100.769 10.7917L99.4984 14.0861L101.131 14.7161ZM101.585 11.9817H106.071V10.2317H101.585V11.9817ZM105.258 11.4323L106.579 14.7266L108.203 14.0756L106.882 10.7812L105.258 11.4323ZM107.391 15.2761H110.854V13.5261H107.391V15.2761ZM111.663 14.0678L105.932 0.166625L104.314 0.833375L110.045 14.7336L111.663 14.0669V14.0678ZM105.124 -0.375H102.606V1.375H105.124V-0.375ZM103.275 8.8475L104.122 6.62675L102.486 6.00287L101.639 8.22363L103.275 8.8475ZM104.124 6.6215C104.349 6.02125 104.577 5.34925 104.667 4.77875L102.938 4.50663C102.879 4.88462 102.709 5.4105 102.485 6.00813L104.124 6.62063V6.6215ZM103.802 5.51725H103.828V3.76725H103.802V5.51725ZM102.964 4.78662C103.053 5.32125 103.285 5.981 103.495 6.61538L105.156 6.06325C104.919 5.35012 104.751 4.86188 104.691 4.49875L102.964 4.78662ZM103.499 6.62413L104.246 8.79587L105.901 8.22625L105.153 6.0545L103.499 6.62413ZM126.982 0.182375L121.724 13.6574L123.355 14.2935L128.612 0.8185L126.982 0.182375ZM123.298 13.5401C122.355 11.8986 121.565 10.531 120.919 9.52125C120.643 9.07898 120.344 8.65113 120.024 8.23938C119.766 7.91563 119.472 7.598 119.146 7.40637L118.259 8.91575C118.295 8.93675 118.424 9.04 118.657 9.33138C118.875 9.60438 119.135 9.97975 119.445 10.4636C120.063 11.4314 120.831 12.7596 121.781 14.4116L123.298 13.5401ZM119.578 8.1615V8.13613H117.828V8.1615H119.578ZM119.075 8.928C120.477 8.26912 122.045 6.79825 122.045 4.56787H120.295C120.295 5.88037 119.37 6.856 118.33 7.34425L119.075 8.928ZM122.045 4.56787C122.045 3.29913 121.646 2.02863 120.609 1.08538C119.581 0.150875 118.051 -0.349625 116.011 -0.349625V1.40038C117.785 1.40038 118.833 1.83525 119.432 2.3795C120.019 2.91412 120.295 3.664 120.295 4.567H122.045V4.56787ZM116.011 -0.349625H111.677V1.40038H116.011V-0.349625ZM110.802 0.525375V14.4002H112.552V0.525375H110.802ZM111.677 15.2752H114.89V13.5252H111.677V15.2752ZM115.765 14.4002V9.18525H114.015V14.4002H115.765ZM114.89 10.0602H115.863V8.31025H114.89V10.0602ZM115.522 9.99025C115.42 9.94737 115.437 9.9115 115.592 10.1101C115.726 10.2816 115.905 10.5503 116.152 10.9563C116.646 11.7665 117.338 13.0003 118.392 14.836L119.91 13.9645C118.872 12.1568 118.156 10.8819 117.647 10.0454C117.44 9.69552 117.215 9.35726 116.971 9.03213C116.792 8.80375 116.542 8.52112 116.202 8.3785L115.522 9.99113V9.99025ZM119.151 15.2752H125.53V13.5252H119.151V15.2752ZM126.348 14.71L127.594 11.4156L125.958 10.797L124.711 14.0905L126.348 14.71ZM126.776 11.9809H131.261V10.2309H126.776V11.9809ZM130.448 11.4314L131.769 14.7257L133.393 14.0747L132.073 10.7804L130.448 11.4314ZM132.581 15.2752H136.045V13.5252H132.581V15.2752ZM136.853 14.0669L131.123 0.166625L129.505 0.833375L135.235 14.7336L136.853 14.0669ZM130.313 -0.375H127.797V1.375H130.313V-0.375ZM116.087 6.01338H114.915V7.76337H116.087V6.01338ZM115.79 6.88838V3.14512H114.04V6.88838H115.79ZM114.915 4.02012H116.111V2.27012H114.915V4.02012ZM116.111 4.02012C116.821 4.02012 117.155 4.44712 117.155 4.917H118.905C118.905 3.39012 117.694 2.27012 116.111 2.27012V4.02012ZM117.155 4.917C117.155 5.59075 116.716 6.01338 116.087 6.01338V7.76337C117.699 7.76337 118.905 6.53925 118.905 4.917H117.155ZM128.49 8.8475L129.338 6.62675L127.702 6.00287L126.855 8.22363L128.49 8.8475ZM129.339 6.6215C129.564 6.02125 129.793 5.34925 129.883 4.77875L128.154 4.50663C128.094 4.88462 127.924 5.4105 127.701 6.00813L129.339 6.62063V6.6215ZM129.018 5.51725H129.043V3.76725H129.018V5.51725ZM128.18 4.78662C128.269 5.32125 128.499 5.981 128.711 6.61538L130.372 6.06325C130.134 5.35012 129.967 4.86188 129.906 4.49875L128.18 4.78662ZM128.714 6.62413L129.461 8.79587L131.117 8.22625L130.368 6.0545L128.714 6.625V6.62413ZM37.8319 0.182375L32.574 13.6574L34.205 14.2935L39.462 0.8185L37.8319 0.182375ZM34.1481 13.5401C33.2049 11.8986 32.4147 10.531 31.7681 9.52125C31.4919 9.07912 31.1934 8.65128 30.8739 8.23938C30.6158 7.91563 30.3217 7.598 29.9954 7.40637L29.109 8.91575C29.144 8.93675 29.2735 9.04 29.5071 9.33138C29.7241 9.60438 29.9849 9.97975 30.2946 10.4636C30.9132 11.4314 31.6806 12.7596 32.6309 14.4116L34.1481 13.5401ZM30.4276 8.1615V8.13613H28.6776V8.1615H30.4276ZM29.9245 8.928C31.3271 8.26912 32.8942 6.79825 32.8942 4.56787H31.1442C31.1442 5.88037 30.2194 6.856 29.1799 7.34425L29.9245 8.928ZM32.8942 4.56787C32.8942 3.29913 32.4961 2.02863 31.4592 1.08538C30.4311 0.150875 28.9008 -0.349625 26.8611 -0.349625V1.40038C28.6348 1.40038 29.683 1.83525 30.2815 2.3795C30.8686 2.91412 31.1442 3.664 31.1442 4.567H32.8942V4.56787ZM26.8611 -0.349625H22.5264V1.40038H26.8611V-0.349625ZM21.6514 0.525375V14.4002H23.4014V0.525375H21.6514ZM22.5264 15.2752H25.7402V13.5252H22.5255V15.2752H22.5264ZM26.6152 14.4002V9.18525H24.8652V14.4002H26.6152ZM25.7402 10.0602H26.7115V8.31025H25.7402V10.0602ZM26.372 9.99025C26.2696 9.94737 26.2863 9.9115 26.442 10.1101C26.5759 10.2816 26.7544 10.5503 27.002 10.9563C27.4955 11.7665 28.1876 13.0003 29.242 14.836L30.7593 13.9645C29.7215 12.1568 29.0058 10.8819 28.4965 10.0454C28.2428 9.628 28.0205 9.28763 27.821 9.03213C27.6416 8.80375 27.3914 8.52112 27.0519 8.3785L26.372 9.99113V9.99025ZM30.0006 15.2752H36.3794V13.5252H30.0006V15.2752ZM37.1975 14.71L38.4435 11.4156L36.8073 10.797L35.5612 14.0905L37.1975 14.71ZM37.6254 11.9809H42.1097V10.2309H37.6263V11.9809H37.6254ZM41.2977 11.4314L42.619 14.7257L44.243 14.0747L42.9217 10.7804L41.2977 11.4314ZM43.431 15.2752H46.8942V13.5252H43.431V15.2752ZM47.7028 14.0669L41.9715 0.166625L40.3554 0.8325L46.0866 14.7328L47.7036 14.066L47.7028 14.0669ZM41.163 -0.375H38.6465V1.375H41.163V-0.375ZM26.9355 6.01338H25.7648V7.76337H26.9364V6.01338H26.9355ZM26.6398 6.88838V3.14512H24.8898V6.88838H26.6398ZM25.7648 4.02012H26.9609V2.27012H25.7648V4.02012ZM26.9609 4.02012C27.6696 4.02012 28.0047 4.44712 28.0047 4.917H29.7547C29.7547 3.39012 28.5437 2.27012 26.9609 2.27012V4.02012ZM28.0047 4.917C28.0047 5.59075 27.5655 6.01338 26.9364 6.01338V7.76337C28.549 7.76337 29.7539 6.53925 29.7539 4.917H28.0039H28.0047ZM39.3395 8.8475L40.1865 6.62675L38.552 6.00287L37.705 8.22363L39.3395 8.8475ZM40.1883 6.6215C40.414 6.02125 40.6424 5.34925 40.7316 4.77875L39.0035 4.50663C38.944 4.88462 38.7734 5.4105 38.5503 6.00813L40.1891 6.62063L40.1883 6.6215ZM39.868 5.51725H39.8925V3.76725H39.868V5.51725ZM39.0298 4.78662C39.119 5.32125 39.3491 5.981 39.5609 6.61538L41.2207 6.06325C40.9845 5.35012 40.8165 4.86188 40.7561 4.49875L39.0298 4.78662ZM39.5635 6.62413L40.3108 8.79587L41.9654 8.22625L41.2181 6.0545L39.5644 6.62413H39.5635ZM135.706 0.78175L136.479 3.30175L138.151 2.789L137.379 0.269L135.706 0.78175ZM137.323 3.92037L143.029 3.8705L143.013 2.1205L137.307 2.17037L137.323 3.92037ZM142.274 2.5405L135.322 13.9444L136.816 14.8553L143.768 3.45138L142.274 2.5405ZM136.069 15.2752H147.88V13.5252H136.069V15.2752ZM148.755 14.4002V11.805H147.005V14.4002H148.755ZM147.87 10.93L141.242 11.0044L141.262 12.7544L147.889 12.68L147.87 10.93ZM142.004 12.3274L148.757 0.9725L147.252 0.077375L140.5 11.4323L142.004 12.3274ZM147.664 0.773875L148.411 3.29387L150.089 2.79688L149.341 0.276875L147.664 0.773875ZM149.258 3.92037L154.988 3.8705L154.973 2.1205L149.242 2.17037L149.258 3.92037ZM154.234 2.53875L147.258 13.9435L148.75 14.857L155.727 3.45225L154.234 2.53875ZM148.004 15.2752H159.815V13.5252H148.004V15.2752ZM160.69 14.4002V11.805H158.94V14.4002H160.69ZM159.804 10.93L153.177 11.0044L153.196 12.7544L159.824 12.68L159.804 10.93ZM153.939 12.3274L160.691 0.9725L159.187 0.077375L152.435 11.4323L153.939 12.3274ZM160.911 1.40038H164.125V-0.349625H160.911V1.40038ZM163.25 0.525375V14.4002H165V0.525375H163.25ZM164.125 13.5252H160.911V15.2752H164.125V13.5252ZM161.786 14.4002V0.525375H160.036V14.4002H161.786Z" fill="#282C35"/>
</svg>
