<svg width="33" height="40" viewBox="0 0 33 40" fill="none" xmlns="http://www.w3.org/2000/svg">
<g clip-path="url(#clip0_816_3470)">
<path d="M19.8358 33.4427L28.8522 8.19678L23.9342 9.67219L13.4424 35.246L19.8358 33.4427Z" fill="url(#paint0_linear_816_3470)"/>
<g filter="url(#filter0_d_816_3470)">
<path d="M21.3115 14.7539L22.8309 10.4542L27.541 9.18018L26.4775 12.8429L21.3115 14.7539Z" fill="#D9D9D9"/>
</g>
<path d="M1.96721 16.0656L0 22.2951L27.3771 12.9509L28.8525 8.19678L1.96721 16.0656Z" fill="url(#paint1_linear_816_3470)"/>
<path d="M7.70497 26.7212L1.31152 23.2786L19.3443 17.377L12.623 34.5901L8.85251 28.1966L12.623 23.7704L7.70497 26.7212Z" fill="url(#paint2_radial_816_3470)"/>
<path d="M21.7436 18.7453C26.3641 25.2937 29.0104 30.0633 30.2842 33.3713C30.9216 35.0264 31.208 36.2972 31.2357 37.2313C31.2636 38.169 31.0314 38.7133 30.6989 38.9999C30.3643 39.2884 29.778 39.4733 28.8558 39.3061C27.9323 39.1385 26.7031 38.6212 25.1425 37.5494C22.0217 35.4058 17.6437 31.0914 11.8332 23.153C7.63446 17.4167 4.84584 12.3546 3.51883 8.55845C2.8542 6.65714 2.56533 5.09871 2.63255 3.94297C2.69951 2.79153 3.11048 2.10607 3.78404 1.8067C4.40105 1.53248 5.23384 1.57899 6.32863 2.0724C7.42083 2.56464 8.72686 3.48196 10.2471 4.86442C13.2855 7.62753 17.1219 12.1951 21.7436 18.7453Z" stroke="url(#paint3_linear_816_3470)" stroke-width="2"/>
<path d="M24.3445 20.8197L21.2444 16.2295L20.1011 19.0164L23.5833 22.9508L24.3445 20.8197Z" fill="url(#paint4_linear_816_3470)"/>
<path fill-rule="evenodd" clip-rule="evenodd" d="M28.8524 8.19678L15.4098 12.1312L13.6885 17.623L27.377 12.9509L28.8524 8.19678Z" fill="url(#paint5_linear_816_3470)"/>
<path d="M3.77054 4.91803C5.12862 4.91803 6.22956 3.81709 6.22956 2.45902C6.22956 1.10094 5.12862 0 3.77054 0C2.41246 0 1.31152 1.10094 1.31152 2.45902C1.31152 3.81709 2.41246 4.91803 3.77054 4.91803Z" fill="url(#paint6_radial_816_3470)"/>
<path d="M29.6719 39.6719C31.03 39.6719 32.1309 38.571 32.1309 37.2129C32.1309 35.8548 31.03 34.7539 29.6719 34.7539C28.3138 34.7539 27.2129 35.8548 27.2129 37.2129C27.2129 38.571 28.3138 39.6719 29.6719 39.6719Z" fill="url(#paint7_radial_816_3470)"/>
</g>
<defs>
<filter id="filter0_d_816_3470" x="15.3115" y="7.18018" width="18.2295" height="17.5737" filterUnits="userSpaceOnUse" color-interpolation-filters="sRGB">
<feFlood flood-opacity="0" result="BackgroundImageFix"/>
<feColorMatrix in="SourceAlpha" type="matrix" values="0 0 0 0 0 0 0 0 0 0 0 0 0 0 0 0 0 0 127 0" result="hardAlpha"/>
<feOffset dy="4"/>
<feGaussianBlur stdDeviation="3"/>
<feComposite in2="hardAlpha" operator="out"/>
<feColorMatrix type="matrix" values="0 0 0 0 0 0 0 0 0 0 0 0 0 0 0 0 0 0 0.75 0"/>
<feBlend mode="normal" in2="BackgroundImageFix" result="effect1_dropShadow_816_3470"/>
<feBlend mode="normal" in="SourceGraphic" in2="effect1_dropShadow_816_3470" result="shape"/>
</filter>
<linearGradient id="paint0_linear_816_3470" x1="24.2621" y1="8.68858" x2="16.5571" y2="37.8689" gradientUnits="userSpaceOnUse">
<stop stop-color="#CECECE"/>
<stop offset="1" stop-color="#CECECE"/>
</linearGradient>
<linearGradient id="paint1_linear_816_3470" x1="24.7541" y1="11.1476" x2="1.63934" y2="19.1804" gradientUnits="userSpaceOnUse">
<stop stop-color="#F0F0F0"/>
<stop offset="1" stop-color="#F0F0F0"/>
</linearGradient>
<radialGradient id="paint2_radial_816_3470" cx="0" cy="0" r="1" gradientUnits="userSpaceOnUse" gradientTransform="translate(8.68857 27.8688) rotate(-45.7639) scale(8.69472 0.0897056)">
<stop stop-color="#F0F0F0"/>
<stop offset="0.720657" stop-color="#D8D8D8"/>
</radialGradient>
<linearGradient id="paint3_linear_816_3470" x1="31.7325" y1="39.4123" x2="2.88007" y2="2.69093" gradientUnits="userSpaceOnUse">
<stop stop-color="#F0F0F0"/>
<stop offset="1" stop-color="#F0F0F0"/>
</linearGradient>
<linearGradient id="paint4_linear_816_3470" x1="24.2625" y1="8.68851" x2="16.5576" y2="37.8688" gradientUnits="userSpaceOnUse">
<stop stop-color="#CECECE"/>
<stop offset="1" stop-color="#CECECE"/>
</linearGradient>
<linearGradient id="paint5_linear_816_3470" x1="24.7541" y1="11.1476" x2="1.6393" y2="19.1804" gradientUnits="userSpaceOnUse">
<stop stop-color="#F0F0F0"/>
<stop offset="1" stop-color="#CECECE"/>
</linearGradient>
<radialGradient id="paint6_radial_816_3470" cx="0" cy="0" r="1" gradientUnits="userSpaceOnUse" gradientTransform="translate(1.80333 1.63934) rotate(40.1009) scale(4.07203)">
<stop offset="0.142498" stop-color="#F0F0F0"/>
<stop offset="1" stop-color="#BDBDBD"/>
</radialGradient>
<radialGradient id="paint7_radial_816_3470" cx="0" cy="0" r="1" gradientUnits="userSpaceOnUse" gradientTransform="translate(30.3276 39.6719) rotate(-95.7106) scale(4.94256 6.07171)">
<stop stop-color="#CECECE"/>
<stop offset="1" stop-color="#F0F0F0"/>
</radialGradient>
<clipPath id="clip0_816_3470">
<rect width="32.1311" height="40" fill="white"/>
</clipPath>
</defs>
</svg>
