<svg width="105" height="41" viewBox="0 0 105 41" fill="none" xmlns="http://www.w3.org/2000/svg">
<g clip-path="url(#clip0_464_4525)">
<path d="M41.7463 4.55884H43.6131V4.82811C43.5931 4.83299 43.5692 4.83982 43.5419 4.84762C43.5143 4.85504 43.4879 4.8662 43.4634 4.88079C43.4042 4.90939 43.3527 4.9517 43.3131 5.00421C43.2682 5.06177 43.2458 5.14567 43.2458 5.25494V9.40226H45.3902V5.25494C45.3908 5.15766 45.3621 5.06244 45.3077 4.98177C45.2531 4.89933 45.1551 4.84811 45.0155 4.82811V4.55884H46.9575V4.82811C46.8277 4.84811 46.738 4.88957 46.6877 4.95152C46.6393 5.01049 46.6082 5.08176 46.598 5.15738C46.5927 5.1731 46.5901 5.18958 46.5902 5.20616V9.03543C46.5902 9.13543 46.5999 9.21104 46.6204 9.26372C46.642 9.31884 46.6751 9.36872 46.7175 9.41006C46.7273 9.4247 46.7404 9.43835 46.7551 9.45104C46.8003 9.48529 46.8441 9.52142 46.8863 9.55933C46.9141 9.5847 46.9399 9.61201 46.9653 9.64226C47.0302 9.71201 47.0902 9.79396 47.1448 9.88909C47.1999 9.98372 47.2277 10.0988 47.2277 10.2335V10.2823C47.2277 10.2988 47.2251 10.3153 47.2199 10.331C47.1907 10.5847 47.0541 10.8188 46.8116 11.0305C46.5692 11.2427 46.2507 11.3491 45.8555 11.3491L45.7804 11.3564C45.5659 11.3443 45.3528 11.3143 45.1434 11.2666C45.02 11.2371 44.8973 11.2046 44.7756 11.1691C44.6639 11.1369 44.5539 11.0994 44.4458 11.0569C44.0507 10.9023 43.7673 10.7993 43.5946 10.7496C43.4731 10.7116 43.3492 10.6816 43.2238 10.6598C43.1812 10.6624 43.1399 10.6752 43.1034 10.6974C43.0787 10.7121 43.0581 10.7327 43.0434 10.7574C43.043 10.7637 43.0417 10.77 43.0395 10.7759C43.0371 10.782 43.0357 10.7884 43.0356 10.7949C43.0356 10.8247 43.0419 10.8457 43.0551 10.8584C43.0603 10.864 43.0667 10.8685 43.0737 10.8717C43.0807 10.8749 43.0883 10.8767 43.096 10.8769H43.1258L43.1634 10.8842C43.1816 10.8793 43.2007 10.8782 43.2195 10.8808C43.2419 10.8832 43.2658 10.8871 43.2907 10.892C43.3258 10.9018 43.3585 10.9223 43.3882 10.952C43.4185 10.9818 43.4331 11.0296 43.4331 11.0945V11.1169C43.4259 11.1806 43.3951 11.2392 43.3468 11.2813C43.2946 11.331 43.216 11.3564 43.1107 11.3564L43.0356 11.3637C42.9845 11.3627 42.9343 11.3512 42.8879 11.33C42.8415 11.3087 42.7999 11.2782 42.7658 11.2403C42.696 11.1623 42.6609 11.0618 42.6609 10.9369C42.6609 10.7223 42.777 10.5442 43.0097 10.4018C43.2419 10.2598 43.5531 10.1886 43.9429 10.1886L44.018 10.1959C44.2082 10.191 44.3868 10.2071 44.5546 10.2447C44.7659 10.2912 44.9737 10.3523 45.1765 10.4276C45.4148 10.5151 45.6548 10.5975 45.8965 10.6749C46.039 10.7198 46.1648 10.7447 46.2751 10.7496C46.3951 10.7447 46.5053 10.7023 46.6053 10.6227C46.7053 10.5427 46.7551 10.4305 46.7551 10.2857C46.7556 10.2203 46.7418 10.1556 46.7147 10.0961C46.6876 10.0366 46.6477 9.98373 46.598 9.94128C46.4926 9.84665 46.3526 9.79933 46.178 9.79933H41.6707V9.52957C41.7236 9.52766 41.7752 9.51221 41.8204 9.4847C41.8813 9.45523 41.9343 9.41177 41.9751 9.35787C42.0224 9.29787 42.0463 9.21299 42.0463 9.10274V5.25494C42.0463 5.11055 42.0073 5.00421 41.9292 4.93689C41.858 4.87218 41.7667 4.83379 41.6707 4.82811V4.55884H41.7463ZM47.5575 4.55884H51.2692C51.3692 4.55884 51.4443 4.5525 51.4946 4.5403C51.5443 4.52762 51.5843 4.4886 51.6146 4.42372H51.8765V5.76421H51.5316C51.437 5.41445 51.2916 5.1925 51.097 5.09787C50.9019 5.00323 50.6443 4.95543 50.3243 4.95543H49.1473V6.84957H49.9043C50.1043 6.84957 50.2619 6.81543 50.377 6.7486C50.4916 6.68079 50.5492 6.5603 50.5492 6.38567V6.37104H50.8946V7.71787H50.5492C50.5394 7.59299 50.5082 7.49835 50.4555 7.43348C50.4117 7.37598 50.357 7.3276 50.2946 7.29104C50.249 7.27216 50.2011 7.25968 50.1521 7.25396C50.1198 7.24986 50.0872 7.24742 50.0546 7.24665H49.1473V9.40226H50.8721C51.1765 9.40226 51.4307 9.3086 51.6331 9.12177C51.8355 8.93445 51.957 8.71835 51.9965 8.47396H52.3419V9.79884H47.5575V9.52957C47.6873 9.51494 47.7785 9.47591 47.8307 9.41348C47.8816 9.35462 47.9167 9.28378 47.9326 9.20762C47.9417 9.15066 47.9466 9.09311 47.9473 9.03543V5.25933C47.9474 5.23781 47.9449 5.21636 47.9399 5.19543C47.9289 5.11312 47.8979 5.03476 47.8497 4.96713C47.7999 4.89396 47.7024 4.84811 47.557 4.82811V4.55884H47.5575ZM54.8838 4.55884V4.82811C54.8308 4.83019 54.7791 4.84563 54.7336 4.87299C54.6731 4.90264 54.6206 4.94629 54.5804 5.0003C54.5326 5.0603 54.5092 5.14518 54.5092 5.25494V6.90177H57.0434V5.20616C57.0435 5.18962 57.041 5.17315 57.036 5.15738C57.0253 5.0818 56.9941 5.0106 56.9458 4.95152C56.896 4.88957 56.8063 4.84811 56.676 4.82811V4.55884H58.6185V4.82811C58.4931 4.84811 58.3994 4.89152 58.337 4.95982C58.2741 5.02665 58.2434 5.12567 58.2434 5.25494L58.2507 9.10274C58.2507 9.22274 58.2716 9.31006 58.3146 9.3647C58.357 9.41982 58.4331 9.4647 58.5429 9.49982C58.5672 9.51162 58.5925 9.52141 58.6185 9.52909V9.79884H56.676V9.52957C56.7016 9.52092 56.7266 9.51099 56.7512 9.49982C56.8609 9.4647 56.937 9.41982 56.9794 9.3647C57.0224 9.31006 57.0434 9.22274 57.0434 9.10274V7.29884H54.5092V9.10274C54.5092 9.21299 54.5326 9.30128 54.5804 9.3686C54.6273 9.43591 54.7292 9.48957 54.8838 9.52957V9.79933H52.9414V9.52957C53.0863 9.47982 53.1838 9.4247 53.2341 9.3647C53.2838 9.30518 53.3092 9.21738 53.3092 9.10274V5.25494C53.3092 5.14518 53.2863 5.06177 53.2414 5.00421C53.2022 4.95156 53.1508 4.90922 53.0916 4.88079C53.067 4.86593 53.0404 4.8546 53.0126 4.84713C52.989 4.84052 52.9652 4.83418 52.9414 4.82811V4.55884H54.8838ZM59.0682 4.42372H59.3682C59.438 4.45884 59.5116 4.48518 59.5892 4.50274C59.6668 4.5203 59.7531 4.52909 59.8477 4.52909H63.1921C63.2386 4.52924 63.285 4.52664 63.3312 4.52128L63.4624 4.50665C63.4975 4.49689 63.5326 4.48518 63.5672 4.4725C63.6024 4.4603 63.6399 4.44421 63.6794 4.42372H64.0473V5.77201H63.7024C63.6438 5.62547 63.5628 5.48889 63.4624 5.36713C63.3826 5.27157 63.289 5.18838 63.1848 5.1203C63.0774 5.0431 62.9549 4.98956 62.8253 4.96323C62.7312 4.94526 62.6357 4.93515 62.5399 4.93299L62.1204 4.92567V9.10274C62.1204 9.21299 62.1438 9.30128 62.1916 9.3686C62.2385 9.43591 62.3404 9.48957 62.4951 9.52957V9.79933H60.5526V9.52957C60.5783 9.5209 60.6035 9.51097 60.6282 9.49982C60.738 9.4647 60.8141 9.41982 60.8565 9.3647C60.899 9.31006 60.9204 9.22274 60.9204 9.10274V4.92567L60.5751 4.93299C60.5004 4.93299 60.419 4.93787 60.3316 4.94811C60.241 4.95876 60.1517 4.97887 60.0653 5.00811C59.9144 5.05935 59.7755 5.14067 59.657 5.24713C59.5243 5.36226 59.418 5.53738 59.338 5.77201H58.9931V4.42323H59.0682V4.42372ZM64.4219 9.79933V9.52957C64.4862 9.52654 64.5484 9.50596 64.6019 9.47006C64.6539 9.4384 64.6975 9.39475 64.7292 9.34274C64.7697 9.28226 64.7897 9.2003 64.7897 9.09543V6.1686C64.7897 5.58421 64.9682 5.16274 65.3258 4.90323C65.6663 4.64963 66.0748 4.50355 66.499 4.48372C66.5224 4.47902 66.5463 4.47657 66.5702 4.4764H66.7165C67.3912 4.4764 67.9004 4.65494 68.2429 5.01201C68.5853 5.3686 68.7565 5.77201 68.7565 6.22079C68.7565 6.32079 68.7487 6.42665 68.7336 6.53884C68.7185 6.65104 68.6936 6.7647 68.659 6.87933C68.5736 7.16909 68.4141 7.43494 68.179 7.67689C67.9438 7.91884 67.5941 8.03982 67.1287 8.03982H67.0541C66.8956 8.03659 66.7377 8.02027 66.5819 7.99104C66.3916 7.95884 66.1941 7.8803 65.9892 7.75543V9.09543C65.9892 9.2003 66.0253 9.29494 66.098 9.37982C66.1711 9.46512 66.2744 9.5188 66.3863 9.52957V9.79933H64.4219ZM65.9892 5.63689V6.90909C65.9892 7.07933 66.0629 7.22518 66.2107 7.34762C66.358 7.46957 66.5341 7.53591 66.739 7.54567C67.0443 7.53591 67.2365 7.40616 67.3165 7.1564C67.3965 6.90713 67.4365 6.5925 67.4365 6.21348C67.4365 5.83396 67.4029 5.51835 67.3351 5.26665C67.2677 5.01396 67.0712 4.88323 66.7468 4.87299C66.7317 4.8731 66.7167 4.87441 66.7019 4.87689C66.6869 4.87936 66.6717 4.88066 66.6565 4.88079C66.485 4.90655 66.3247 4.98202 66.1955 5.09787C66.058 5.21787 65.9892 5.39738 65.9892 5.63689ZM69.0936 9.52957C69.1287 9.51982 69.1848 9.49201 69.2624 9.44762C69.3399 9.40226 69.4214 9.31738 69.5063 9.1925C69.5585 9.11696 69.6038 9.03678 69.6414 8.95299L71.156 5.7564C71.1716 5.71973 71.1853 5.68228 71.197 5.64421C71.2097 5.60421 71.2185 5.56421 71.2233 5.5247C71.2337 5.48811 71.2399 5.45047 71.2419 5.4125C71.2443 5.3725 71.2458 5.33445 71.2458 5.29982C71.2458 5.2603 71.2194 5.22421 71.1672 5.19152C71.1043 5.15694 71.0323 5.14246 70.9609 5.15006H70.8931V4.88079C71.0985 4.86567 71.2672 4.82957 71.3994 4.77201C71.5321 4.71494 71.6385 4.65396 71.7185 4.58909C71.7428 4.57411 71.7654 4.55644 71.7858 4.5364C71.8058 4.5164 71.8233 4.49689 71.8385 4.4764H72.1833L74.1477 8.57884C74.3029 8.89835 74.4302 9.12177 74.5302 9.24909C74.6302 9.37592 74.7277 9.46469 74.8229 9.51445C74.8277 9.51445 74.8326 9.51591 74.8375 9.51835C74.8429 9.52079 74.8472 9.52421 74.8526 9.52957V9.79933H72.6331V9.52957H72.6555C72.7046 9.5318 72.7535 9.52321 72.7989 9.50442C72.8442 9.48562 72.8849 9.45707 72.918 9.42079C72.9797 9.35533 73.0213 9.27357 73.038 9.18518C73.038 9.17055 73.0394 9.15689 73.0414 9.14421C73.0444 9.1306 73.0459 9.11669 73.0458 9.10274C73.0449 9.08626 73.0423 9.06991 73.038 9.05396C73.0331 9.03201 73.0255 9.01072 73.0155 8.99055V8.97591C73.0155 8.97104 73.0131 8.96567 73.0082 8.9603C73.0036 8.94278 72.9986 8.92537 72.9931 8.90811C72.989 8.89541 72.9839 8.88302 72.978 8.87104L72.7458 8.38421H70.4282L70.2336 8.82567C70.2288 8.83533 70.225 8.84547 70.2224 8.85592C70.2196 8.86619 70.2159 8.87615 70.2112 8.88567C70.2002 8.9077 70.1901 8.93016 70.1809 8.95299C70.1706 8.97977 70.163 9.00757 70.1585 9.03591C70.1535 9.05168 70.151 9.06815 70.1512 9.0847V9.1403C70.1512 9.2203 70.1848 9.2964 70.2521 9.3686C70.3199 9.44128 70.4487 9.49445 70.6385 9.52957V9.79933H69.0936V9.52957ZM71.5833 5.95152L70.6536 7.95738V7.98762H72.5277V7.96518L71.5833 5.95152ZM76.5999 4.55884H78.3697L79.8765 8.95299C79.8878 8.99426 79.9028 9.03443 79.9214 9.07299C79.9614 9.1925 80.0107 9.2925 80.0677 9.3725C80.1253 9.45201 80.2189 9.50469 80.3492 9.52957V9.79933H78.8794L77.537 5.8764H77.5219C77.4826 6.07683 77.439 6.27638 77.3911 6.47494C77.3385 6.69445 77.2824 6.91689 77.2219 7.14177C77.1921 7.2764 77.1585 7.4086 77.1209 7.53835L77.0121 7.9125C76.9672 8.0725 76.9209 8.22226 76.8736 8.36128C76.8263 8.50177 76.7819 8.62372 76.7424 8.7286C76.6975 8.83835 76.6521 8.93933 76.6073 9.03152C76.5624 9.12421 76.517 9.20762 76.4721 9.28226C76.3424 9.50713 76.2072 9.66177 76.0672 9.74665C75.9174 9.83426 75.7461 9.87835 75.5726 9.87396L75.4975 9.88177C75.2975 9.87689 75.1438 9.82421 75.0365 9.72421C74.9292 9.62421 74.8677 9.51445 74.8526 9.39494V9.33543C74.8531 9.29756 74.8582 9.25989 74.8677 9.22323C74.8877 9.1325 74.9375 9.04811 75.0175 8.96811C75.0975 8.88811 75.2048 8.8486 75.3399 8.8486H75.4151C75.4542 8.8485 75.4932 8.85342 75.5311 8.86323C75.5687 8.87299 75.6048 8.88567 75.6399 8.90079C75.6546 8.90567 75.6687 8.91055 75.6809 8.91543C75.6937 8.92075 75.7053 8.92854 75.715 8.93835C75.7502 8.95299 75.7833 8.96665 75.816 8.97933C75.8462 8.99132 75.8776 9.00015 75.9097 9.00567C75.9494 9.00087 75.9871 8.98517 76.0185 8.9603C76.0512 8.93591 76.0848 8.90323 76.1199 8.86323C76.1897 8.7686 76.2638 8.62128 76.3414 8.42177C76.4412 8.15522 76.5323 7.88548 76.6146 7.61299C76.6351 7.53835 76.6687 7.4247 76.716 7.2725C76.7638 7.1203 76.8126 6.94957 76.8624 6.75982C76.8775 6.69982 76.8936 6.63884 76.9107 6.5764C76.9288 6.51332 76.9451 6.44972 76.9594 6.38567C77.0048 6.19055 77.0448 6.0003 77.0794 5.8125C77.1146 5.62567 77.1321 5.46957 77.1321 5.34518C77.1305 5.26641 77.1179 5.18825 77.0946 5.11299C77.0641 5.03511 77.0121 4.96746 76.9448 4.91787C76.8697 4.85835 76.7551 4.82811 76.5999 4.82811H76.5248V4.55884H76.5999ZM82.6663 4.55884V4.82811C82.5414 4.84323 82.4536 4.88079 82.4033 4.9403C82.3557 4.99561 82.3246 5.06324 82.3136 5.13543C82.304 5.16439 82.2991 5.19468 82.299 5.22518V6.69982H82.9663C83.5463 6.69982 83.9794 6.7847 84.2672 6.95445C84.5546 7.12372 84.7555 7.3086 84.8707 7.50811C84.9555 7.66323 85.0068 7.80909 85.0248 7.94616C85.0419 8.08323 85.0507 8.1847 85.0507 8.24909C85.0509 8.32674 85.0458 8.40431 85.0355 8.48128C84.9809 8.81104 84.8082 9.11299 84.5185 9.38713C84.2282 9.66177 83.7911 9.79933 83.2063 9.79933H80.7238V9.52957C80.8643 9.51494 80.959 9.46713 81.0092 9.38713C81.0589 9.30762 81.0868 9.22274 81.0916 9.1325C81.0966 9.11689 81.0991 9.10059 81.0989 9.08421V5.22518C81.0989 5.19463 81.0938 5.1643 81.0838 5.13543C81.0731 5.06317 81.042 4.99548 80.9941 4.9403C80.9438 4.88079 80.8565 4.84323 80.7316 4.82811V4.55884H82.6663ZM82.299 7.09689V9.40226H82.6887C82.9736 9.40226 83.2224 9.33006 83.435 9.18518C83.6472 9.04031 83.7536 8.74128 83.7536 8.28713C83.7536 7.94762 83.6785 7.66421 83.5287 7.43689C83.3785 7.21055 83.0965 7.09689 82.6809 7.09689H82.299ZM87.6302 4.55884V4.82811C87.5773 4.83048 87.5259 4.8459 87.4804 4.87299C87.4199 4.90277 87.3673 4.94638 87.3268 5.0003C87.2794 5.0603 87.2555 5.14518 87.2555 5.25494V6.90177H89.7902V5.20616C89.7904 5.18957 89.7877 5.17307 89.7824 5.15738C89.7718 5.08184 89.7408 5.01065 89.6926 4.95152C89.6424 4.88957 89.5526 4.84811 89.4224 4.82811V4.55884H91.3648V4.82811C91.2394 4.84811 91.1463 4.89152 91.0833 4.95982C91.0209 5.02665 90.9897 5.12567 90.9897 5.25494L90.997 9.10274C90.997 9.22274 91.0185 9.31006 91.0609 9.3647C91.1033 9.41982 91.1799 9.4647 91.2897 9.49982C91.314 9.51123 91.3391 9.52101 91.3648 9.52909V9.79884H89.4224V9.52957C89.448 9.52115 89.473 9.51121 89.4975 9.49982C89.6072 9.4647 89.6838 9.41982 89.7263 9.3647C89.7687 9.31006 89.7902 9.22274 89.7902 9.10274V7.29884H87.2555V9.10274C87.2555 9.21299 87.2794 9.30128 87.3268 9.3686C87.3741 9.43591 87.4755 9.48957 87.6302 9.52957V9.79933H85.6882V9.52957C85.8331 9.47982 85.9307 9.4247 85.9809 9.3647C86.0307 9.30518 86.056 9.21738 86.056 9.10274V5.25494C86.056 5.14518 86.0331 5.06177 85.9882 5.00421C85.9488 4.95154 85.8973 4.9092 85.838 4.88079C85.8136 4.86585 85.7871 4.85451 85.7594 4.84713C85.7358 4.84058 85.712 4.83424 85.6882 4.82811V4.55884H87.6302ZM93.9067 4.55884V4.82811C93.7819 4.84323 93.6941 4.88079 93.6443 4.9403C93.5963 4.99538 93.5651 5.06312 93.5546 5.13543C93.5446 5.1643 93.5395 5.19463 93.5394 5.22518V6.69982H94.2068C94.7868 6.69982 95.2204 6.7847 95.5077 6.95445C95.795 7.12372 95.9965 7.3086 96.1111 7.50811C96.1965 7.66323 96.2477 7.80909 96.2653 7.94616C96.2824 8.08323 96.2911 8.1847 96.2911 8.24909C96.2913 8.32688 96.2864 8.4046 96.2765 8.48177C96.2214 8.81104 96.0487 9.11299 95.7589 9.38713C95.4692 9.66177 95.0316 9.79933 94.4468 9.79933H91.9648V9.52957C92.1048 9.51494 92.1999 9.46713 92.2497 9.38713C92.2994 9.30762 92.3272 9.22274 92.3321 9.1325C92.3373 9.11692 92.3399 9.10062 92.3399 9.08421V5.22518C92.3397 5.19461 92.3344 5.16428 92.3243 5.13543C92.3138 5.06312 92.2826 4.99538 92.2346 4.9403C92.1848 4.88079 92.0975 4.84323 91.9721 4.82811V4.55884H93.9067ZM93.5394 7.09689V9.40226H93.9292C94.2141 9.40226 94.4628 9.33006 94.6755 9.18518C94.8882 9.04031 94.9946 8.74128 94.9946 8.28713C94.9946 7.94762 94.9189 7.66421 94.7692 7.43689C94.6194 7.21055 94.337 7.09689 93.9219 7.09689H93.5394ZM98.4136 4.55884V4.82811C98.2838 4.84811 98.1936 4.88957 98.1438 4.95152C98.0953 5.01048 98.0641 5.08174 98.0536 5.15738C98.0484 5.17313 98.0458 5.18959 98.0458 5.20616V9.15152C98.0458 9.16909 98.0487 9.18567 98.0536 9.2003C98.0641 9.27594 98.0953 9.3472 98.1438 9.40616C98.1936 9.4686 98.2838 9.50957 98.4136 9.52957V9.79933H96.4716V9.52957C96.5245 9.52751 96.5761 9.51207 96.6214 9.4847C96.6818 9.45505 96.7345 9.41161 96.775 9.35787C96.8228 9.29787 96.8463 9.21299 96.8463 9.10274V5.25494C96.8463 5.14518 96.8228 5.0603 96.775 5.0003C96.7345 4.94656 96.6818 4.90312 96.6214 4.87348C96.5761 4.84589 96.5246 4.83027 96.4716 4.82811V4.55884H98.4136ZM99.1258 4.55884H100.993V4.82811C100.991 4.83065 100.988 4.83267 100.985 4.83401C100.981 4.83536 100.978 4.83601 100.975 4.83591C100.971 4.83581 100.968 4.8364 100.964 4.83766C100.961 4.83891 100.958 4.84081 100.956 4.84323H100.948C100.942 4.84339 100.935 4.84471 100.929 4.84713L100.896 4.85835L100.843 4.87689C100.821 4.88539 100.801 4.89689 100.783 4.91104C100.737 4.94188 100.699 4.98274 100.671 5.03055C100.636 5.08518 100.618 5.1603 100.618 5.25494V8.01738L102.943 5.59933V5.25494C102.944 5.15766 102.915 5.06244 102.86 4.98177C102.805 4.89933 102.708 4.84811 102.568 4.82811V4.55884H104.51V4.82811C104.38 4.84811 104.29 4.88957 104.24 4.95152C104.191 5.0104 104.16 5.08172 104.15 5.15738C104.145 5.17307 104.142 5.18957 104.142 5.20616V9.15152C104.142 9.16909 104.145 9.18567 104.15 9.2003C104.16 9.27494 104.19 9.34372 104.24 9.40616C104.29 9.4686 104.38 9.50957 104.51 9.52957V9.79933H102.568V9.52957C102.673 9.51494 102.75 9.48372 102.8 9.43591C102.85 9.3886 102.888 9.3403 102.913 9.29006C102.93 9.22913 102.941 9.1662 102.943 9.10274V6.28811L100.618 8.71396V9.10274C100.618 9.20274 100.646 9.29299 100.7 9.3725C100.756 9.45201 100.853 9.50469 100.993 9.52957V9.79933H99.0507V9.52957C99.1809 9.50957 99.2706 9.4686 99.3209 9.40616C99.3693 9.34717 99.4004 9.27591 99.4107 9.2003C99.4158 9.18456 99.4185 9.1681 99.4185 9.15152V5.20616C99.4184 5.18959 99.4158 5.17313 99.4107 5.15738C99.4003 5.08178 99.3693 5.01053 99.3209 4.95152C99.2706 4.88957 99.1809 4.84811 99.0507 4.82811V4.55884H99.1258ZM101.796 3.42811C101.856 3.42811 101.923 3.42421 101.998 3.41689C102.074 3.40916 102.149 3.39529 102.223 3.37543C102.396 3.34253 102.564 3.2859 102.722 3.20713C102.874 3.13006 102.95 3.03152 102.95 2.91152C102.951 2.88331 102.945 2.85529 102.935 2.82909C102.925 2.80421 102.9 2.78909 102.86 2.78421C102.807 2.79514 102.756 2.81546 102.71 2.84421C102.705 2.84421 102.7 2.84518 102.695 2.84762C102.664 2.8641 102.631 2.87797 102.597 2.88909C102.569 2.89875 102.538 2.9037 102.508 2.90372H102.403C102.39 2.90331 102.377 2.90083 102.365 2.8964C102.303 2.88573 102.245 2.8588 102.197 2.81835C102.171 2.79711 102.15 2.77007 102.136 2.7394C102.123 2.70873 102.116 2.67529 102.118 2.64177C102.118 2.55689 102.154 2.48079 102.226 2.41348C102.299 2.34616 102.408 2.3125 102.553 2.3125H102.628C102.842 2.3125 103.011 2.37006 103.134 2.4847C103.256 2.59933 103.317 2.73933 103.317 2.90421C103.317 3.20323 103.168 3.46323 102.868 3.68226C102.582 3.89717 102.235 4.01297 101.877 4.01201H101.698C101.337 4.01322 100.985 3.8962 100.697 3.67884C100.394 3.45689 100.243 3.19835 100.243 2.90372C100.243 2.73933 100.304 2.59933 100.427 2.4847C100.549 2.37006 100.718 2.3125 100.933 2.3125H101.008C101.133 2.3125 101.227 2.33494 101.289 2.37982C101.345 2.41734 101.391 2.469 101.42 2.52957L101.436 2.58957C101.446 2.62718 101.446 2.66699 101.436 2.70461C101.425 2.74222 101.404 2.77618 101.376 2.80274C101.32 2.85671 101.249 2.89101 101.173 2.9003C101.155 2.90246 101.138 2.9036 101.12 2.90372H101.046C101.016 2.90291 100.987 2.89663 100.959 2.88518C100.925 2.87229 100.891 2.85863 100.858 2.84421C100.854 2.83952 100.849 2.83571 100.843 2.83299C100.838 2.83059 100.833 2.82926 100.828 2.82909C100.808 2.81879 100.786 2.80999 100.764 2.80274C100.743 2.7958 100.722 2.78962 100.7 2.78421C100.676 2.79079 100.654 2.80357 100.637 2.82128C100.624 2.83672 100.615 2.85471 100.611 2.87396C100.608 2.8764 100.606 2.8793 100.605 2.88248C100.604 2.88567 100.603 2.88908 100.603 2.8925V2.91152C100.603 2.94128 100.616 2.97494 100.64 3.0125C100.665 3.05006 100.7 3.0886 100.746 3.1286C100.836 3.19835 100.968 3.2647 101.143 3.32665C101.318 3.38909 101.535 3.42323 101.796 3.42811ZM41.4634 13.1081H45.4799L48.4629 21.2769L51.4463 13.1081H55.4126V13.7071C55.2014 13.7403 55.0404 13.8037 54.9292 13.8984C54.8292 13.9797 54.7446 14.0783 54.6795 14.1896C54.6385 14.276 54.6131 14.369 54.6043 14.4642C54.5985 14.5471 54.596 14.611 54.596 14.6554V23.2237C54.596 23.4564 54.6434 23.634 54.7375 23.7559C54.8321 23.8779 54.9351 23.9725 55.0458 24.0388C55.1121 24.072 55.1794 24.0974 55.2458 24.114C55.3126 24.1301 55.3682 24.1442 55.4126 24.1554V24.7545H51.0965V24.1549C51.3292 24.1213 51.5019 24.0579 51.6126 23.9637C51.7238 23.8691 51.8073 23.7666 51.8629 23.6559C51.896 23.5671 51.9155 23.4837 51.9209 23.4062C51.9263 23.3281 51.9297 23.2676 51.9297 23.2232V14.8379L48.3131 24.754H46.9804L43.3136 14.7052V23.0564C43.3136 23.412 43.3799 23.6666 43.5136 23.8223C43.6468 23.9774 43.7965 24.0769 43.9634 24.1213C44.056 24.1443 44.1513 24.1556 44.2468 24.1549V24.754H41.297V24.1549C41.5634 24.1549 41.7604 24.094 41.8887 23.972C42.0077 23.8632 42.0967 23.7256 42.1473 23.5725C42.1912 23.4618 42.216 23.3559 42.2219 23.2564C42.2266 23.1845 42.2293 23.1124 42.2302 23.0403V15.071C42.2302 14.6388 42.1497 14.3032 41.9887 14.0647C41.8277 13.8266 41.597 13.7071 41.297 13.7071V13.1081H41.4634ZM61.7643 13.1081V13.6905H61.7312C61.698 13.6905 61.6643 13.693 61.6312 13.6988C61.5926 13.7047 61.5536 13.7075 61.5146 13.7071C61.3755 13.7318 61.2442 13.7888 61.1312 13.8735C61.0092 13.9618 60.9531 14.1008 60.9643 14.2891C60.9643 14.3671 60.9838 14.4613 61.0229 14.572C61.0619 14.6832 61.1199 14.8052 61.1975 14.9379L63.6809 19.0305L65.3141 15.1881C65.3253 15.1657 65.339 15.1345 65.3555 15.0964C65.3726 15.0574 65.3863 15.0159 65.3975 14.9715C65.4088 14.9477 65.4171 14.9227 65.4224 14.8969C65.4282 14.8691 65.4365 14.8384 65.4473 14.8052C65.4685 14.7427 65.4853 14.6788 65.4975 14.614C65.5075 14.5618 65.513 14.509 65.5141 14.4559C65.5141 14.234 65.4253 14.0705 65.2472 13.9652C65.0629 13.8572 64.8593 13.7865 64.6477 13.7569C64.6037 13.7461 64.5591 13.738 64.5141 13.7325C64.4692 13.7267 64.4248 13.7182 64.3809 13.7071V13.1081H67.6472V13.7071C67.3248 13.8291 67.0975 13.9842 66.9638 14.173C66.8241 14.373 66.7015 14.5845 66.5975 14.8052C66.5863 14.8384 66.5751 14.8686 66.5638 14.8969C66.5518 14.9269 66.5408 14.9574 66.5307 14.9881L63.6141 21.8593C63.2585 22.7023 62.7975 23.4232 62.2307 24.0223C61.6643 24.6208 60.8868 24.9203 59.898 24.9203L59.7312 24.9374C59.1536 24.9262 58.7092 24.8349 58.398 24.6627C58.0868 24.491 57.8643 24.2993 57.7316 24.0886C57.6316 23.9335 57.5673 23.7891 57.5399 23.6564C57.5155 23.5525 57.5014 23.4465 57.498 23.3398V23.2403C57.498 23.2066 57.5033 23.174 57.5146 23.1403C57.548 22.8415 57.6665 22.5586 57.856 22.3252C58.0507 22.0813 58.359 21.9593 58.7814 21.9593H58.9477C59.2702 21.9593 59.5175 22.0203 59.6897 22.1423C59.8619 22.2642 59.9921 22.4027 60.0814 22.5579C60.137 22.6466 60.1755 22.7354 60.198 22.8247C60.2199 22.9125 60.237 22.9852 60.2477 23.0408C60.2477 23.0627 60.2531 23.0905 60.2643 23.1237C60.2743 23.1503 60.2801 23.1783 60.2814 23.2066C60.3146 23.3179 60.3673 23.4179 60.4394 23.5066C60.5116 23.5949 60.6365 23.6447 60.8146 23.6564C60.9033 23.6447 61.0502 23.5949 61.256 23.5066C61.4619 23.4179 61.6755 23.2184 61.898 22.9071C61.9755 22.7852 62.056 22.6496 62.1394 22.4998C62.2315 22.3307 62.3124 22.1557 62.3814 21.9759L57.9146 14.6052C57.7926 14.3945 57.6565 14.2281 57.5063 14.1062C57.365 13.9899 57.2114 13.8894 57.0482 13.8066C57.0024 13.7839 56.9549 13.7645 56.9063 13.7486C56.8545 13.7315 56.8017 13.7176 56.7482 13.7071V13.1081H61.7643ZM69.5663 15.7535L69.7497 12.9915H70.5331C70.5425 13.0105 70.5509 13.0301 70.558 13.0501C70.5633 13.0666 70.5775 13.0862 70.5994 13.1081C70.6331 13.1632 70.6882 13.2188 70.7663 13.274C70.8438 13.3301 70.9551 13.3632 71.0994 13.374C71.1551 13.374 71.2082 13.3686 71.258 13.3574L71.416 13.3242C71.4936 13.3023 71.577 13.2769 71.6663 13.2496C71.755 13.2218 71.8551 13.191 71.9663 13.1579C72.1917 13.1027 72.4196 13.0582 72.6492 13.0247C72.8436 13.0018 73.0381 12.9796 73.2326 12.9584C73.3663 12.9471 73.4936 12.9388 73.616 12.933C73.7272 12.9278 73.8384 12.925 73.9497 12.9247H74.116C74.338 12.9247 74.5741 12.9393 74.8238 12.9666C75.0741 12.9945 75.3272 13.0364 75.5824 13.0915C76.3007 13.2723 76.9734 13.6009 77.5575 14.0564C78.1629 14.5223 78.499 15.1881 78.5658 16.053V16.2359C78.5658 16.7793 78.4185 17.2505 78.1243 17.6505C77.8297 18.0496 77.5043 18.3598 77.1492 18.5818V18.6647C77.4711 18.8535 77.7409 19.0476 77.957 19.2471C78.1741 19.4471 78.3546 19.6471 78.499 19.8462C78.699 20.1349 78.8351 20.4169 78.9072 20.6949C78.9794 20.972 79.0155 21.2325 79.0155 21.4764C79.0155 22.3974 78.7131 23.1125 78.1072 23.6227C77.5019 24.133 76.838 24.4935 76.116 24.7042C75.8268 24.7705 75.538 24.8232 75.2492 24.8623C74.9604 24.9013 74.6936 24.9208 74.4492 24.9208L74.2824 24.9374C73.6824 24.9262 73.1546 24.851 72.6994 24.713C72.272 24.585 71.8543 24.4263 71.4497 24.2384C71.1421 24.0956 70.8366 23.9486 70.5331 23.7974C70.2733 23.6642 69.9902 23.5823 69.6994 23.5564C69.67 23.5458 69.639 23.5402 69.6077 23.5398H69.5165H69.6829H69.5497C69.3829 23.5398 69.2024 23.5447 69.0082 23.5564C68.8067 23.5689 68.6077 23.6081 68.4165 23.673C68.3829 23.6837 68.3497 23.6974 68.3165 23.7145C68.2841 23.7304 68.2507 23.7442 68.2165 23.7559H68.0497L67.6497 23.0905C67.7068 23.0336 67.7624 22.9752 67.8165 22.9154C67.8721 22.8549 67.9331 22.791 67.9999 22.7247C68.2722 22.4785 68.5648 22.2558 68.8746 22.0588C69.1828 21.8565 69.5243 21.7101 69.8833 21.6262C69.9604 21.6154 70.036 21.6042 70.1077 21.593C70.1767 21.5823 70.2463 21.5767 70.316 21.5764H70.4829C70.8385 21.5764 71.1551 21.674 71.4326 21.8676C71.7107 22.0618 71.9604 22.2749 72.1824 22.5081C72.2497 22.5744 72.3107 22.6413 72.3658 22.7081C72.4214 22.7745 72.477 22.8354 72.5331 22.891C72.5775 22.9349 72.6185 22.9823 72.6575 23.0325C72.6965 23.0823 72.7385 23.1296 72.7829 23.174C72.9716 23.3842 73.1829 23.5813 73.416 23.7642C73.6492 23.9476 73.9326 24.0442 74.2658 24.0554C74.7326 24.033 75.1521 23.831 75.5243 23.4481C75.896 23.0652 76.0824 22.3696 76.0824 21.3603C76.0824 20.9832 76.0243 20.6476 75.9072 20.3535C75.7866 20.0519 75.633 19.7647 75.4492 19.4969C75.0711 19.674 74.7019 19.8018 74.3409 19.8793C73.9799 19.9574 73.638 19.9964 73.316 19.9964H73.1492C72.3385 19.9964 71.758 19.852 71.4077 19.5632C71.058 19.2749 70.8829 18.931 70.8829 18.532V18.4486C70.9048 18.1159 71.0551 17.8135 71.3326 17.5423C71.6107 17.2701 72.0994 17.134 72.7994 17.134H72.9658C73.3102 17.134 73.6746 17.173 74.0575 17.251C74.4409 17.3281 74.9268 17.4896 75.5155 17.7335C75.6123 17.6163 75.6988 17.4909 75.7741 17.3588C75.8447 17.2345 75.9034 17.1036 75.9492 16.9681C76.0028 16.8084 76.0418 16.6441 76.0658 16.4774C76.0877 16.3164 76.099 16.1696 76.099 16.0364C76.099 15.3598 75.9019 14.8437 75.5072 14.4891C75.1131 14.134 74.677 13.9008 74.1994 13.7901C74.0972 13.7673 73.9942 13.748 73.8907 13.732C73.7889 13.7154 73.686 13.7069 73.5829 13.7066C73.4461 13.7069 73.3095 13.7182 73.1746 13.7403C73.0355 13.7623 72.8941 13.7901 72.7492 13.8232C72.2305 13.9377 71.7402 14.1557 71.3077 14.4642C70.8575 14.7803 70.5331 15.2101 70.3331 15.7535H69.5663ZM74.7829 18.6149C74.6233 18.5132 74.4559 18.4241 74.2824 18.3486C74.105 18.2712 73.921 18.21 73.7326 18.1657C73.5791 18.1218 73.4234 18.0857 73.2663 18.0574C73.1232 18.031 72.9781 18.0172 72.8326 18.0159C72.5331 18.0271 72.319 18.0715 72.1911 18.1491C72.0633 18.2271 71.9824 18.3101 71.9497 18.3988C71.9496 18.4212 71.9468 18.4435 71.9414 18.4652C71.9356 18.487 71.9326 18.5095 71.9326 18.532C71.9326 18.6759 72.0131 18.8062 72.1741 18.9227C72.3355 19.0393 72.6716 19.1032 73.1829 19.1145C73.5272 19.1032 73.8077 19.0642 74.0243 18.9974C74.2138 18.9426 74.3957 18.8645 74.5658 18.7647C74.6102 18.7427 74.6492 18.7179 74.6824 18.6901C74.716 18.6623 74.7492 18.6374 74.7829 18.6149ZM80.4336 13.1081H88.6828C88.9048 13.1081 89.0716 13.0945 89.1824 13.0666C89.2936 13.0388 89.3824 12.953 89.4492 12.8086H90.0326V15.7866H89.2658C89.0546 15.0105 88.7326 14.5169 88.2994 14.3057C87.8658 14.0949 87.2941 13.9901 86.5829 13.9901H83.9663V18.1993H85.6497C86.0941 18.1993 86.4438 18.1242 86.6994 17.9745C86.955 17.8247 87.0829 17.5559 87.0829 17.1676V17.134H87.8497V20.1291H87.0829C87.0604 19.852 86.9911 19.6413 86.8746 19.4969C86.758 19.353 86.6385 19.2471 86.5165 19.1808C86.415 19.1391 86.3083 19.111 86.1994 19.0974C86.1276 19.0883 86.0553 19.0828 85.9829 19.0808H83.9663V23.8725H87.7994C88.477 23.8725 89.0409 23.6647 89.4907 23.2481C89.9409 22.8325 90.2102 22.353 90.2994 21.8091H91.0658V24.7545H80.4336V24.1549C80.7219 24.1213 80.9248 24.0354 81.0414 23.8964C81.1544 23.7658 81.2319 23.6084 81.2668 23.4393C81.2875 23.3127 81.2986 23.1847 81.2999 23.0564V14.6637C81.3 14.6161 81.2945 14.5686 81.2833 14.5223C81.2588 14.3394 81.1901 14.1653 81.0833 14.0149C80.9721 13.854 80.7555 13.7515 80.4336 13.7071V13.1081ZM98.5033 11.6047C98.637 11.6047 98.7868 11.6008 98.9536 11.5935C99.1204 11.5862 99.2868 11.573 99.4536 11.5535C99.8536 11.5193 100.223 11.4642 100.562 11.3886C100.901 11.3125 101.071 11.2159 101.071 11.0988C101.07 11.0687 101.058 11.0398 101.037 11.0184C101.015 10.994 100.959 10.9793 100.871 10.9745C100.758 10.9844 100.646 11.0039 100.537 11.033C100.526 11.0329 100.515 11.0341 100.504 11.0364L100.487 11.0403C100.421 11.0548 100.354 11.067 100.287 11.0769C100.22 11.0866 100.154 11.0915 100.087 11.0915H99.8536C99.8316 11.0915 99.8038 11.0891 99.7702 11.0842C99.6424 11.0755 99.5164 11.0496 99.3955 11.0071C99.2785 10.9657 99.2204 10.9081 99.2204 10.8349C99.2204 10.752 99.3009 10.6774 99.4619 10.611C99.6233 10.5452 99.8648 10.512 100.187 10.512H100.354C100.832 10.512 101.207 10.5686 101.479 10.6808C101.751 10.793 101.887 10.9301 101.887 11.0915C101.887 11.3847 101.554 11.6388 100.887 11.854C100.22 12.0686 99.4872 12.1764 98.6868 12.1764H98.2868C97.476 12.1764 96.7341 12.0676 96.0619 11.8501C95.3897 11.633 95.0531 11.3798 95.0531 11.0915C95.0531 10.9305 95.1897 10.7935 95.4619 10.6808C95.7341 10.5686 96.1092 10.5125 96.5868 10.5125H96.7536C97.0311 10.5125 97.2394 10.5345 97.3785 10.5784C97.5175 10.6223 97.6146 10.671 97.6702 10.7247L97.7038 10.7832C97.7146 10.8027 97.7204 10.8203 97.7204 10.8349C97.7204 10.8984 97.6702 10.951 97.5702 10.9925C97.4635 11.0358 97.3514 11.0642 97.237 11.0769C97.1594 11.086 97.0814 11.0909 97.0033 11.0915H96.837C96.7814 11.0915 96.7175 11.0852 96.6453 11.073C96.57 11.0603 96.4949 11.047 96.4199 11.033C96.3991 11.0236 96.3765 11.0186 96.3536 11.0184C96.3066 11.008 96.2592 10.9994 96.2116 10.9925C96.1646 10.9855 96.1174 10.9793 96.0702 10.974C96.0213 10.9788 95.9734 10.9912 95.9282 11.0105C95.9043 11.0219 95.8842 11.0398 95.8702 11.0623C95.8589 11.0671 95.8536 11.073 95.8536 11.0803V11.0988C95.8536 11.1281 95.8814 11.1613 95.9365 11.1979C95.9921 11.2345 96.0702 11.2725 96.1702 11.3115C96.3702 11.3798 96.6648 11.4447 97.0536 11.5057C97.4424 11.5666 97.9258 11.5998 98.5033 11.6047ZM92.5697 13.1047H96.7199V13.7042C96.7145 13.7096 96.708 13.7137 96.7008 13.7165C96.6937 13.7193 96.6861 13.7206 96.6785 13.7203C96.6707 13.7202 96.6629 13.7216 96.6557 13.7245C96.6485 13.7275 96.642 13.7318 96.6365 13.7374H96.6199C96.6058 13.738 96.5918 13.7408 96.5785 13.7457L96.5033 13.7701C96.4642 13.7834 96.4254 13.7974 96.3867 13.812C96.339 13.8306 96.2942 13.8559 96.2536 13.8871C96.1643 13.9423 96.0809 14.031 96.0033 14.153C95.9258 14.2749 95.8868 14.4418 95.8868 14.6525V20.7925L101.054 15.4179V14.652C101.054 14.4305 100.993 14.2281 100.87 14.0452C100.748 13.8623 100.532 13.7481 100.22 13.7037V13.1047H104.537V13.7042C104.248 13.7481 104.049 13.8398 103.937 13.9784C103.83 14.1093 103.76 14.2677 103.737 14.4359C103.726 14.4709 103.72 14.5074 103.721 14.5442V23.3135C103.721 23.3525 103.726 23.3886 103.737 23.4218C103.759 23.5881 103.826 23.7408 103.937 23.8793C104.049 24.0179 104.248 24.1096 104.537 24.154V24.753H100.22V24.154C100.454 24.1208 100.626 24.0515 100.737 23.9462C100.839 23.8532 100.923 23.7432 100.987 23.6213C101.009 23.5437 101.026 23.4686 101.037 23.3969C101.048 23.3247 101.054 23.2608 101.054 23.2052V16.9486L95.8868 22.3403V23.2052C95.8868 23.4271 95.9477 23.6271 96.0702 23.8047C96.1921 23.9818 96.4087 24.0984 96.7199 24.154V24.753H92.4029V24.154C92.6921 24.1096 92.8921 24.0179 93.0033 23.8793C93.1141 23.7408 93.1809 23.5881 93.2029 23.4218C93.2144 23.3868 93.2202 23.3503 93.2199 23.3135V14.5442C93.2202 14.5074 93.2144 14.4708 93.2029 14.4359C93.1801 14.2678 93.111 14.1094 93.0033 13.9784C92.8921 13.8398 92.6921 13.7481 92.4029 13.7037V13.1047H92.5697ZM41.0604 27.0886H41.5497C41.6643 27.1486 41.7838 27.194 41.9107 27.2237C42.0375 27.254 42.178 27.2691 42.3331 27.2691H47.7902C47.8721 27.2691 47.9477 27.2647 48.017 27.2559L48.2307 27.2305C48.2882 27.2135 48.3453 27.194 48.4024 27.172C48.4595 27.151 48.5204 27.1232 48.5858 27.0891H49.1858V29.4057H48.6224C48.5087 29.1223 48.378 28.891 48.2307 28.7105C48.1018 28.5471 47.9493 28.4039 47.778 28.2857C47.5746 28.1398 47.3785 28.0501 47.1907 28.0159C47.0375 27.985 46.882 27.9677 46.7258 27.9642L46.0404 27.9515V35.1325C46.0404 35.3213 46.0795 35.474 46.1575 35.5896C46.2341 35.7052 46.3995 35.7979 46.6521 35.8662V36.3296H43.4829V35.8662C43.5249 35.8518 43.566 35.8347 43.6058 35.8149C43.7848 35.7549 43.9092 35.6779 43.979 35.5832C44.0477 35.4886 44.0829 35.3388 44.0829 35.1325V27.9515L43.5195 27.9642C43.3865 27.9648 43.2538 27.9733 43.1219 27.9896C42.9795 28.0071 42.8341 28.0413 42.6877 28.0925C42.459 28.1705 42.237 28.3071 42.0209 28.5047C41.8048 28.7018 41.6316 29.0023 41.5009 29.4057H40.938V27.0886H41.0599H41.0604ZM49.3082 35.8662C49.3653 35.8491 49.457 35.8018 49.5834 35.7247C49.7097 35.6476 49.8419 35.5018 49.9809 35.2871C50.0685 35.158 50.1422 35.02 50.2009 34.8754L52.6731 29.3798C52.698 29.3198 52.7204 29.2554 52.7404 29.1866C52.7609 29.1184 52.7751 29.0496 52.7834 28.9808C52.7999 28.9208 52.8102 28.8564 52.8141 28.7876C52.818 28.7193 52.8199 28.6545 52.8199 28.5945C52.8199 28.5262 52.777 28.4637 52.6916 28.4081C52.6058 28.3525 52.4941 28.3291 52.3551 28.3369H52.2453V27.8735C52.5794 27.8481 52.8546 27.7857 53.0712 27.6871C53.2868 27.5886 53.4599 27.4837 53.5907 27.372C53.6316 27.3462 53.6682 27.3164 53.7009 27.2823C53.7317 27.2498 53.7604 27.2154 53.7868 27.1793H54.3492L57.5555 34.2315C57.8082 34.7813 58.0165 35.1652 58.1794 35.3837C58.3429 35.6023 58.5019 35.7545 58.657 35.8403C58.6648 35.8403 58.6731 35.8427 58.6814 35.8471C58.6906 35.8522 58.6988 35.8588 58.7058 35.8666V36.3301H55.0834V35.8666H55.1204C55.2999 35.8666 55.4429 35.8042 55.5487 35.6798C55.6503 35.5652 55.7182 35.4248 55.7448 35.274C55.7448 35.2486 55.7468 35.2252 55.7507 35.2032C55.7549 35.1801 55.757 35.1565 55.757 35.133C55.753 35.0663 55.7364 35.0009 55.7082 34.9403V34.914C55.7082 34.9052 55.7038 34.8964 55.6955 34.8881C55.6882 34.8579 55.6802 34.8278 55.6716 34.7979C55.6648 34.776 55.6565 34.7547 55.6468 34.734L55.2673 33.8974H51.4863L51.1677 34.6564C51.16 34.673 51.1539 34.6903 51.1497 34.7081C51.1452 34.7258 51.139 34.7429 51.1312 34.7593C51.1133 34.7974 51.0971 34.8361 51.0824 34.8754C51.0655 34.9213 51.0533 34.9686 51.0458 35.0169C51.0373 35.0439 51.033 35.072 51.0331 35.1003V35.1974C51.0331 35.334 51.0887 35.4652 51.1985 35.5896C51.3087 35.714 51.5185 35.8062 51.8287 35.8662V36.3296H49.3082V35.8662ZM53.3707 29.7145L51.8536 33.1637V33.2154H54.9126V33.1764L53.3707 29.7145ZM59.318 27.3208H62.9151C63.8126 27.3208 64.4653 27.4705 64.8731 27.771C65.2809 28.071 65.5463 28.3974 65.6682 28.7491C65.7421 28.9777 65.7793 29.2166 65.7785 29.4569C65.7785 29.9803 65.6497 30.392 65.3931 30.6925C65.136 30.9925 64.8526 31.2159 64.5429 31.3618C64.4352 31.4106 64.3249 31.4536 64.2126 31.4905C64.1063 31.5247 64.0043 31.5549 63.9068 31.5803V31.7096C64.5507 31.7696 65.099 32.0071 65.5521 32.4232C66.0048 32.8393 66.2311 33.3784 66.2311 34.0388C66.2311 34.6993 66.0619 35.1886 65.7233 35.5062C65.3848 35.8232 65.016 36.0427 64.616 36.1623C64.3565 36.2366 64.0901 36.284 63.8209 36.3037C63.5682 36.3208 63.3682 36.3296 63.2214 36.3296H59.1951V35.8662C59.4073 35.832 59.5541 35.7608 59.6355 35.654C59.7175 35.5466 59.7668 35.4286 59.7824 35.3003C59.7909 35.2732 59.7952 35.2449 59.7951 35.2164V28.434C59.7952 28.4055 59.7909 28.3772 59.7824 28.3501C59.7664 28.2209 59.7157 28.0985 59.6355 27.9959C59.5541 27.8886 59.4073 27.8179 59.1951 27.7837V27.3203H59.318V27.3208ZM61.7521 31.9793V35.6476H62.3404C62.438 35.6476 62.556 35.6413 62.6946 35.6281C62.8336 35.6154 62.9765 35.5832 63.1233 35.5315C63.3765 35.4462 63.6068 35.2808 63.8146 35.0359C64.0229 34.792 64.1268 34.4076 64.1268 33.8847C64.1268 33.2666 63.9555 32.814 63.6126 32.5262C63.2702 32.2393 62.8946 32.0657 62.4873 32.0052C62.3533 31.9882 62.2184 31.9796 62.0833 31.9793H61.7521ZM61.7521 28.0027V31.2974H62.2912C62.7399 31.2974 63.1092 31.151 63.399 30.8598C63.6882 30.5681 63.8331 30.1691 63.8331 29.6627C63.8331 29.131 63.7209 28.7515 63.4965 28.5237C63.2721 28.2969 63.0253 28.1481 62.756 28.0798C62.632 28.0466 62.5051 28.0252 62.377 28.0159C62.2671 28.0077 62.157 28.0033 62.0468 28.0027H61.7521ZM67.2716 36.3296V35.8662C67.377 35.8591 67.4785 35.8235 67.5653 35.7632C67.639 35.7208 67.7082 35.6476 67.7731 35.5447C67.8385 35.4418 67.8711 35.3003 67.8711 35.1198V30.0876C67.8711 29.0837 68.1629 28.3588 68.7458 27.9125C69.3292 27.4662 69.9677 27.2262 70.6614 27.1915C70.6996 27.1836 70.7385 27.1795 70.7775 27.1793H71.0165C72.117 27.1793 72.9472 27.4857 73.5063 28.0988C74.0648 28.713 74.3443 29.4057 74.3443 30.1779C74.3443 30.3496 74.3326 30.5315 74.3077 30.7247C74.2833 30.9174 74.2424 31.113 74.1858 31.3101C74.0463 31.8076 73.7858 32.2652 73.4019 32.6808C73.0185 33.0974 72.4477 33.3052 71.6887 33.3052H71.5668C71.3629 33.3052 71.1058 33.2774 70.796 33.2213C70.4858 33.1657 70.1638 33.0306 69.8287 32.8164V35.1198C69.8287 35.3003 69.8882 35.4632 70.0063 35.6091C70.1248 35.7549 70.2819 35.8403 70.4775 35.8662V36.3296H67.2716ZM69.8287 29.1735V31.3618C69.8287 31.6535 69.9497 31.9042 70.1902 32.1145C70.4297 32.3246 70.7346 32.4452 71.0531 32.4559C71.5502 32.4388 71.8643 32.2154 71.9951 31.7862C72.1253 31.3569 72.1907 30.8169 72.1907 30.1647C72.1907 29.513 72.1355 28.9701 72.0253 28.5369C71.9151 28.1032 71.5955 27.8784 71.0653 27.8613C71.0404 27.8613 71.0165 27.8632 70.9916 27.8676C70.9675 27.8719 70.943 27.874 70.9185 27.874C70.6409 27.9169 70.3902 28.0413 70.1653 28.2471C69.9414 28.453 69.8287 28.7618 69.8287 29.174V29.1735ZM75.5068 27.3208H78.5536V27.7842C78.5498 27.7884 78.5451 27.7917 78.5399 27.7939C78.5346 27.7961 78.529 27.7971 78.5233 27.7969C78.5176 27.7967 78.5119 27.7978 78.5066 27.8C78.5013 27.8022 78.4966 27.8054 78.4926 27.8096H78.4804C78.47 27.8099 78.4598 27.8121 78.4502 27.8159L78.3946 27.8354C78.3702 27.8442 78.3414 27.8549 78.3092 27.8676C78.2739 27.882 78.2409 27.9014 78.2111 27.9252C78.1356 27.9794 78.0729 28.0497 78.0277 28.131C77.9707 28.2262 77.9419 28.3545 77.9419 28.5174V33.2666L81.7355 29.1096V28.5174C81.7355 28.3457 81.6907 28.1896 81.6009 28.0476C81.5107 27.9062 81.3521 27.8184 81.1233 27.7842V27.3208H84.2926V27.7842C84.0809 27.8184 83.9341 27.8886 83.8521 27.9959C83.7707 28.1032 83.7219 28.2218 83.7053 28.3501C83.6969 28.3772 83.6928 28.4055 83.6931 28.434V35.2164C83.6928 35.2448 83.6969 35.2731 83.7053 35.3003C83.7219 35.4286 83.7707 35.5471 83.8521 35.654C83.9341 35.7613 84.0809 35.832 84.2926 35.8662V36.3296H81.1233V35.8662C81.2951 35.8403 81.4209 35.7871 81.5029 35.7052C81.5843 35.6237 81.6458 35.5403 81.6863 35.4545C81.7155 35.3495 81.732 35.2414 81.7355 35.1325V30.2935L77.9419 34.4637V35.1325C77.9419 35.3047 77.9872 35.4593 78.0765 35.5959C78.1663 35.733 78.3258 35.8237 78.5536 35.8662V36.3296H75.3843V35.8662C75.5965 35.832 75.7433 35.7608 75.8248 35.654C75.9045 35.5513 75.9552 35.4292 75.9716 35.3003C75.98 35.2731 75.9842 35.2448 75.9838 35.2164V28.434C75.9842 28.4055 75.98 28.3772 75.9716 28.3501C75.9552 28.221 75.9045 28.0987 75.8248 27.9959C75.7433 27.8886 75.5965 27.8179 75.3843 27.7837V27.3203H75.5068V27.3208ZM93.0302 27.3208V27.7842C92.8014 27.8354 92.638 27.9188 92.5399 28.0349C92.4424 28.1505 92.3931 28.3115 92.3931 28.5179V34.952C92.3931 35.1237 92.4321 35.2823 92.5097 35.4281C92.5872 35.574 92.8668 35.6471 93.3477 35.6471H93.4092C93.5155 35.6471 93.6092 35.6618 93.6907 35.692C93.7721 35.7223 93.817 35.8354 93.8253 36.0335C93.8155 36.1697 93.7866 36.3038 93.7394 36.432C93.6862 36.5788 93.6207 36.721 93.5438 36.8569C93.4177 37.1113 93.2638 37.351 93.0848 37.5715C92.917 37.7828 92.7263 37.9747 92.516 38.1437C92.3904 38.2382 92.2573 38.3223 92.118 38.3949C92.007 38.4553 91.8833 38.4884 91.757 38.4915L91.6346 38.5042C91.5448 38.4954 91.4775 38.4745 91.4326 38.4398C91.4021 38.4183 91.3765 38.3906 91.3575 38.3584C91.3385 38.3263 91.3265 38.2906 91.3224 38.2535C91.3187 38.2342 91.3167 38.2146 91.3165 38.1949C91.3165 38.1349 91.3307 38.0749 91.3594 38.0154C91.3877 37.9549 91.4185 37.8867 91.4507 37.8096C91.4582 37.8019 91.4646 37.7932 91.4697 37.7837C91.4731 37.7749 91.4794 37.7623 91.4877 37.7447C91.537 37.6335 91.5858 37.513 91.6346 37.3847C91.6982 37.2165 91.7213 37.0357 91.7019 36.8569C91.6976 36.8128 91.6873 36.7694 91.6711 36.7281C91.6455 36.6227 91.5903 36.5267 91.5121 36.4515C91.4307 36.3701 91.3038 36.3296 91.1331 36.3296H87.4497C87.1965 36.3296 87.0175 36.3637 86.9111 36.432C86.8053 36.5008 86.7521 36.6252 86.7521 36.8052C86.7521 36.9427 86.7643 37.0393 86.7887 37.0949C86.8136 37.151 86.8463 37.1998 86.8868 37.2427C86.8868 37.2515 86.8907 37.2584 86.8989 37.2623C86.9082 37.2672 86.9165 37.2738 86.9233 37.2818C86.9643 37.3418 87.0029 37.4252 87.0399 37.5325C87.0765 37.6398 87.0946 37.8349 87.0946 38.1179C87.0946 38.2384 87.0726 38.3306 87.0272 38.3949C86.9829 38.4593 86.8989 38.4915 86.777 38.4915L86.6546 38.5042C86.5692 38.4848 86.4854 38.4591 86.4038 38.4271C86.2853 38.3842 86.1038 38.2466 85.8589 38.0154C85.7936 37.955 85.7323 37.8904 85.6755 37.8218C85.6044 37.7375 85.535 37.6518 85.4672 37.5647C85.3775 37.4447 85.2897 37.3159 85.2043 37.1788C85.1213 37.0459 85.0458 36.9084 84.978 36.7671C84.9229 36.6434 84.8758 36.5164 84.837 36.3867C84.8018 36.2722 84.7833 36.1532 84.7819 36.0335C84.7819 35.8618 84.8253 35.7545 84.9107 35.7115C84.996 35.6686 85.1082 35.634 85.2472 35.6086C85.2637 35.6084 85.2801 35.6061 85.296 35.6018C85.3121 35.5977 85.3287 35.5956 85.3453 35.5954C85.4672 35.5784 85.5794 35.5569 85.6814 35.531C85.7833 35.5057 85.8838 35.454 85.9814 35.3769C86.2263 35.1881 86.5058 34.7266 86.8194 33.993C87.1336 33.2593 87.6253 31.9315 88.2941 30.0096C88.4326 29.6242 88.5326 29.332 88.5941 29.1349C88.655 28.9374 88.6858 28.7569 88.6858 28.594C88.6858 28.3627 88.6185 28.1671 88.4838 28.0086C88.3487 27.8496 88.0165 27.7745 87.4863 27.7832V27.3198H93.0302V27.3208ZM90.4355 28.0027C90.2804 28.0281 90.1194 28.112 89.9521 28.2535C89.7853 28.3949 89.6121 28.5862 89.4321 28.8262C89.1468 29.2213 88.8672 29.7101 88.5941 30.2935C88.3174 30.8842 88.0743 31.49 87.8658 32.1081C87.6692 32.6659 87.5077 33.2355 87.3824 33.8135C87.2638 34.3666 87.2048 34.8413 87.2048 35.2354C87.2048 35.3988 87.2458 35.5081 87.3272 35.5637C87.4087 35.6198 87.5389 35.6476 87.7189 35.6476H90.4355V28.0027ZM97.178 27.3208V27.7842C96.9741 27.8096 96.8316 27.874 96.7502 27.9769C96.6713 28.0728 96.6205 28.1886 96.6033 28.3115C96.587 28.3614 96.5786 28.4136 96.5785 28.4662V31.0013H97.6677C98.6136 31.0013 99.3214 31.1471 99.7907 31.4388C100.259 31.7305 100.588 32.0481 100.776 32.3915C100.915 32.6574 100.998 32.9086 101.027 33.1442C101.055 33.3803 101.07 33.554 101.07 33.6657C101.069 33.7989 101.061 33.932 101.045 34.0642C100.956 34.631 100.674 35.1501 100.2 35.6218C99.7277 36.094 99.0136 36.3296 98.0589 36.3296H94.0087V35.8662C94.237 35.8403 94.3921 35.7588 94.4736 35.6223C94.555 35.4842 94.5999 35.3388 94.6082 35.1842C94.6167 35.1571 94.6208 35.1287 94.6204 35.1003V28.4662C94.6202 28.4137 94.612 28.3615 94.596 28.3115C94.5786 28.1887 94.5278 28.0729 94.4492 27.9769C94.3677 27.874 94.2248 27.8096 94.0209 27.7837V27.3203H97.178V27.3208ZM96.5785 31.6837V35.6476H97.215C97.6799 35.6476 98.0853 35.5227 98.4321 35.274C98.7789 35.0252 98.9521 34.5106 98.9521 33.7301C98.9521 33.1462 98.8302 32.6593 98.5853 32.2691C98.3404 31.8788 97.8794 31.6837 97.2028 31.6837H96.5785ZM104.533 27.3208V27.7842C104.32 27.8184 104.174 27.8886 104.092 27.9959C104.01 28.1032 103.961 28.2218 103.945 28.3501C103.937 28.3772 103.933 28.4055 103.933 28.434V35.2164C103.933 35.2448 103.937 35.2731 103.945 35.3003C103.961 35.4286 104.01 35.5471 104.092 35.654C104.174 35.7613 104.32 35.832 104.533 35.8662V36.3296H101.363V35.8662C101.403 35.8652 101.441 35.8588 101.479 35.8471C101.525 35.834 101.568 35.8143 101.608 35.7886C101.708 35.7372 101.794 35.6624 101.858 35.5705C101.936 35.4676 101.975 35.3218 101.975 35.133V28.5174C101.975 28.3291 101.936 28.1827 101.858 28.0798C101.794 27.9878 101.708 27.9128 101.608 27.8613C101.568 27.8356 101.525 27.8158 101.479 27.8027C101.441 27.7911 101.403 27.7847 101.363 27.7837V27.3203H104.533V27.3208Z" fill="#282C35"/>
<path fill-rule="evenodd" clip-rule="evenodd" d="M36.5417 35.9979C36.5324 36.1106 36.549 36.0515 36.5671 36.2013C36.5037 36.2867 36.5168 36.3398 36.3983 36.3389L35.9388 36.3096L35.9437 36.152C35.9524 35.9837 35.8642 36.0808 35.869 35.8998L35.8739 35.8013C35.89 35.4774 36.069 35.5867 36.2393 35.3291C36.372 35.4198 36.651 35.4594 36.6398 35.7008C36.6266 35.893 36.5417 35.9413 36.5417 35.9979ZM36.6183 34.3998C36.8978 34.3423 37.2573 34.1389 37.5207 34.153C37.889 34.173 38.2046 34.6886 38.1846 35.1423L38.1754 35.2974C38.1607 35.6111 37.7412 36.2013 37.4993 36.2086L37.75 35.2633C37.29 34.9335 37.6866 34.612 36.7071 34.5476L36.6183 34.3998ZM22.2666 31.5291C22.2056 32.5759 22.3924 32.7618 22.6256 33.4608C22.5217 33.4993 22.4334 33.5398 22.2851 33.5272L22.1593 33.5213C21.9495 33.5115 21.9056 32.7574 21.9154 32.5042L21.9344 32.1028C21.9524 31.7476 22.1783 31.2135 22.3724 31.0833C22.4339 31.2823 22.2798 31.293 22.2666 31.5291ZM26.3861 29.3242L26.4198 29.2462L27.2524 29.234C27.7471 29.2252 29.171 30.0306 29.4749 30.2735C29.8749 30.5935 31.2934 30.9515 32.0046 30.9915L32.51 31.0535L33.7261 30.954C33.7583 31.1589 33.73 31.2223 33.7846 31.5072C33.8466 31.8145 33.9129 31.7784 33.9807 32.0584C34.0524 32.3754 34.3022 32.8252 34.2812 33.2462L34.2749 33.4394C34.2666 33.6218 34.0134 34.4096 34.0017 34.5818L34.0007 34.6833C33.9807 35.1515 34.5656 35.1706 34.5534 35.4228L34.5427 35.6111C34.5232 35.9769 34.4744 35.7042 34.5007 36.232C34.5232 36.5545 34.3505 36.4145 34.1105 36.5433C34.0598 36.5096 34.052 36.4867 33.951 36.4808L33.8651 36.4754L32.31 36.575L31.6749 36.5423L31.6924 36.3389C31.6983 36.1696 31.8885 35.7998 31.891 35.6515C31.9378 34.7213 31.6339 34.2286 30.9993 34.0501C29.9422 33.7535 29.731 34.5608 29.2563 34.5233C29.0983 34.5169 28.3734 34.0603 28.2232 33.9642C27.9042 33.7618 27.4056 33.6974 27.2271 33.3764C26.9295 32.8384 27.0515 31.0876 26.7744 30.5125L26.7895 30.3086L26.3861 29.3237V29.3242ZM10.9988 24.0872C12.031 24.1515 12.4837 24.0828 13.1422 24.7779C13.3842 25.0379 13.6315 25.2794 13.7739 25.6203C13.8876 25.8686 14.0671 26.475 14.051 26.8398C14.051 26.8476 13.9032 27.153 13.8876 27.4828C13.5422 28.0306 13.5022 28.3603 12.9895 28.7886C12.7563 28.9911 11.9242 29.3603 11.5242 29.3384L10.6905 29.2794C10.2627 29.255 9.74513 28.7964 9.53927 28.5154C9.38122 28.3057 9.27878 28.1628 9.15878 27.932C9.00464 27.6394 9.03683 27.4828 8.89635 27.2076L8.89342 26.3589C8.89342 25.9111 9.32269 25.1067 9.53927 24.9072C9.70659 24.755 9.89098 24.5745 10.0661 24.4433C10.3232 24.2633 10.4671 24.3233 10.6988 24.1618L10.8617 24.1706L10.9983 24.0872H10.9988ZM21.2476 30.3594C21.29 30.2642 21.3188 30.2686 21.3227 30.1559C21.3544 29.4662 21.3944 28.7725 21.4388 27.9145C21.4895 27.0828 21.311 26.5047 21.2998 25.7891C21.6403 26.015 21.7598 26.1189 22.29 26.1613L22.4032 26.272L23.1178 26.3725C23.3646 26.3998 24.0715 26.0945 24.3554 26.0413C24.5066 26.1569 24.772 26.413 24.9617 26.4257C25.0695 26.4301 25.0154 26.3998 25.1763 26.393C25.131 26.5559 24.1763 27.1247 23.9695 27.2891C23.7724 27.4389 23.0598 28.1574 22.9237 28.353C22.771 28.5964 22.631 28.7198 22.4954 29.0067C22.3276 29.3496 22.4154 29.4891 22.0934 29.6881C21.6212 29.9691 21.3944 30.6628 21.1232 30.853L21.2481 30.3594H21.2476ZM36.5324 25.5569C36.5203 25.7437 37.0583 26.3701 37.1817 26.5657C37.4393 27.0447 37.4129 27.2837 37.3817 27.9672L37.2837 28.1628C37.0446 28.1296 36.8851 27.2423 36.6183 27.2184C36.5168 27.2076 36.4037 27.2711 36.3988 27.4018L36.3949 27.4603C36.3895 27.4994 36.9627 28.5252 36.9432 29.0008L36.9227 29.4486C36.9217 29.5354 36.7149 30.3223 36.669 30.452C36.5656 30.7935 36.4212 31.0072 36.4042 31.472L36.3066 31.6184L36.2773 32.0072C36.2295 32.0989 36.1944 32.095 36.1842 32.2076L36.1754 32.4115C36.1627 32.674 36.2388 33.0408 36.2559 33.314C36.2705 33.5755 36.5324 34.0369 36.2607 34.0213C36.1998 34.0203 36.0637 33.8589 35.9773 33.8018L35.7646 33.8945L35.7559 34.0369C35.75 34.2086 35.9871 34.3525 36.1603 34.3667L36.1554 34.4662C35.7827 34.5472 35.5388 34.9686 35.5163 35.534L35.4871 35.9208C35.4749 36.2174 35.6905 36.2545 35.43 36.3296C35.4251 36.0574 35.2749 36.0281 35.2837 35.8696L35.2983 35.5135C35.3081 35.4013 35.3422 35.4081 35.3871 35.3223L35.4612 34.8257C35.5207 34.5228 35.1768 34.5955 35.192 34.3569V34.2998C35.2193 33.935 35.3529 33.8159 35.3607 33.5111L35.3973 32.7584C35.4534 31.8501 35.1276 31.8901 35.1973 30.9925C35.2715 30.2052 35.5612 29.673 35.5851 29.1584C35.6242 28.5745 35.4612 28.0501 34.9744 28.0218C34.8183 28.015 34.691 28.394 34.6442 28.5896C34.5007 29.1398 34.6085 28.8384 34.3656 29.2335L34.3466 29.5823C34.1378 29.9189 34.3968 29.8174 34.0554 29.935C33.9807 29.9691 33.6944 30.1076 33.652 30.1486L33.192 30.0608C33.0388 30.0301 32.87 30.1418 32.7676 30.133C31.8339 30.0862 30.3905 28.9472 29.6037 28.5803C29.0149 28.2994 28.6915 28.0511 28.0056 27.8242C27.6193 27.695 27.5037 27.7013 27.0481 27.6125C26.5212 27.5023 26.5207 27.6291 26.0412 27.6194L25.2285 27.9013C25.2139 28.2345 25.131 28.1637 25.1222 28.2428C25.1193 28.3984 25.1866 28.394 25.2622 28.4486L25.2246 28.8028C25.649 29.1164 26.0378 29.3603 26.2344 29.9374C26.3315 30.2335 26.6607 31.472 26.5471 31.7398L26.63 31.9584L26.7203 33.1637C26.8588 33.4613 26.7515 33.6213 27.0339 33.8184C27.2749 33.9779 27.4242 33.9833 27.6315 34.1696L27.6627 34.1208L28.8603 34.8389L29.4846 34.9437C29.47 35.2037 29.3495 35.3755 29.1329 35.3745C29.0563 35.0686 27.5095 34.2213 27.0383 34.1886L26.8881 34.0267C26.3642 33.9984 26.4803 34.0496 26.27 33.6881C26.1403 33.4315 26.0281 33.3945 25.9237 33.0247C25.809 32.5984 25.5334 31.8989 25.2139 31.6891C24.6842 31.3506 24.3734 31.7208 23.8939 31.0672C23.7163 30.8306 23.612 30.7501 23.5149 30.4237C23.4934 30.332 23.2832 29.6501 23.2832 29.6379L23.2876 29.5354C23.3032 29.2501 23.6583 28.475 23.7578 28.1754C23.9344 27.653 24.2685 27.595 24.6222 27.2984C25.0563 26.9311 26.1671 26.3033 26.9066 26.3559L27.0324 26.2598C27.611 26.2979 27.812 26.1028 28.3451 26.1389C28.8305 26.1789 29.3198 26.2033 29.8085 26.2291C30.7339 26.294 31.7246 26.2086 32.4973 26.0359C33.1593 25.8828 34.0846 25.3637 34.4739 24.8891C34.6759 24.6355 35.3422 24.8359 35.6905 24.9281C36.0612 25.0325 36.7022 25.1101 37.0173 25.1379C37.1632 25.1437 37.1198 25.1003 37.3129 25.1067C37.3227 25.1842 37.7915 25.6642 37.7529 26.2345L37.7432 26.4369C37.7359 26.594 37.6905 26.5725 37.5768 26.5798C37.531 26.3267 36.9524 25.3881 36.752 25.3637C36.6642 25.3637 36.5324 25.5081 36.5324 25.5569ZM9.63342 30.1198C8.69878 30.0554 8.15537 29.8042 7.67878 29.1311C7.36854 28.6852 6.99878 27.4633 7.11586 26.6969C7.24513 25.8676 7.10903 25.9647 7.35244 25.1867C7.45781 24.8359 7.69878 24.3667 7.89098 24.1515C8.04025 23.9911 8.06415 23.8545 8.23635 23.6906C8.40464 23.5203 8.43 23.5779 8.60708 23.3506C8.64513 23.3213 9.52708 22.8335 9.54757 22.8379L9.63049 22.8413C9.74513 22.8491 10.4002 23.1013 10.5027 23.1476C10.5973 23.2013 11.2442 23.4935 11.3207 23.4994L11.3149 23.6033C10.5295 23.5515 9.77244 24.0369 9.34561 24.4881C8.98074 24.8847 8.37244 25.9164 8.53147 26.754C8.64952 27.3876 8.58171 27.4759 8.77537 28.0579C8.84561 28.2754 9.22805 28.7779 9.37683 28.9652C9.83781 29.5525 10.6173 29.7233 11.4149 29.7823C11.2812 30.0042 10.5139 30.1745 10.1759 30.1486L9.63342 30.1194V30.1198ZM31.5598 24.8891C31.9422 24.9145 32.2295 24.6818 32.7446 24.7115L32.8783 24.7223C32.8032 24.9886 31.6978 25.5174 31.3798 25.6159C30.7749 25.8008 30.0944 25.8511 29.4559 25.8042L29.2803 25.8262L29.2715 25.7569L30.0315 25.4125C30.3227 25.4125 30.6266 25.2886 30.8368 25.2062C30.9715 25.1437 31.469 24.9574 31.5598 24.8891ZM14.7051 22.3623L14.8661 22.3745C14.8778 22.3759 15.5602 22.5696 15.6363 22.5964C15.8285 22.6647 16.3193 22.7013 16.5329 22.7281C17.3027 22.8335 16.9017 23.4257 17.3871 23.8642C18.0651 24.473 17.8759 24.1013 18.2602 25.0633C18.4305 25.5003 18.5773 26.272 18.551 26.9242L18.4846 28.1242C18.4481 28.8989 17.8544 30.4389 17.572 30.9594C17.2227 31.5901 16.5568 32.6179 16.0563 33.0033C15.8885 33.1496 15.8124 33.2925 15.6207 33.4276C15.4344 33.5681 15.2876 33.6257 15.1095 33.7535C14.6412 34.0818 14.5222 34.1047 13.99 34.2979C13.7866 34.3779 13.7622 34.4794 13.4295 34.5589C13.2832 34.5876 12.9485 34.6881 12.8002 34.7311C12.6734 34.7842 11.5359 34.9491 11.4056 34.9437L11.3207 34.9408C11.1934 34.933 11.152 34.8857 11.0788 34.8257C10.3949 34.9686 9.35 34.3915 9.07391 34.455C9.01537 34.333 8.46317 34.1164 8.33488 34.0574C8.01781 33.9374 7.83537 33.7984 7.59732 33.6086C7.0622 33.1769 6.83147 32.9364 6.4022 32.4194C5.83049 31.7481 5.13634 30.1559 4.96659 29.0301C4.82171 28.0311 4.87293 27.873 4.92805 26.754C4.96708 25.8798 5.24513 25.3072 5.45293 24.6818C5.61195 24.2306 6.07488 23.3891 6.3461 23.1028C6.51049 22.9272 7.4183 21.9467 7.57634 21.9564C7.87635 21.9759 7.89293 22.1369 8.23049 22.1789L8.93537 22.4925C8.91732 22.6872 8.43 22.992 8.27683 23.0584C8.17781 23.1218 7.72903 23.5735 7.63586 23.6974C7.5461 23.8174 7.23196 24.353 7.16708 24.5135C7.06952 24.7067 6.99635 24.7394 6.95488 24.9823C6.8983 25.2545 6.98074 25.1496 6.80513 25.4272C6.79683 25.6803 6.73196 25.8423 6.70366 26.0881C6.68513 26.2262 6.71439 26.5964 6.70952 26.7125C6.70074 27.153 6.82415 27.4389 6.80269 27.9798C7.0583 28.4979 7.06561 28.8696 7.41342 29.4589C7.69439 29.9242 7.94708 30.3028 8.34025 30.6501C9.08171 31.3184 9.99244 31.7945 11.2778 31.8837L11.4022 31.7876C12.0315 31.8291 12.7866 31.7267 13.1905 31.4559C13.5788 31.2033 14.2793 30.9276 14.5461 30.5481C14.71 30.3164 14.8881 30.2642 15.0949 29.9374C15.251 29.6857 15.4154 29.4315 15.5637 29.1896C15.7739 28.8945 16.1446 27.7623 16.1802 27.2189C16.2183 26.3945 16.1276 25.0076 15.792 24.4706C15.6042 24.1667 15.5193 23.7169 15.2959 23.3896C15.152 23.1813 14.6934 22.6189 14.7056 22.3618L14.7051 22.3623ZM34.311 22.1057C34.71 22.1374 35.0046 21.8545 35.2349 21.6203C35.4968 21.3276 35.7285 21.2535 36.1285 21.1735L36.3622 21.3345L36.4749 21.2076L37.7203 21.2686C37.7285 21.2686 38.0593 21.4218 38.1271 21.4389L38.1207 21.5989C37.729 21.5794 37.3173 21.7847 36.9832 21.7252L36.3573 21.6203C36.2773 21.5735 36.2812 21.5242 36.1949 21.5213L35.9773 21.5111C35.811 21.5003 35.9432 21.6301 35.6763 21.6394C35.6485 21.9159 35.5446 21.893 35.5349 22.1369C35.529 22.252 35.5851 22.3418 35.6822 22.3462L35.7285 22.3506C35.8744 22.3574 35.7973 22.252 35.9432 22.2608C36.1178 22.2711 36.2056 22.3798 36.5251 22.3945C36.7983 22.4076 36.9124 22.4564 37.1144 22.4842C37.5349 22.5594 37.8412 22.3803 38.2081 22.3998C38.3037 22.4023 38.3266 22.6242 38.3627 22.712L37.7476 22.9472C37.2403 22.9437 36.9066 23.0579 36.432 22.9247C36.2393 22.8676 35.9622 22.8447 35.7827 22.8086C35.4364 22.7233 35.532 22.833 35.1983 22.815L34.8617 23.3823C35.0051 23.6701 36.5476 23.8506 36.869 23.8194L36.8739 23.8794L38.0105 23.7789C38.0593 23.8369 38.0934 23.8369 38.0866 23.9472V24.0076C38.0656 24.4433 36.2134 24.1998 35.9271 24.1267C35.6281 24.0486 35.0422 23.9813 34.8539 23.8447C34.7251 23.7618 34.5607 23.6906 34.4076 23.6033C34.2354 23.5072 34.1529 23.294 34.0451 23.2881L33.9963 23.2842C33.6954 23.2706 33.4788 23.4052 33.0724 23.4403C32.692 23.4623 32.5437 23.5515 32.0983 23.5169C31.4061 23.473 30.7305 23.6467 30.1217 23.5935C29.5442 23.5515 28.7759 23.8194 28.3632 23.9813C27.812 24.1779 27.2832 24.4379 26.7924 24.5886C26.4363 24.7037 26.1451 24.8618 26.4827 24.2818C26.6534 23.9823 26.6837 23.7618 26.9378 23.5735C27.2832 23.3384 27.9437 22.793 28.3281 22.7115C28.9368 22.5803 29.3505 22.3574 30.092 22.3418C30.7637 22.3145 31.4515 22.3759 32.1124 22.413C32.2207 22.4194 32.2203 22.4555 32.3163 22.4837L32.4417 22.3803C32.9846 22.4194 33.9832 22.3413 34.311 22.1057ZM26.7622 21.6203C26.7817 21.3911 27.0227 20.8369 27.1037 20.5667C27.2222 20.1433 27.091 19.7223 27.3842 19.5115L27.4529 19.7135L27.4363 20.0086C27.5705 20.2769 27.5368 20.5306 27.5159 20.9267C27.4339 22.4891 26.8076 23.6252 26.0412 24.4491C25.6324 24.894 25.2442 25.1691 24.7285 25.4657C24.3783 25.675 24.2481 25.5735 23.9071 25.7647C23.792 25.8423 23.1207 25.8925 22.929 25.8511L22.5217 25.7389V25.6667L22.7368 25.5886C23.7578 25.6467 24.6603 24.7964 25.2359 24.2306C25.6324 23.8296 26.6905 21.6862 26.7627 21.6203H26.7622ZM37.332 19.0413C37.5949 19.0169 37.7144 19.7389 37.7003 20.0652C37.7417 20.1628 37.7817 20.1628 37.7754 20.2754L37.7432 20.7213C37.7315 20.9584 37.229 20.8369 37.1139 20.8315L36.5251 20.7876C36.5007 20.5647 36.369 19.6335 36.3827 19.4306L36.3973 19.2818C36.4022 19.1662 36.432 19.175 36.4905 19.1135L37.332 19.0413ZM17.6637 23.6589C18.35 23.6979 18.452 23.7023 19.0842 23.6345C19.611 23.5779 19.8822 23.3857 20.3427 23.2833C20.7388 23.2018 21.9929 22.2291 22.3676 21.9272C22.4724 21.8413 23.1276 21.1355 23.1949 21.0086C23.2939 20.8467 23.4651 20.6798 23.5939 20.532C23.7398 20.3813 23.8071 20.1647 23.929 19.9594C24.271 19.3642 24.8637 18.1506 24.9715 17.292C25.0407 17.2974 25.57 17.5125 25.6203 17.5613C25.729 17.6598 25.5646 18.1628 25.5081 18.273C25.3324 18.595 25.3983 18.7628 25.2598 19.0174C25.1554 19.2208 25.0788 19.4403 24.9749 19.6555C24.8876 19.835 24.7929 20.1433 24.6929 20.3418C24.6003 20.5345 24.4539 20.7003 24.3437 20.8886C24.0656 21.3657 23.9588 21.5613 23.6578 22.0018C23.5612 22.1408 22.9081 22.8447 22.7963 22.9364C22.5012 23.1735 22.0729 23.4359 21.8354 23.6798C21.4461 24.1042 20.0539 24.4174 19.2676 24.355H19.229C19.0924 24.3472 18.2563 24.1886 18.1617 24.1198C17.9578 23.9911 17.4154 23.7223 17.3807 23.4872L17.6637 23.6589ZM15.1598 18.3769C15.4749 18.3925 16.61 17.7515 16.7793 17.5506C17.0695 17.1955 17.1271 17.3876 17.4168 16.9164C17.5446 16.7164 18.1173 16.7994 18.3046 16.9233C18.1993 17.3023 18.0432 17.3681 17.8398 17.5833C17.7295 17.695 17.7261 17.7847 17.5949 17.892C17.4715 17.9901 17.3544 17.9901 17.2432 18.0642C16.8963 18.353 17.071 18.273 16.6105 18.4974C16.4071 18.6018 16.19 18.8584 16.0178 18.9286C15.8871 19.0033 14.6266 19.3715 14.4754 19.3911C14.1924 19.4096 13.7568 19.434 13.5505 19.4306C13.3554 19.4306 13.2666 19.4096 13.072 19.4306C12.83 19.4667 12.8866 19.355 12.7124 19.3247L11.9705 19.2125C11.6422 18.9433 11.3363 18.954 10.9451 18.5637C10.7285 18.3462 10.2944 17.9574 10.2793 17.5672C10.5885 17.613 10.9451 18.7072 12.0724 18.7857C12.1368 18.8511 12.1368 18.8852 12.2281 18.8925L12.5685 18.9155L13.0256 18.9257L13.072 18.952C13.2442 18.9637 14.0329 18.7857 14.2232 18.7745C14.5924 18.7437 14.8978 18.5652 15.1598 18.3769ZM21.3705 16.9637C22.6305 17.0437 22.5061 16.5759 21.9793 17.9301C21.8842 18.1628 21.1768 19.4437 21.05 19.5803C20.5085 20.2018 19.1661 21.6925 18.2295 21.6315L18.0885 21.8174C17.9461 21.8174 17.3495 22.0184 17.0817 22.0662C16.7959 22.1169 16.2988 22.155 15.9724 22.1472L15.8554 22.0281C14.8529 21.9706 13.4963 21.2867 13.4749 20.0784L13.5598 20.0828C13.5871 20.2915 14.031 21.0047 14.1573 21.0984C14.5105 21.3657 14.8227 21.415 15.2154 21.4379C16.0046 21.4915 16.3349 21.5681 17.1344 21.2964C17.3027 21.2403 17.4807 21.2511 17.609 21.1813C17.7583 21.1037 17.8334 21.0359 17.9944 20.9496C18.2603 20.8228 18.5505 20.6764 18.8349 20.6179C18.8754 20.2208 19.2685 20.174 19.5246 19.7779C19.6534 19.5715 19.79 19.5911 19.932 19.415C20.0656 19.2272 20.1076 19.1876 20.2402 18.975C20.4412 18.6437 20.6515 18.3701 20.829 18.0042C20.9934 17.6798 21.1998 17.2491 21.3705 16.9637ZM32.2354 15.0535C32.3607 14.7062 33.3368 14.9203 33.6437 14.7828C33.9246 14.6633 34.2549 13.915 34.5681 13.9472C35.0344 13.9706 35.4251 14.2447 35.6466 14.2676L35.9734 14.2872C36.1768 14.2974 36.3085 14.1003 36.4485 14.1135C36.6695 14.1242 36.8407 14.6828 36.8973 14.9652C37.0446 15.7564 36.929 15.4184 36.8983 16.0515C36.8944 16.1047 36.9725 16.1974 37.05 16.2052C37.1646 16.2111 37.1734 16.192 37.2637 16.174L37.3037 15.5189C37.3173 15.2237 37.8427 15.5725 37.8295 15.812L37.8222 16.012C37.8139 16.1247 37.7144 16.3618 37.6778 16.4545C37.7315 16.5364 37.7203 16.6008 37.8305 16.6072C38.0729 16.6252 38.4666 16.2545 38.61 16.2598C38.7149 16.2647 39.1588 16.7442 39.2461 16.8569C39.4046 17.0764 39.4364 17.5545 39.4505 17.9179C39.4651 18.354 39.1837 18.553 38.9295 18.6706C38.8588 18.7067 38.1422 18.9886 38.1271 18.9867C38.0232 18.9779 37.7661 18.7145 37.3939 18.6862C37.0881 18.6579 36.8261 18.7037 36.4622 18.6745H36.3768C36.2627 18.6696 36.1807 18.494 36.1437 18.4159C36.4534 17.9613 37.0144 17.8852 37.0583 16.9115L37.0744 16.6686C37.0842 16.5428 37.05 16.5115 36.9524 16.5003C36.6466 16.4842 36.6646 17.5428 35.5222 17.4686L35.3081 17.454C35.1393 17.4467 34.7666 17.2237 34.4807 17.1964L34.0163 17.172C34.0524 16.6184 34.1817 16.174 33.9763 15.8062C33.811 15.5101 33.51 15.2286 33.1139 15.2033L32.9993 15.0881C32.5305 15.0696 32.1856 15.1057 31.8973 15.332C31.6032 15.5637 31.4515 16.3564 31.4163 16.3564C31.3173 16.3506 31.1534 16.1857 31.0846 16.1301L31.1759 15.332L32.2354 15.054V15.0535ZM5.70903 14.1657C5.26025 13.5574 5.00903 12.813 5.39927 11.8852C5.55683 11.5037 6.4383 10.4501 6.81878 10.4745C6.99391 10.4798 7.36513 10.955 7.47586 11.1052C7.62854 11.3072 7.6983 11.8125 7.74903 12.1345L7.87098 12.1428C8.0983 12.1555 8.1461 12.5915 8.12513 12.9086C8.32805 13.3145 8.16756 13.4472 8.43 13.8194C8.52854 13.9691 8.80025 14.4067 8.89635 14.4984C9.09635 14.6872 9.26561 14.8959 9.48513 15.1047C9.5222 15.133 10.1583 15.4306 10.2554 15.4711C10.7593 15.6642 11.4939 15.8447 12.1242 15.753C12.4837 15.7111 12.771 15.7179 13.0817 15.6428C13.251 15.6076 13.8388 15.3286 13.8476 15.332H13.8846C14.0871 15.3496 14.4885 15.715 14.71 15.7964C14.67 16.0579 13.97 16.174 13.7407 16.2052C13.3768 16.273 12.9549 16.3111 12.5768 16.3018C12.1671 16.2959 11.9734 16.3901 11.4559 16.2623C11.2007 16.1955 10.6905 16.1779 10.3178 16.1101C9.84074 16.0242 8.87879 15.2886 8.6222 14.9398C8.33439 14.5476 7.75927 13.5267 7.78659 12.8428C7.64415 12.8818 7.61439 12.9998 7.60366 13.2315L7.58317 13.633C7.55537 14.1979 8.29195 15.2325 8.58171 15.5364C8.69878 15.6569 9.20122 16.1525 9.32269 16.2306C9.71391 16.4915 9.88122 16.2706 9.84074 17.1345L9.71878 17.1311C9.66317 17.1267 8.99195 16.7286 8.97586 16.7286L8.85488 16.7169C8.80366 16.5662 8.5661 16.5701 8.40317 16.4472C8.25586 16.3194 8.15439 16.2623 7.97635 16.1525C7.69207 15.9665 7.4168 15.7671 7.15147 15.555C6.88317 15.3652 6.60756 15.1672 6.35342 14.9403C5.98122 14.5998 5.99439 14.5389 5.70952 14.1657H5.70903ZM2.21781 13.2398C2.12317 13.232 2.12708 13.1994 2.06171 13.1262C1.56512 13.1008 0.796344 12.5437 0.811954 11.9994C0.975369 12.1008 1.07537 12.2028 1.21195 12.2769C1.43098 12.4203 1.46073 12.3384 1.69195 12.4345C1.8983 12.5164 2.37195 12.7896 2.36122 13.0398L2.35 13.2447L2.2183 13.2398H2.21781ZM34.5042 12.5374C34.8368 12.032 34.649 11.5467 35.369 11.3833C35.691 11.6145 35.5724 12.1369 35.8842 12.4433C36.1364 12.6833 36.33 13.0213 36.6339 13.2559C37.1095 13.6257 37.851 14.3096 37.8261 15.1589L37.2573 14.8384C37.1968 14.4647 36.9012 13.7428 36.5168 13.7174L36.3827 13.7018C36.2705 13.6979 36.0837 13.9403 35.8685 13.9194L35.8305 13.9155C35.5373 13.9033 35.2076 13.5325 35.0032 13.5242L34.9276 13.5218L34.1661 13.574L34.5042 12.5379V12.5374ZM21.0602 16.4984C20.7627 16.3906 19.8193 16.4672 19.429 16.4481C18.849 16.4072 18.289 16.4569 17.7461 16.2872C17.3905 16.1784 17.492 16.292 17.0666 16.0706C17.0607 16.0681 16.3251 15.893 16.2627 15.8735C16.0407 15.8213 15.7295 15.6296 15.5588 15.594C15.0505 15.4911 15.2554 15.5164 14.8661 15.3291C14.6535 15.2146 14.4455 15.0918 14.2427 14.9608C14.0871 14.8559 13.811 14.5808 13.69 14.5076C13.1759 14.1662 13.0256 14.075 12.6681 13.5633C12.5266 13.3711 12.3534 13.1833 12.2315 12.9886C12.1154 12.7808 12.0276 12.4735 11.8983 12.3496C11.6812 12.1369 11.349 11.3589 11.2978 10.9555C11.5105 11.1525 11.929 11.833 12.1529 12.1335C12.3007 12.3315 12.4232 12.5335 12.5929 12.692C12.6612 12.7569 12.9954 13.1501 13.0588 13.2398C13.3554 13.6374 13.6998 13.9623 14.1651 14.135C14.5544 14.2925 15.0207 14.692 15.4334 14.8715C16.4105 15.2947 17.4743 15.4793 18.5368 15.4101C19.1359 15.3774 19.5637 15.3476 20.0817 15.2384C20.4334 15.1676 21.3188 15.0442 21.6846 15.0794L22.5144 15.1798L23.2744 15.1818H23.3134C23.612 15.2037 23.5446 15.3111 23.9417 15.3291C24.0695 15.3325 24.3734 15.5111 24.5037 15.573C24.7622 15.6867 24.8637 15.7491 25.0851 15.855C25.3188 15.9672 25.3417 16.0608 25.5607 16.1959C25.9949 16.4515 27.0485 17.4711 27.1222 17.9906C26.9559 17.9535 26.7681 17.6911 26.6832 17.5613C26.5949 17.433 26.3124 17.2847 26.1515 17.2257C25.7749 17.0613 25.4354 16.8433 24.9929 16.7106C24.6812 16.6037 24.6398 16.6037 24.3593 16.4847C24.0471 16.3511 24.0661 16.4374 23.6763 16.4072C23.1768 16.3779 22.7095 16.455 22.2851 16.4189H22.2378L21.0602 16.4979V16.4984ZM29.189 14.6072C29.2407 13.6691 29.6856 12.8169 30.092 12.3403C30.4202 11.9569 31.3554 11.3701 32.0403 11.5208L32.4529 11.6115C32.7115 11.8301 33.0412 11.9018 33.1846 12.2486C32.8939 12.4111 32.4998 12.7252 32.3373 13.0398C32.0822 13.5579 32.3134 14.0779 32.4378 14.4115C32.3881 14.4452 31.6446 14.7628 31.5598 14.7833C31.0159 14.9403 31.0476 14.5281 30.712 14.5042L30.5456 14.4955C30.3476 14.4779 30.0944 14.9657 30.0798 15.2672C30.0583 15.6691 30.5485 15.8169 30.7588 15.955C30.7344 16.4979 31.0232 16.7852 31.432 16.8047C31.7407 16.8247 31.8281 16.4672 31.8456 16.0769C31.9149 15.973 32.172 15.6433 32.2944 15.655L32.712 15.6867C32.912 15.6974 33.3978 16.153 33.3881 16.3794L33.3876 16.4759C33.3651 16.9735 32.9456 17.3984 32.5354 17.3764L32.0329 17.3481C31.911 17.3384 31.3798 16.9028 31.3061 16.9028C31.2129 16.8955 31.2432 16.9125 31.132 16.932C31.0603 17.215 31.1027 17.5545 30.971 17.7335C30.9212 17.8091 30.6446 18.2198 30.6446 18.2584L30.6417 18.313C30.632 18.4715 31.0427 19.1335 31.3139 19.152C31.9383 19.1959 32.2329 19.1184 32.6788 18.8955C32.8817 18.7969 33.6627 18.453 33.7549 18.313C34.0656 18.3301 34.0324 18.2252 34.2173 18.2355L34.2988 18.2408C34.5344 18.2525 34.7671 19.8486 34.7446 20.2798L34.7388 20.4242C34.6759 21.5925 34.4915 21.7623 33.652 21.855C33.0074 21.9308 32.3594 21.9749 31.7105 21.9872L31.4573 21.9676L31.2968 21.9633L29.3593 21.9569C29.3866 21.6989 29.4846 21.5618 29.5642 21.3589C29.6505 21.1511 29.6627 20.9784 29.7349 20.7291C29.7822 20.5476 29.7495 19.6179 29.7495 19.3042C29.7466 19.1554 29.5524 18.4301 29.5085 18.0955C29.452 17.5774 29.2612 17.3637 29.2803 16.8657L29.1998 16.7164C29.2368 16.2481 29.1066 16.2311 29.1329 15.8101L29.189 14.6072ZM10.3866 13.1501C10.2154 13.0057 10.1168 13.0086 9.84415 12.9764C9.67342 12.9423 9.55634 12.8135 9.36317 12.7262C9.26025 12.6867 8.60074 12.2189 8.50659 12.1252C8.06122 11.6652 7.41342 11.1579 7.28708 10.3994C7.41342 10.4223 7.69439 10.8237 7.83049 10.9555C8.0461 11.1701 8.15927 11.2823 8.39049 11.4935C8.56464 11.6569 8.82073 11.8433 9.04171 11.9394C9.29049 12.0418 9.66269 12.0955 9.84415 12.2198L10.3929 12.2428L10.8466 12.2198L11.5851 13.2511L11.2193 13.2559L10.3866 13.1501ZM38.7866 12.8584C38.9217 13.135 39.3798 13.6057 39.3607 13.994L39.3451 14.3413C39.3368 14.4584 39.3003 14.4584 39.2461 14.5394L39.2281 14.7915C38.9939 14.9608 39.069 15.3008 38.7861 15.314L38.8768 14.5652L38.8856 14.2691C38.9149 13.5472 38.5944 13.1569 38.211 12.8559C38.0354 12.7023 37.7861 12.5379 37.6456 12.3642C37.5568 12.2486 37.4598 12.1476 37.6095 12.093C37.6729 12.0603 37.9427 11.9501 37.9442 11.9501H37.9895C38.011 11.9501 38.7617 12.7959 38.7866 12.8584ZM24.8695 11.1228L24.8627 11.2652C24.8578 11.292 24.3017 12.4472 24.2524 12.534C24.1246 12.4223 23.7446 11.8301 23.7578 11.595V11.5545C23.772 11.2998 24.0559 11.3228 24.271 11.3369L24.4076 11.2725L24.8695 11.1228ZM4.67195 12.0955C4.67586 12.032 4.93391 11.454 4.97683 11.3774C5.12952 11.1491 5.22317 11.1701 5.39634 10.8506C5.51732 10.6301 6.19049 10.0994 6.4222 10.0452C6.38756 10.3501 6.09049 10.4223 5.8783 10.592C5.53147 10.8608 5.62513 10.8486 5.3622 11.1457C5.11683 11.4267 4.79878 12.2486 4.76317 12.7959C4.75927 12.8989 4.92805 13.5657 4.96903 13.6662C5.1861 14.1184 5.09781 13.9623 5.36805 14.3272C5.49488 14.493 5.75683 14.7833 5.84171 14.9184C6.09049 15.3008 6.11391 15.1589 6.37098 15.4433C6.76464 15.9262 8.63927 17.0042 8.74757 17.2237L9.8061 17.6252C9.98513 17.9247 10.1583 18.1847 10.3183 18.5272C10.4251 18.7569 10.8329 18.9872 11.0563 19.1447C11.331 19.3345 11.5968 19.5881 11.9856 19.634C12.6276 19.6964 12.6846 19.8935 13.0173 19.9525L13.5359 21.1086C13.2612 21.1042 13.072 20.892 12.9202 20.7525C12.8593 20.6803 12.4993 20.5072 12.3534 20.3818C11.9949 20.0833 11.49 19.9598 11.1856 19.6789L11.0168 19.6657C10.7466 19.4315 9.84122 19.253 9.71049 18.9872C8.92122 18.9286 6.86756 17.4037 6.43439 16.8896C5.97439 16.3042 5.60025 16.0769 5.22366 15.3896C4.95098 14.8925 4.57 14.0979 4.61586 13.2955L4.67195 12.0955ZM13.1793 10.2789C13.4929 10.2945 13.752 10.5111 14.1422 10.2789C14.391 10.1272 14.6544 9.9657 14.8773 9.76326C15.209 9.48131 15.8651 8.75594 15.9359 8.19496L16.0237 8.1974L15.9944 8.79301C15.9856 9.00618 15.3081 9.87106 15.2695 10.5623L15.2607 10.7135C15.2027 11.9106 15.3759 12.2125 15.5515 13.0398C15.6695 13.6428 16.3193 14.572 16.35 14.7833C16.0183 14.9511 15.5193 14.2276 15.2554 14.0135C15.0866 13.8794 14.9812 13.7428 14.7544 13.5633C14.6373 13.4628 14.3242 13.2315 14.2256 13.135C14.092 13.0213 13.8388 12.713 13.7246 12.6364C13.4583 12.4345 13.4046 12.5018 13.2383 12.1559C13.0398 11.7472 12.9261 11.0989 12.9622 10.4647C12.9671 10.3579 12.9778 10.394 13.011 10.2672L13.1793 10.2789ZM20.2656 9.86813C20.2798 9.58813 20.6217 8.6857 20.7963 8.7057C20.9554 8.71887 21.5949 9.44765 22.0959 9.49545L22.929 9.53838C23.1588 9.55106 23.7446 9.19838 23.9217 9.09935C23.8963 9.5457 23.7398 9.53252 23.7207 9.6974C23.7046 10.0301 24.0105 9.8374 24.0734 10.2672L22.8481 10.4574C22.6744 10.5667 22.4642 10.5959 22.4412 10.914L22.4266 11.1589C22.3963 11.8398 22.8266 12.6101 23.0846 13.0237C23.1656 13.1569 23.2568 13.3086 23.3178 13.4291C23.4456 13.6564 23.471 13.5579 23.612 13.7359C23.9168 14.1101 23.7578 14.1657 23.7163 14.6559L23.9549 15.0389L23.9071 15.0701C23.5042 14.935 23.1559 14.5189 22.8266 14.2345C22.6402 14.0837 22.4363 14.0072 22.2827 13.8296C22.1749 13.6979 21.9154 13.4115 21.8081 13.3403C21.3437 13.0389 20.3398 11.7369 20.3778 10.9335L20.2656 10.8179L20.2402 10.275L20.2656 9.86813ZM28.4159 10.0408C28.6617 10.054 29.171 9.51496 29.3939 9.3774C29.7042 9.18326 30.0832 8.97545 30.43 8.8335C30.8959 8.64813 31.131 8.60033 31.6876 8.52862C31.9763 8.49935 32.7676 8.41057 33.0388 8.42618L33.2934 8.44228C33.2729 8.77984 33.2007 8.59838 33.1929 8.78521L33.1549 9.53838C33.109 10.3501 33.5207 10.2823 33.2193 11.4994C32.9051 11.4759 32.7744 11.1701 32.3144 11.1403L31.432 11.0779C31.3724 11.0779 30.6446 11.3837 30.6203 11.3837L30.4881 11.3774C30.4442 11.5667 30.112 11.6823 29.9617 11.7872C29.7959 11.8994 29.672 12.1369 29.552 12.3164C29.3446 12.6101 29.0266 13.1915 28.952 13.6374C28.7993 14.4276 28.7666 14.4847 28.7398 15.2789C28.7032 16.0706 28.8042 16.4072 28.8593 17.0418C28.9115 17.773 29.5373 19.4711 29.3027 20.2662C29.1139 20.8823 29.2051 21.1442 28.8856 21.7403C28.7144 22.0701 28.7603 22.0701 28.4417 22.2057C28.3251 22.2584 27.9144 22.4559 27.8188 22.4496C27.6661 22.435 27.9642 21.8618 28.0105 21.632C28.0934 21.2789 28.0934 20.8798 28.1705 20.5598C28.1163 20.4506 28.052 20.4242 28.0593 20.3033C28.0759 19.9525 28.1983 19.5564 28.0759 19.3345C27.8837 19.0115 27.9295 18.9218 27.8188 18.5657C27.7637 18.3808 27.2524 17.3901 27.1456 17.2496C26.9568 16.9984 26.2495 16.4657 26.2495 16.1291C26.2481 15.3291 26.3124 14.9403 26.3451 14.2789C26.3451 14.2608 26.6476 13.052 26.6837 12.9642C26.7534 12.7535 26.7895 12.4945 26.8983 12.3384C27.0515 12.1091 27.0573 12.1559 27.1763 11.8433C27.3763 11.2725 28.3334 10.3194 28.4159 10.0408ZM2.64317 8.40082C2.65781 8.08082 2.48171 7.68179 2.52708 7.29399C2.56269 7.0096 2.74122 6.5774 2.9061 6.45984C2.95586 6.59155 2.95195 6.42716 2.94366 6.60765C2.93732 6.80326 2.81049 6.71448 2.85976 7.02716C2.89098 7.27984 2.89098 7.22423 2.89537 7.51887C2.89537 7.82326 3.03049 8.02716 3.07098 8.31789C3.11391 8.57496 3.54903 9.55691 3.79342 9.58228C4.04805 9.59252 4.13 8.98228 4.34073 8.90521C4.32317 9.2457 4.24659 9.40667 4.2983 9.70716C4.32659 9.86228 4.44366 10.1355 4.47 10.3189C5.00903 10.2057 4.85049 9.6335 5.34171 9.29204C5.51342 9.17399 6.32074 8.5057 6.38074 8.4896L6.53 9.64911L6.25098 9.44716L6.20561 9.83057C5.52366 9.78374 4.66025 10.9672 4.20708 11.353C3.85195 11.6359 3.14366 13.2872 3.09976 14.0555L2.55 13.3189C2.65147 13.2555 2.71976 13.275 2.73391 13.1203L2.74366 12.9715C2.75342 12.7876 2.45781 12.3637 2.28952 12.2691C2.05634 12.1325 1.77244 12.0315 1.50269 11.9189C1.10269 11.7418 0.651466 10.9706 0.683174 10.4262L0.698295 10.175C0.71293 9.88423 0.7461 9.61106 0.900247 9.49496L1.02659 10.0403C1.2383 10.5379 1.2061 10.834 1.66659 11.1847C1.86756 11.3442 2.45098 11.9008 2.70513 11.9164L2.96122 11.9311C2.99244 11.7925 3.0022 11.8433 3.00903 11.7311C3.03049 11.4896 2.56415 11.4008 2.38854 11.3072C2.26659 11.2403 1.97634 10.9559 1.85293 10.8428C1.40415 10.4642 1.44512 9.83935 1.2383 9.41204L1.30854 8.0657L1.50122 7.74862L1.54025 7.77935L1.45976 8.3696C1.41878 8.6613 1.73439 9.94667 1.97 9.95984C2.0983 9.97057 2.09195 9.87691 2.15293 9.76618C2.0983 9.63301 1.8261 8.57106 1.83098 8.44716L1.85878 8.10033C1.87439 7.80082 1.99293 7.3735 2.22464 7.36423L2.15683 7.81545C2.11586 8.07009 2.69586 9.45448 2.96269 9.47984C2.98708 9.47984 3.08659 9.37496 3.13927 9.33204L2.64317 8.40082ZM35.13 7.95984C35.3007 7.87301 36.011 7.85935 36.2622 7.87691C36.6417 7.90179 36.8944 8.27448 37.2149 8.29496C37.2676 8.29594 37.3027 8.22862 37.3061 8.14228C37.3129 8.00862 37.229 7.97935 37.2373 7.8457C37.2407 7.72131 37.332 7.4457 37.4637 7.4535C37.7417 7.46765 38.2734 8.09935 38.389 8.31789C38.572 8.64716 38.7173 9.23057 38.6934 9.79252C38.6456 10.6959 37.8583 11.7379 37.0812 11.6969C36.1085 11.6262 35.0617 10.1735 34.451 11.6433C34.3803 11.7925 34.3359 11.9013 34.2627 12.0315C34.1529 12.2384 34.2188 12.2598 34.1529 12.4755C34.0988 12.6281 33.8998 13.1111 33.8276 13.2252C33.6866 13.4623 33.0763 14.2252 32.8271 14.2325C32.7876 13.9472 32.5939 13.8789 32.61 13.5237C32.6261 13.2437 33.689 12.5159 33.9163 12.012C34.1768 11.4657 34.0383 11.2481 34.0598 10.7496C34.0827 10.1652 33.8173 9.9374 33.87 9.53789C33.9832 8.61838 34.5354 8.23789 35.13 7.95984ZM4.44366 6.86423C4.46025 6.44765 5.22952 5.45545 5.48415 5.47106C5.52074 5.47301 5.55927 5.5257 5.55683 5.58033C5.53635 5.96911 5.42513 6.11594 5.3461 6.41448L4.91976 6.14082L4.87293 6.18131L4.86805 6.63838L4.95586 6.78765L4.96952 7.24033C4.97683 7.41204 4.82171 7.72228 4.80513 7.98472L4.39244 8.73887L4.34561 8.75643L4.44366 6.86374V6.86423ZM18.1876 9.43838C18.2354 8.54326 18.5978 7.63496 18.9198 7.05301C19.083 6.7455 19.2873 6.4616 19.5271 6.20911C19.5851 6.13887 20.3217 5.7057 20.4022 5.71692L20.6949 5.72862C20.6588 5.83106 20.0734 6.63252 19.9285 6.96131C19.709 7.44228 19.609 7.98472 19.5783 8.57448L19.5637 8.77252C19.5042 9.93838 20.0339 11.8945 20.4563 12.5023C20.8437 13.0818 21.1085 13.2423 21.55 13.7013C21.7729 13.9267 22.6124 14.6135 22.7012 14.793C22.5695 14.8633 20.8281 14.8613 20.5178 14.8569C19.9846 14.8564 20.1178 14.7735 19.772 14.4159C19.6744 14.3179 19.5793 14.172 19.489 14.0564C19.3602 13.8696 19.271 13.8696 19.1695 13.7364C19.0471 13.555 18.33 12.2394 18.2695 12.0457C18.1646 11.7286 18.0729 10.0852 18.091 9.58862L18.1876 9.43838ZM11.8837 3.72326C12.1827 3.73935 12.2339 3.64033 12.511 3.65204L12.8881 3.68033L13.5505 3.84862C13.6959 3.9535 13.8793 3.99106 14.0451 4.10423C14.2368 4.24082 14.2749 4.30862 14.4422 4.43984C14.7554 4.71399 14.8832 4.87935 15.1349 5.2257C15.3412 5.50082 15.5739 5.72521 15.6929 6.13838C15.7602 6.38862 15.9485 7.10228 15.9363 7.38374L15.9237 7.74033C15.8895 8.37643 15.3266 8.96862 15.0817 9.34716C14.8612 9.72082 14.0866 10.0428 13.5188 9.86521C12.6856 9.61155 12.6144 9.57106 12.1027 8.96862C11.6193 8.39935 11.7017 8.02716 11.5788 7.15887L12.031 6.38618L12.3754 6.35887C12.8749 6.29204 13.3934 6.91838 13.3656 7.5774C13.3349 8.21887 12.8398 7.99204 12.8183 8.29643C12.8183 8.31301 12.9598 8.60862 13.011 8.61057C13.551 8.64228 13.849 8.0057 14.1017 7.81887L14.1846 7.46765C14.2315 6.79301 13.9846 6.16765 13.7173 5.77887C13.4163 5.33838 13.0183 5.04423 12.4861 5.01594C11.9042 4.97399 11.5773 5.15448 11.13 5.49155C10.9329 5.64862 10.4251 6.50667 10.3705 6.8335C10.2602 7.54716 10.2471 8.12277 10.3081 8.84521C10.3261 9.06521 10.3944 9.56326 10.4466 9.73252C10.4822 9.83106 10.6412 10.4925 10.6412 10.5667C10.4895 10.4155 10.0763 9.23643 10.1002 8.87057L9.90122 8.1535L9.87196 7.3535L10.0422 5.81057C10.192 5.5896 10.1763 5.37155 10.3617 5.05301C10.5032 4.83009 10.5661 4.61594 10.7373 4.42862C10.9188 4.24862 11.0168 4.12716 11.2446 3.99301C11.4802 3.87594 11.7007 3.84862 11.8837 3.72326ZM19.7349 5.51838C20.409 4.9096 21.4554 4.58179 22.6363 4.65106L22.8934 4.67692C23.0534 4.6857 23.1017 4.78911 23.4251 4.80862C24.029 5.34374 24.5646 6.10082 24.2895 7.34521C24.0827 8.28374 23.4251 9.11838 22.5793 9.06813L22.3276 9.0535C21.5232 8.99252 21.3251 8.31301 20.8681 7.90082C20.91 7.26667 20.8681 7.01789 21.2768 6.67887C21.5042 6.47887 22.1159 6.56911 22.089 7.18423C22.0515 7.80374 21.4422 7.44131 21.4242 7.78716C21.4212 7.88813 21.5949 7.99691 21.712 8.00521L21.7959 8.0135C22.2666 8.04131 22.7368 7.55155 22.7705 7.01789L22.7963 6.46911C22.8027 6.32179 22.3963 5.70082 22.2827 5.60082C22.0827 5.42374 21.6349 5.28911 21.3056 5.27252C21.1398 5.26277 20.5656 5.27838 20.451 5.30667C20.2295 5.37789 19.932 5.52521 19.7349 5.51838ZM32.3934 5.57984C33.4617 5.64082 33.2398 4.87496 33.7261 4.9096H33.7705C33.9832 4.92521 34.4929 5.88765 34.732 5.92374L34.7163 6.07155L34.4271 6.05935C33.7583 6.01399 33.3188 6.07155 32.6563 6.04179C32.1881 6.02374 31.3978 6.32179 31.009 6.28716C30.7749 6.45643 30.4237 6.48277 30.1261 6.60423C29.8178 6.71496 29.5895 6.8335 29.2724 6.96667C29.0505 7.04618 29.0646 7.07253 28.8856 7.19935C28.7637 7.29448 28.6076 7.31838 28.472 7.3774C28.2281 7.4896 27.9793 7.71009 27.7256 7.8457C27.0993 8.17009 26.8759 8.5457 26.4012 9.04862C26.1671 9.29252 25.3681 10.3686 25.2442 10.4355C25.2793 9.68277 25.0783 9.57643 24.8183 9.09789C24.5681 8.66813 24.4705 8.22374 24.8695 7.85984C25.0188 7.95887 26.1071 7.93057 26.3495 7.85984C26.8129 7.72179 27.13 7.53594 27.3788 7.09692C27.4968 6.88326 27.469 6.43204 27.4881 6.11545C27.5095 5.60716 27.4124 5.41399 27.7329 5.56131C28.0846 5.70326 28.509 6.13496 28.9539 6.15887L29.1642 6.17204C29.4666 6.19204 29.9388 5.8335 30.1046 5.61789C30.3071 5.36326 30.4266 4.74472 30.789 4.76862C31.6588 4.82716 31.7563 5.53448 32.2203 5.56765L32.3934 5.57984ZM35.23 6.81009C35.2383 6.61789 35.4612 5.76472 35.5324 5.60716C35.6368 5.35594 35.9666 5.00716 36.2446 5.02131L36.3666 5.03009C36.5729 5.04423 36.9129 5.19204 37.0739 5.27252C37.4012 5.43106 37.3881 5.43106 37.5115 5.80423C37.2798 5.78082 37.1598 5.57984 36.8456 5.56131C36.2139 5.51545 35.8685 5.79301 35.831 6.55106C35.8124 6.99594 35.9198 7.21887 35.9115 7.51009L35.5324 7.54716L35.3973 7.53057C35.2627 7.52277 35.1964 7.33301 35.2071 7.15887L35.23 6.81009ZM32.2924 4.3096L32.0822 4.30423C31.9763 4.29253 31.1617 3.59838 30.7671 3.56131L30.5578 3.55253C29.5251 3.49253 29.7305 5.11106 28.8471 5.05009C28.2159 5.01448 27.1017 3.6057 26.431 4.59643L26.4242 6.24862C26.4227 6.84082 25.5705 6.94228 25.0466 6.91545L25.0022 6.91057C24.7768 6.90082 24.7583 5.94667 24.6627 5.61789C24.5246 5.13692 24.4895 5.43106 24.3242 5.13692C24.2271 4.96526 24.1014 4.81149 23.9524 4.68228C23.5476 4.3096 22.2988 3.83545 21.4988 3.89253L19.889 4.07692C19.35 4.46911 18.4476 4.63789 17.7885 5.11594C17.5173 5.30033 17.1193 5.56765 16.9085 5.85252C16.8076 6.00131 16.2368 6.6935 16.1378 6.75496C16.0046 6.35887 15.9895 5.89448 15.7656 5.52716C15.5515 5.17984 15.3617 4.94131 15.1251 4.61594C14.9016 4.32373 14.6495 4.05458 14.3724 3.81253C14.1573 3.6057 13.5837 3.44862 13.371 3.26911L12.6202 3.16667L12.2007 3.13399C11.7637 3.10667 10.8427 3.56131 10.6334 3.86813C10.4754 4.0974 10.2695 4.18228 10.0583 4.49643C9.99781 4.60179 9.73878 5.32179 9.72903 5.48911C9.67732 5.51838 9.57781 5.62667 9.55147 5.62667C9.42952 5.61789 9.44903 5.51545 9.26366 5.50862L8.5061 5.46277C8.01488 5.43106 6.92903 6.46277 6.90122 6.46277C6.63537 6.45155 6.47342 5.7774 6.14025 5.56911C5.81927 5.36911 5.41488 5.1174 4.95635 5.08228C4.67195 5.06179 4.31 5.30667 4.11293 5.45106C3.84122 5.63545 3.64854 6.02423 3.47049 6.14618C3.50171 5.46277 3.08659 5.77887 2.80708 5.94618C2.75342 5.99594 2.48708 6.15691 2.44366 6.20911C2.36805 6.27301 2.18269 6.56911 2.1022 6.55789C1.99 6.55301 2.00366 6.50667 1.98805 6.39496C1.61244 6.38618 1.52464 6.93496 1.33537 7.20374C1.11976 7.51643 0.988539 7.78716 0.969515 8.34667L0.874881 8.4935L0.850491 8.73838C0.722686 8.95009 0.306588 9.58423 0.294393 9.91301C0.260247 10.4267 0.254881 11.8496 0.390491 12.1179L0.378295 12.3194C0.583174 12.7306 0.565125 12.6594 0.836832 12.9681C1.14464 13.3145 1.23195 13.2101 1.4983 13.4413C2.47147 13.5096 2.56269 13.9876 2.90073 14.6833L2.88122 14.9511L3.00317 15.0935C2.99976 15.1798 3.21049 16.6072 3.25195 16.7291C3.31927 16.9984 3.40415 17.173 3.45781 17.455C3.4983 17.7135 3.73781 18.0813 3.73537 18.1511C3.73537 18.1569 3.05537 19.2828 2.96756 19.4759C2.79927 19.8725 2.47634 20.6662 2.31781 20.9847L2.02025 22.0637L1.92415 22.1979C1.89878 22.7442 1.70805 23.3062 1.67195 23.9413C1.62708 24.633 1.62659 25.1106 1.61537 25.7901C1.59878 26.7315 1.56073 28.8272 1.95049 29.174C1.9061 29.9028 2.54854 31.2711 2.77781 31.7881C4.08366 37.0789 14.0588 38.9769 18.1617 35.4886C18.4749 35.2135 18.6193 35.1637 18.9276 34.8047C19.1676 34.5052 19.3812 34.3784 19.6271 34.0374C19.7617 33.8423 20.171 33.3628 20.251 33.1637C20.3446 32.915 20.6324 32.2589 20.8012 32.1281C20.7739 32.5891 20.7368 32.7979 20.7368 33.2852C20.7368 33.5618 21.1256 33.813 21.3437 33.8252L22.3446 33.892C22.73 33.914 22.8178 33.8252 23.0763 33.6886C23.069 33.1433 22.3724 32.1228 22.6363 31.5491C23.1207 31.9813 22.9856 32.6876 24.0827 32.8472C24.5363 32.9155 24.9149 32.8135 25.0105 33.2852C25.1207 33.8374 25.1529 33.8867 25.3788 34.2994C25.8598 35.1857 26.3124 34.8984 27.1959 35.2135C27.5822 35.3496 28.6861 35.9979 28.691 36.4457L28.4032 36.4359L28.3944 36.5335L28.6032 36.5433C28.6959 36.5496 28.691 36.5847 28.772 36.6491L29.6759 36.9696C30.0403 36.8842 31.1032 36.9013 31.531 36.9301C32.1349 36.975 32.3983 36.6364 33.2237 36.693L33.3603 36.634L37.9895 36.4389C38.2081 36.2867 38.6124 35.7608 38.6285 35.3755C38.6525 35.0525 38.572 34.9969 38.59 34.6745C38.4739 34.4418 38.4846 34.2745 38.2973 34.0774C38.2285 34.0111 37.9085 33.6711 37.8344 33.6559L37.2061 33.6833C37.0881 33.7613 37.0227 33.8189 36.8227 33.8023C36.5661 33.7935 36.549 32.0481 36.6934 31.7091C36.752 31.5423 37.2837 29.8179 37.2885 29.7194L37.3334 28.7203L37.3817 28.7501L37.7003 28.1403L37.7417 27.2906C37.911 27.034 38.1042 26.8306 38.1271 26.3672C38.1612 25.8101 37.9881 25.4296 37.8139 25.0901L38.471 24.4135L38.4207 24.3672L38.4685 23.9252C38.4203 23.8296 38.389 23.8296 38.3939 23.7174L38.3998 23.574C38.4046 23.4769 38.6783 23.1413 38.6876 22.8911L38.7042 22.5315C38.7149 22.3511 38.59 22.4081 38.5959 22.2306C38.6007 22.0462 38.7261 22.1247 38.7334 21.9389L38.7354 21.8823C38.7451 21.7711 38.5988 21.3994 38.5242 21.3052C38.4022 21.1442 38.1032 21.0057 38.0866 20.9686C38.0349 20.8584 38.1207 20.3379 38.1007 20.1633C38.0695 19.9194 38.0183 19.6715 37.9895 19.4374L38.0851 19.3691L38.5003 19.213L38.7066 19.2276C38.8993 19.0901 39.2354 18.9808 39.3871 18.8584C39.5393 18.7389 39.8032 18.3413 39.8129 18.0955C39.8949 16.5501 38.9105 16.0681 38.9149 15.973C38.9217 15.8735 39.2603 15.5208 39.3368 15.4101C39.4588 15.233 39.51 14.8481 39.6959 14.7696L39.7471 13.8198C39.7539 13.6428 39.6632 13.7857 39.6798 13.4169C39.4017 13.1667 39.3285 12.7535 39.0407 12.4911C38.8856 12.3545 38.3266 11.8433 38.3388 11.6242C38.3432 11.5598 38.929 10.8345 38.9827 9.91301L39.0017 9.45643C39.0583 8.45984 38.3168 7.40082 37.6456 7.15984C37.6715 6.81009 37.8051 6.58716 37.8285 6.12423L37.8412 5.87789C37.8842 5.12374 37.0881 4.72082 36.432 4.68228L36.3466 4.68131C35.8866 4.64179 35.6822 4.74716 35.4812 5.0696C35.1398 4.75545 34.2188 3.3896 33.932 3.37009C33.5222 3.33496 33.3188 3.64521 33.069 3.74813C32.6837 3.91009 32.672 4.34131 32.2924 4.30911V4.3096ZM35.7715 10.0594L35.7646 10.2037C35.7564 10.3501 35.9666 10.7208 36.1173 10.7296L36.3661 10.7413C36.7285 10.7706 37.1661 9.91691 36.9349 9.68277L36.8642 10.0301C36.7685 9.94131 36.7007 9.76033 36.5954 9.7535L36.4246 9.7457C36.4066 9.63106 36.4212 9.59838 36.3085 9.59301L36.2583 9.58813C36.0422 9.57106 35.7871 9.7774 35.7715 10.0594ZM34.3827 14.9862C34.4134 15.2037 34.4315 15.5359 34.651 15.552L34.9446 15.5813C35.2754 15.594 35.3378 14.692 34.8276 14.6637C34.5939 14.6462 34.4851 14.832 34.3827 14.9857V14.9862Z" fill="#282C35"/>
</g>
<defs>
<clipPath id="clip0_464_4525">
<rect width="104.878" height="40" fill="white" transform="translate(0.0610352 0.5)"/>
</clipPath>
</defs>
</svg>
