<svg width="129" height="20" viewBox="0 0 129 20" fill="none" xmlns="http://www.w3.org/2000/svg">
<path d="M0.605 8.26C0.605 12.46 3.765 15.74 8.085 15.74C12.405 15.74 15.565 12.46 15.565 8.26C15.565 4.16 12.405 0.959999 8.085 0.959999C3.765 0.959999 0.605 4.16 0.605 8.26ZM4.325 8.26C4.325 5.98 6.005 4.26 8.085 4.26C10.165 4.26 11.845 5.98 11.845 8.26C11.845 10.64 10.165 12.44 8.085 12.44C6.005 12.44 4.325 10.64 4.325 8.26ZM17.603 15.5H21.063V11.7H24.203V14.04C24.203 15.06 24.643 15.5 25.663 15.5H28.863V12.6H28.103C27.823 12.6 27.663 12.44 27.663 12.16V5.2H24.203V8.9H21.063V6.66C21.063 5.64 20.623 5.2 19.603 5.2H16.403V8.1H17.163C17.443 8.1 17.603 8.26 17.603 8.54V15.5ZM30.7866 15.5H34.2466L37.0866 10.88C37.2466 10.6 37.4666 10.28 37.6466 9.86H37.6866C37.6466 10.26 37.6466 10.66 37.6466 10.9V14.04C37.6466 15.06 38.0866 15.5 39.1066 15.5H42.0466V12.6H41.2866C41.0066 12.6 40.8466 12.44 40.8466 12.16V5.2H37.3866L34.5466 9.84C34.3666 10.14 34.1666 10.44 33.9866 10.86H33.9466C33.9666 10.6 33.9866 10.2 33.9866 9.84V6.66C33.9866 5.64 33.5466 5.2 32.5266 5.2H29.5866V8.1H30.3466C30.6266 8.1 30.7866 8.26 30.7866 8.54V15.5ZM43.9702 15.5H47.4302V11.7H47.9102C48.1702 11.7 48.4902 11.7 48.6702 12.04L50.0302 14.72C50.3702 15.38 50.7702 15.5 51.5102 15.5H54.1302V12.6H53.3902C52.9902 12.6 52.7902 12.54 52.6302 12.26L51.9702 11.12C51.5702 10.44 51.0102 10.26 51.0102 10.26V10.22C51.0102 10.22 51.3902 10.02 51.7702 9.36L54.2302 5.2H50.4702L48.6902 8.46C48.5102 8.78 48.1502 8.8 47.8502 8.8H47.4302V6.66C47.4302 5.64 46.9902 5.2 45.9702 5.2H42.7702V8.1H43.5302C43.8102 8.1 43.9702 8.26 43.9702 8.54V15.5ZM54.8819 10.34C54.8819 13.18 56.9419 15.74 60.6219 15.74C63.5619 15.74 65.1819 13.74 65.1819 13.74L63.8019 11.42C63.8019 11.42 62.4419 12.76 60.9619 12.76C59.6819 12.76 58.3619 12.06 58.3619 10.3C58.3619 8.92 59.2419 7.82 60.7019 7.82C61.1219 7.82 61.5019 7.94 61.5019 8.26V8.8H64.5019V7.38C64.5019 5.52 62.1419 4.96 60.7019 4.96C56.8019 4.96 54.8819 7.62 54.8819 10.34ZM72.3152 15.5H75.8952V9.7H76.1752C76.7152 9.7 77.1352 9.7 77.3752 10.16L79.5152 14.44C79.9552 15.34 80.5352 15.5 81.5352 15.5H83.6352V12.5H83.2552C82.8552 12.5 82.4752 12.46 82.2752 12.04L80.9752 9.4C80.4752 8.4 79.8752 8.26 79.8752 8.26V8.22C79.8752 8.22 80.4552 7.96 80.9352 6.98L83.7952 1.2H79.8952L77.4752 6.28C77.2352 6.72 76.8752 6.72 76.3752 6.72H75.8952V2.66C75.8952 1.64 75.4552 1.2 74.4352 1.2H71.0152V4.2H71.8752C72.1552 4.2 72.3152 4.36 72.3152 4.64V15.5ZM85.3569 19.5H88.8169V15.74C88.8169 15.22 88.7769 14.86 88.7769 14.86H88.8169C88.8169 14.86 89.7569 15.74 91.4369 15.74C94.1769 15.74 96.2369 13.62 96.2369 10.36C96.2369 7.16 94.3969 4.96 91.5969 4.96C89.4169 4.96 88.5169 6.28 88.5169 6.28H88.4769V6.1C88.4769 5.66 88.1369 5.2 87.1369 5.2H84.1569V8.1H84.9169C85.1969 8.1 85.3569 8.26 85.3569 8.54V19.5ZM88.7169 10.42C88.7169 8.64 89.6969 7.88 90.7369 7.88C91.9369 7.88 92.7569 8.88 92.7569 10.42C92.7569 12 91.8169 12.88 90.7369 12.88C89.3769 12.88 88.7169 11.66 88.7169 10.42ZM108.547 14.04C108.547 15.06 108.987 15.5 110.007 15.5H113.207V12.6H112.447C112.167 12.6 112.007 12.44 112.007 12.16V5.2H108.547V14.04ZM98.2666 14.44C98.2666 15.18 98.5866 15.5 99.3266 15.5H103.287C105.447 15.5 107.367 14.4 107.367 11.96C107.367 10 106.147 8.44 103.287 8.44H101.727V6.36C101.727 5.66 101.227 5.2 100.287 5.2H97.0666V8.1H97.8266C98.1066 8.1 98.2666 8.26 98.2666 8.54V14.44ZM101.727 12.9V10.72H102.707C103.447 10.72 103.927 11.18 103.927 11.94C103.927 12.7 103.427 13.22 102.707 13.22H102.047C101.847 13.22 101.727 13.1 101.727 12.9ZM113.943 15.5H116.443C117.203 15.5 117.483 15.18 117.523 14.44L117.783 10.96C117.823 10.16 117.823 9.14 117.823 9.14H117.863C117.863 9.14 118.143 10.06 118.383 10.72L119.563 14.12H122.683L124.023 10.72C124.283 10.08 124.582 9.14 124.582 9.14H124.623C124.623 9.14 124.623 10.16 124.663 10.96L124.923 14.44C124.963 15.18 125.243 15.5 126.003 15.5H128.503V12.6H128.143C127.943 12.6 127.843 12.48 127.823 12.28L127.123 5.2H123.163L121.603 9.72C121.423 10.24 121.223 10.92 121.223 10.92H121.203C121.203 10.92 121.023 10.24 120.843 9.72L119.283 5.2H115.323L114.623 12.28C114.603 12.48 114.503 12.6 114.303 12.6H113.943V15.5Z" fill="#282C35"/>
</svg>
