<svg width="92" height="64" viewBox="0 0 92 64" fill="none" xmlns="http://www.w3.org/2000/svg">
<path d="M32.5843 27.6097C29.2287 24.2727 27.1515 19.6517 27.1515 14.5455C27.1515 9.43924 29.2287 4.81819 32.5843 1.48123C30.6524 0.532663 28.4793 0 26.1818 0C18.1486 0 11.6364 6.51222 11.6364 14.5455C11.6364 22.5787 18.1486 29.0909 26.1818 29.0909C28.4793 29.0909 30.6524 28.5582 32.5843 27.6097Z" fill="#1F222A"/>
<path d="M31.0303 14.5455C31.0303 6.51222 37.5425 0 45.5758 0C53.609 0 60.1212 6.51222 60.1212 14.5455C60.1212 22.5787 53.609 29.0909 45.5758 29.0909C37.5425 29.0909 31.0303 22.5787 31.0303 14.5455Z" fill="#1F222A"/>
<path d="M58.5672 1.48123C61.9228 4.81819 64 9.43924 64 14.5455C64 19.6517 61.9228 24.2727 58.5672 27.6097C60.4991 28.5582 62.6722 29.0909 64.9697 29.0909C73.0029 29.0909 79.5152 22.5787 79.5152 14.5455C79.5152 6.51222 73.0029 0 64.9697 0C62.6722 0 60.4991 0.532663 58.5672 1.48123Z" fill="#1F222A"/>
<path d="M19.3939 49.4545C19.3939 41.4213 25.9062 34.9091 33.9394 34.9091H57.2121C65.2454 34.9091 71.7576 41.4213 71.7576 49.4545C71.7576 57.4878 65.2454 64 57.2121 64H33.9394C25.9062 64 19.3939 57.4878 19.3939 49.4545Z" fill="#1F222A"/>
<path d="M0 45.5758C0 37.5425 6.51222 31.0303 14.5455 31.0303H33.9394C23.764 31.0303 15.5152 39.2791 15.5152 49.4545C15.5152 53.4298 16.7741 57.111 18.9151 60.1212H14.5455C6.51222 60.1212 0 53.609 0 45.5758Z" fill="#1F222A"/>
<path d="M75.6364 49.4545C75.6364 53.4298 74.3774 57.111 72.2364 60.1212H76.6061C84.6393 60.1212 91.1515 53.609 91.1515 45.5758C91.1515 37.5425 84.6393 31.0303 76.6061 31.0303H57.2121C67.3875 31.0303 75.6364 39.2791 75.6364 49.4545Z" fill="#1F222A"/>
</svg>
