<svg width="169" height="45" viewBox="0 0 169 45" fill="none" xmlns="http://www.w3.org/2000/svg">
<path d="M144.418 16.7401L145.019 15.8747L145.821 14.9482L146.516 13.986L147.351 13.4082L148.129 12.6777L148.773 12.4308C149.122 12.5122 149.494 12.4181 149.848 12.2043C151.545 11.1734 152.815 7.3884 149.244 7.36549C150.013 4.14304 146.162 3.73578 144.95 5.84845C140.524 2.93144 139.984 9.52397 139.809 11.293L140.045 13.538L140.437 15.5947L141.071 17.3917C143.09 18.2266 143.731 17.5165 144.418 16.7401Z" fill="#F0F0F0"/>
<path d="M143.605 16.4889C144.384 15.3918 145.076 14.3355 146.104 13.3963C146.957 12.6174 147.965 12.009 149.141 11.869C150.21 11.7418 151.251 12.205 152.134 12.7523L152.46 12.9661L152.073 12.9966C150.729 13.1061 149.268 13.3377 148.337 14.3915C148.016 14.7555 147.766 15.1831 147.525 15.6006C147.219 16.13 146.921 16.6467 146.567 17.1456C145.784 18.2528 144.475 19.8361 142.895 19.3932C142.357 19.243 141.904 18.8663 141.543 18.4565C140.935 18.375 140.049 18.2681 139.593 17.8532C139.397 17.6725 139.239 17.4536 139.132 17.2092C138.725 16.3031 138.959 15.374 138.975 14.4399C139.005 12.7268 139.278 11.0571 139.008 9.34147C138.929 8.84257 138.766 8.36913 138.646 7.88042L138.496 7.26953L138.886 7.76842L139.491 8.54477L139.496 8.54986L139.499 8.55495C140.252 9.72837 140.652 10.8865 140.675 12.2737C140.688 13.0297 140.522 14.0682 140.723 14.7784C140.835 15.1755 141.057 15.4835 141.357 15.7456C141.769 13.3912 143.472 13.913 144.098 12.3756C144.513 11.4516 144.806 10.9272 144.427 9.89127L144.238 9.3771L144.646 9.74873C145.888 10.8814 145.616 12.6403 144.966 13.997C144.804 14.3355 144.61 14.6308 144.373 14.9209C144.208 15.1246 144.017 15.3257 143.874 15.5471C143.676 15.85 143.61 16.158 143.605 16.4889Z" fill="#F0F0F0"/>
<path d="M138.5 7.27031L138.89 7.7692L139.496 8.54555L139.498 8.55064L139.501 8.55573C140.254 9.72915 140.654 10.8873 140.677 12.2745C140.689 13.0305 140.524 14.069 140.725 14.7792C140.837 15.1763 141.059 15.4842 141.359 15.7464C141.771 13.3919 143.474 13.9137 144.1 12.3763C144.515 11.4524 144.808 10.928 144.429 9.89205L144.24 9.37788L144.647 9.74951C145.89 10.8822 145.617 12.6411 144.968 13.9977C144.805 14.3363 144.612 14.6315 144.375 14.9217C144.21 15.1253 144.019 15.3264 143.876 15.5479C143.68 15.8508 143.612 16.1588 143.609 16.4897C144.388 15.3926 145.083 14.3363 146.109 13.397C146.961 12.6182 147.969 12.0098 149.145 11.8698C149.265 11.8545 149.384 11.8494 149.504 11.8494C150.446 11.8494 151.352 12.2694 152.139 12.7531L152.464 12.9669L152.077 12.9974C150.733 13.1069 149.272 13.3385 148.341 14.3923C148.02 14.7563 147.771 15.1839 147.529 15.6013C147.223 16.1308 146.926 16.6475 146.572 17.1464C145.879 18.1238 144.782 19.4729 143.446 19.4729C143.26 19.4729 143.077 19.4474 142.896 19.3965C142.359 19.2463 141.906 18.8696 141.547 18.4598C140.939 18.3783 140.053 18.2714 139.597 17.8565C139.401 17.6758 139.244 17.4569 139.137 17.2126C138.729 16.3064 138.964 15.3773 138.979 14.4432C139.009 12.7301 139.282 11.0604 139.012 9.34479C138.933 8.8459 138.77 8.37246 138.651 7.88375L138.5 7.27031ZM138.5 6.6416C138.152 6.6416 137.869 6.92414 137.869 7.27286C137.869 7.32376 137.874 7.37467 137.887 7.42303L138.037 8.03392C138.078 8.20446 138.126 8.37246 138.172 8.54045C138.259 8.85099 138.34 9.14625 138.386 9.44152C138.561 10.5564 138.493 11.656 138.421 12.8192C138.388 13.3436 138.355 13.8832 138.345 14.4279C138.34 14.6519 138.325 14.8784 138.307 15.1024C138.251 15.8253 138.19 16.6449 138.556 17.4671C138.699 17.7904 138.908 18.0805 139.17 18.3173C139.709 18.8085 140.56 18.9561 141.234 19.0503C141.702 19.5339 142.201 19.8521 142.723 19.9997C142.957 20.0659 143.199 20.099 143.444 20.099C145.062 20.099 146.297 18.6202 147.083 17.5078C147.45 16.9886 147.763 16.4489 148.063 15.9271C148.282 15.5479 148.522 15.133 148.809 14.8072C149.575 13.9392 150.853 13.7254 152.123 13.6236L152.51 13.593C152.856 13.565 153.116 13.2621 153.088 12.9134C153.073 12.72 152.968 12.5443 152.805 12.4374L152.48 12.2236C151.375 11.544 150.405 11.2182 149.499 11.2182C149.354 11.2182 149.209 11.2258 149.066 11.2436C148.038 11.3658 147.033 11.8164 146.078 12.5876C146.294 11.2615 145.951 10.088 145.07 9.2837L144.663 8.91208C144.406 8.6779 144.006 8.69572 143.772 8.95281C143.614 9.12589 143.566 9.37534 143.645 9.59424L143.833 10.1084C144.103 10.8389 143.955 11.1622 143.599 11.9487L143.522 12.1193C143.326 12.6029 143.008 12.7963 142.568 13.0636C142.14 13.3232 141.646 13.6236 141.267 14.2065C141.242 13.8679 141.262 13.4658 141.282 13.0992C141.298 12.8065 141.313 12.5291 141.308 12.2643C141.282 10.8186 140.878 9.53315 140.033 8.21465C140.023 8.19937 140.01 8.17901 139.997 8.16374L139.684 7.76157L139.386 7.37976L138.997 6.88087C138.88 6.73069 138.694 6.6416 138.5 6.6416Z" fill="#F0F0F0"/>
<path d="M68.4997 35.7904C67.2856 37.6918 65.6133 38.9644 63.269 38.9644C61.9963 38.9644 60.9068 38.5852 60.0007 37.9539C57.9618 36.5362 56.847 33.8533 56.6637 31.3639H69.6757V31.2316C69.6757 25.9601 65.8169 21.4141 60.2705 21.4141C60.1789 21.4141 60.0923 21.4192 60.0007 21.4217C47.0905 21.7068 46.0902 42.3523 60.0007 42.4236C60.0236 42.4236 60.0465 42.4262 60.072 42.4262C64.5238 42.4262 67.619 40.1939 69.6604 36.3809L69.724 36.2613L68.5659 35.6936L68.4997 35.7904ZM59.9981 23.0558C60.0541 23.0533 60.1101 23.0507 60.1687 23.0507C63.3759 23.0507 63.4013 27.4288 63.3275 29.7094H56.6535C56.6688 27.495 57.1142 23.2187 59.9981 23.0558Z" fill="#F0F0F0"/>
<path d="M93.0047 37.1287V29.49C93.0047 26.8377 93.1066 24.2567 90.6604 22.5436C87.3362 20.1917 82.9607 21.7139 80.2982 24.3152V21.8742H71.3359V22.8745L71.4378 22.9C73.3697 23.3887 73.2272 25.0534 73.2272 26.6519V37.1312C73.2272 38.7526 73.3697 40.3129 71.4352 40.8195L71.3359 40.8449V41.8452H82.3549V40.8373L82.2429 40.8169C80.1633 40.4555 80.2982 38.8061 80.2982 37.1312V26.6977C81.1687 25.5981 82.3982 24.3992 83.9127 24.3992C86.1297 24.3992 85.9108 26.8453 85.9108 28.3726V37.1312C85.9108 38.7959 86.0635 40.4147 84.0119 40.8169L83.9025 40.8373V41.8427H94.6974V40.8602L94.6185 40.8246C92.8597 40.0228 93.0047 38.801 93.0047 37.1287Z" fill="#F0F0F0"/>
<path d="M114.947 35.7904C113.733 37.6918 112.061 38.9644 109.716 38.9644C108.444 38.9644 107.354 38.5852 106.448 37.9539C104.409 36.5362 103.292 33.8533 103.111 31.3639H116.121V31.2316C116.121 25.9601 112.262 21.4141 106.715 21.4141C106.624 21.4141 106.537 21.4192 106.446 21.4217C93.5354 21.7068 92.535 42.3523 106.446 42.4236C106.468 42.4236 106.494 42.4262 106.517 42.4262C110.969 42.4262 114.064 40.1939 116.105 36.3809L116.169 36.2613L115.011 35.6936L114.947 35.7904ZM106.446 23.0558C106.502 23.0533 106.558 23.0507 106.616 23.0507C109.823 23.0507 109.849 27.4288 109.775 29.7094H103.101C103.116 27.495 103.562 23.2187 106.446 23.0558Z" fill="#F0F0F0"/>
<path d="M127.077 28.3757C125.893 27.8895 122.737 26.4157 122.704 24.9572C122.691 24.4151 123.126 24.0053 123.549 23.7227C126.883 21.4853 131.908 25.1812 133.163 28.2586L133.196 28.3426H134.041L133.611 21.4141H132.86L132.819 21.4726C131.664 23.1373 129.742 22.5188 128.115 22.0224C127.232 21.7526 126.211 21.4141 125.28 21.4141C121.66 21.4141 117.809 23.6845 117.809 27.5866C117.809 33.4232 125.537 33.7948 129.139 36.5489C130.401 37.5136 130.567 39.1732 129.118 40.0564C125.282 42.3931 120.436 38.6488 118.893 35.2304L118.858 35.1515H118.064L118.647 42.4262H119.311L119.347 42.3523C120.148 40.7309 121.194 41.0669 122.668 41.548C127.454 43.1185 135.413 42.4618 135.413 35.9634C135.413 31.5421 130.528 29.7884 127.077 28.3757Z" fill="#F0F0F0"/>
<path d="M159.612 28.3757C158.428 27.8895 155.28 26.4234 155.242 24.9623C155.229 24.4202 155.662 24.0078 156.084 23.7227C159.424 21.4981 164.441 25.1761 165.698 28.2586L165.731 28.3426H166.576L166.146 21.4141H165.395L165.354 21.4726C164.199 23.1373 162.274 22.5188 160.65 22.0224C159.767 21.7526 158.747 21.4141 157.815 21.4141C154.195 21.4141 150.344 23.6845 150.344 27.5866C150.344 33.4232 158.062 33.805 161.674 36.5489C162.926 37.5238 163.097 39.1655 161.653 40.0564C157.815 42.3829 152.974 38.6514 151.431 35.2304L151.395 35.1515H150.599L151.182 42.4262H151.846L151.882 42.3523C152.683 40.7309 153.73 41.0618 155.203 41.548C159.991 43.1134 167.948 42.4618 167.948 35.9634C167.948 31.5421 163.066 29.7884 159.612 28.3757Z" fill="#F0F0F0"/>
<path d="M52.8149 22.099V20.7423H32.4544V21.9539L32.5868 22.1066C34.3966 22.1473 37.0056 22.3484 38.1205 23.9876C38.6728 24.7996 38.8204 25.856 38.8815 26.8105C38.9935 28.5719 38.9248 30.3409 38.9248 32.1049V37.5036C38.543 37.6945 38.123 37.865 37.731 38.0203C36.611 38.4607 35.4504 38.8221 34.2795 39.1097C30.5989 40.0108 26.735 40.1839 23.0085 39.433C20.0712 38.8399 17.2331 37.7301 14.8786 35.8746C9.67331 31.7714 8.48462 25.3647 8.95551 19.1336C9.26859 14.9872 10.8416 11.4211 13.7281 8.38702C16.0953 5.89764 18.9894 4.15151 22.3315 3.2479C26.0146 2.25266 29.8505 2.42575 33.498 3.47953C38.8637 5.02967 43.1247 8.38447 44.7868 13.7781L44.8148 13.8723H46.2988L45.0362 0H43.5319L43.5192 0.117087C43.4225 0.954517 42.9745 2.6141 42.0072 2.85082C41.2436 3.03664 40.0371 2.66756 39.3091 2.43593C37.927 1.99558 36.5729 1.47377 35.1856 1.03597C33.9562 0.649071 32.5613 0.427624 31.281 0.279992C29.5603 0.0814521 27.8295 0.00254538 26.1012 0.0432714C21.1759 0.157813 16.2658 1.61377 11.9921 3.99879C8.72388 5.82128 6.12505 8.24193 3.97166 11.2608C1.29647 15.0126 -0.103488 19.7623 0.00596367 24.3338C0.196867 32.1863 6.11487 38.8246 13.0892 42.0522C18.8952 44.7401 25.7346 45.4325 32.0701 44.7605C35.6642 44.3787 39.2506 43.5234 42.6105 42.2125C43.5981 41.8257 44.5781 41.398 45.5224 40.9195C45.866 40.7464 46.2224 40.5606 46.5507 40.3595L46.6144 40.3213V33.3317L46.6067 33.3343V30.6667C46.6067 29.2591 46.5787 27.7548 46.7518 26.3599C46.8664 25.436 47.0878 24.4484 47.7038 23.7153C48.811 22.3917 51.0688 22.183 52.6826 22.1066L52.8149 22.099Z" fill="#F0F0F0"/>
<path d="M146.452 37.1265L146.371 21.8721H137.032L137.06 22.0273C137.108 22.2895 137.147 22.5542 137.18 22.8215L137.192 22.9259L137.297 22.9386C137.869 23.0073 138.429 23.1855 138.801 23.6411C139.404 24.3767 139.381 25.7538 139.381 26.6523V37.1316C139.381 39.2926 139.282 40.8148 136.658 40.8148H136.523V41.8431H148.921V40.8224L148.794 40.8148C146.419 40.6799 146.46 38.9923 146.452 37.1265Z" fill="#F0F0F0"/>
<path d="M20.6388 26.0357C20.3741 26.1452 20.1068 26.2495 19.8447 26.3666C19.6487 26.4531 19.5265 26.5397 19.4476 26.7484C19.4349 26.784 19.4196 26.8197 19.4069 26.8553C19.3941 26.8909 19.3814 26.924 19.3712 26.9597C19.328 27.0895 19.2923 27.2218 19.2669 27.3568C19.2414 27.4917 19.2236 27.6291 19.2134 27.7666C19.1905 28.072 19.1982 28.2833 19.3051 28.5709C19.3432 28.6702 19.3814 28.7643 19.4171 28.856C19.552 29.1792 19.6945 29.5051 19.6563 29.8639C19.6461 29.953 19.6589 30.0625 19.5927 30.1439C19.132 30.7039 18.3124 29.9072 17.8898 29.5941C17.2535 29.1207 16.5484 28.4971 15.9197 27.8302C14.6597 26.499 13.7001 25.0023 14.1863 24.2056C14.4892 23.7092 15.0136 23.475 15.4794 23.3071C15.9452 23.1391 16.3575 23.0322 16.4364 22.7954C16.4542 22.742 16.4619 22.686 16.4568 22.63C16.4288 22.4136 16.1641 22.3296 15.9833 22.2813C15.9248 22.266 15.8663 22.2507 15.8077 22.238L15.7237 22.2202C15.4157 22.1489 15.151 21.9046 14.9397 21.6882C14.9296 21.678 14.9219 21.6678 14.9117 21.6602C14.9016 21.65 14.8939 21.6398 14.8863 21.6322C14.7488 21.482 14.6827 21.3497 14.6827 21.2173C14.6827 21.0849 14.7488 20.9526 14.8786 20.7999C15.2681 20.3468 15.5786 20.2526 16.1157 20.0515C16.3931 19.9472 16.4288 19.8886 16.528 19.629C16.6833 19.2294 16.747 18.8756 17.1746 18.6719C17.2764 18.6236 17.3731 18.5803 17.4622 18.5472C17.7906 18.425 18.0782 18.4174 18.3582 18.6465C18.4371 18.7126 18.5109 18.7839 18.5745 18.8628C18.6356 18.9341 18.6942 19.0105 18.7502 19.0843C18.8774 19.2599 19.5469 19.3668 19.7709 19.4635C19.9363 19.5348 20.0916 19.6239 20.2443 19.7155C20.2825 19.7384 20.3207 19.7613 20.3588 19.7843C20.5319 19.881 20.453 19.9752 20.3054 20.0388C20.089 20.1304 19.8141 20.1101 19.5825 20.1381C19.2949 20.1711 19.2236 20.3111 19.0862 20.5224C19.0505 20.5759 19.0149 20.6319 18.9767 20.6879C18.9385 20.7439 18.8978 20.8024 18.8596 20.8609C18.8189 20.9195 18.7807 20.9806 18.74 21.0391C18.5593 21.3191 17.9993 22.1056 18.4625 22.4238C18.5669 22.4951 18.6993 22.5307 18.824 22.5485C20.0967 22.7369 20.1476 21.9682 20.6465 21.1206C21.1454 20.2755 21.1326 20.301 21.3872 19.9013C21.8555 19.1606 23.146 18.0712 23.1842 17.2414C23.1944 17.02 23.0468 16.7349 22.8126 16.6025C22.7286 16.5542 22.5708 16.4905 22.4257 16.4549C21.7715 16.2996 21.0639 16.3811 20.397 16.3454C20.313 16.3404 20.2316 16.3353 20.1527 16.3276C20.0738 16.32 19.9949 16.3098 19.9236 16.2971C19.8523 16.2844 19.781 16.2691 19.7123 16.2487C19.5367 16.1978 19.501 16.1469 19.4043 15.9993C19.3585 15.9306 19.3178 15.8211 19.3076 15.564C19.2974 15.3095 19.5214 14.9582 19.8116 14.5942L19.8676 14.5255C19.8854 14.5026 19.9058 14.4797 19.9236 14.4568C20.1298 14.2073 20.3487 13.9681 20.5625 13.7237C20.8094 13.4386 21.0665 13.2477 21.4024 13.0925C21.965 12.8303 22.5657 12.6419 23.1537 12.4485L23.286 12.4052C23.5813 12.3085 23.8791 12.2143 24.1667 12.0972C24.1947 12.087 24.2202 12.0743 24.2431 12.0641C24.266 12.0539 24.2889 12.0412 24.3093 12.031C24.6402 11.8656 24.9838 11.2852 25.3376 10.8627C25.3809 10.8118 25.4241 10.7609 25.4725 10.7125C25.6125 10.5649 25.806 10.3918 26.0198 10.3867C26.0427 10.3867 26.0656 10.3867 26.091 10.3918C26.1139 10.3944 26.1394 10.402 26.1623 10.4071C26.4347 10.4987 26.4448 10.6769 26.455 10.9238C26.4576 10.962 26.4576 11.0002 26.4601 11.0383C26.4677 11.1987 26.483 11.3565 26.5059 11.5169C26.5543 11.835 26.6052 12.2092 26.8368 12.2754C27.0914 12.3492 27.3357 12.2678 27.5699 12.3085C27.9695 12.3772 28.4862 12.4128 28.1859 12.9041C28.1248 13.0059 28.0357 13.0823 27.9313 13.1408C27.827 13.1994 27.7099 13.2426 27.5852 13.2783C27.463 13.3114 27.3332 13.3368 27.211 13.3674C26.6154 13.515 26.4067 13.9121 26.9336 14.439C26.9692 14.4746 27.0125 14.5077 27.0481 14.5459C27.0837 14.584 27.1219 14.6248 27.155 14.6655C27.2925 14.836 27.407 15.0371 27.5037 15.2637L27.5139 15.284C27.7099 15.7447 27.8321 16.3047 27.9161 16.88C28.0866 18.033 28.0713 19.265 28.247 19.9395C28.7917 22.0293 29.7691 23.2383 30.9247 23.9739C32.0803 24.7096 33.4548 24.9666 34.8955 25.127C35.0762 25.1474 35.2569 25.1652 35.4377 25.183C35.6184 25.2008 35.8016 25.2186 35.9849 25.2339C36.1682 25.2517 36.3514 25.267 36.5347 25.2848C36.718 25.3026 36.9012 25.3204 37.0871 25.3408C37.2729 25.3612 37.4536 25.3815 37.6369 25.4044C37.8201 25.4274 38.0034 25.4528 38.1841 25.4808C38.3674 25.5088 38.5481 25.5419 38.7288 25.575C38.9095 25.6106 39.0877 25.6488 39.2659 25.6921C39.4441 25.7353 39.6197 25.7837 39.7953 25.8346C39.971 25.8881 40.1441 25.9466 40.3171 26.0102C40.4877 26.0739 40.6582 26.1452 40.8262 26.2215C40.9942 26.2979 41.1597 26.3819 41.3226 26.4735C41.4855 26.5651 41.6458 26.6619 41.8062 26.7688C41.9665 26.8757 42.1193 26.9902 42.272 27.1124C42.5469 27.3364 42.8065 27.5833 43.0432 27.848C43.1807 28.0007 43.313 28.2578 43.2647 28.4716C43.2494 28.5378 43.2112 28.5989 43.1552 28.6396C43.0356 28.7313 42.9363 28.7465 42.804 28.6956C42.7683 28.6829 42.7327 28.6702 42.6971 28.6574C42.3178 28.5251 41.9258 28.4309 41.5262 28.3749C40.9891 28.2985 40.447 28.2858 39.9048 28.2884C39.4466 28.2909 38.9935 28.2654 38.5379 28.24C38.3954 28.2324 38.2503 28.2247 38.1027 28.2196C37.955 28.2145 37.8049 28.2069 37.6521 28.2044C37.4994 28.2018 37.3441 28.1967 37.1889 28.1942C37.0336 28.1916 36.8758 28.1916 36.718 28.1916C36.5602 28.1916 36.3998 28.1942 36.242 28.1967C36.0842 28.1993 35.9213 28.2044 35.7635 28.212C35.6057 28.2196 35.4427 28.2273 35.2849 28.2375C35.1271 28.2476 34.9693 28.2604 34.8115 28.2756C34.6562 28.2909 34.4984 28.3062 34.3457 28.3265C33.8672 28.3851 33.3937 28.4767 32.9279 28.5989C32.5156 28.7109 32.1007 28.8229 31.696 28.9654C31.5992 29.0011 31.4974 29.0392 31.3981 29.0851C31.2963 29.1283 31.1945 29.1767 31.0927 29.2301C30.6803 29.4414 30.2604 29.7138 29.8684 30.0014C29.5069 30.2687 29.1608 30.5537 28.8324 30.8617C28.6899 30.9966 28.5626 31.1239 28.4608 31.2385C28.4353 31.2665 28.4099 31.2944 28.3895 31.3224C28.2393 31.4981 28.0942 31.5744 27.8703 31.6228C27.2848 31.7501 26.6892 31.801 26.0936 31.8315C26.0681 31.8341 26.0427 31.8341 26.0172 31.8366C25.1594 31.8773 23.9071 31.745 23.1308 32.0733C23.0188 32.1217 22.9042 32.1751 22.7897 32.2286C22.5606 32.3381 22.3315 32.4602 22.1101 32.5799C21.6646 32.8217 21.2472 33.0609 20.9137 33.2035C20.7483 33.2748 20.5523 33.3028 20.3818 33.2518C20.0432 33.15 19.6665 32.6333 20.0916 32.2795C20.285 32.1192 20.4581 31.9715 20.5447 31.7424C20.6312 31.5134 20.6567 31.2334 20.6287 30.9126C20.6032 30.5919 20.5243 30.2254 20.4021 29.8207C20.2825 29.416 20.0203 28.912 19.921 28.4996C19.8218 28.0873 19.7912 27.8735 19.921 27.4942C19.9847 27.3033 20.3028 27.0335 20.5701 26.7484C20.6363 26.6771 20.6999 26.6059 20.7559 26.5346C20.8094 26.4684 20.8577 26.3971 20.8959 26.3208C20.9316 26.2571 20.9519 26.1884 20.9596 26.1172C20.985 25.8372 20.7814 25.9772 20.6388 26.0357Z" fill="#F0F0F0"/>
<path d="M50.8779 9.7526C50.8779 7.47957 52.7081 5.63672 55.172 5.63672C57.6206 5.63672 59.4355 7.45157 59.4355 9.7526C59.4355 12.0256 57.6054 13.8685 55.1414 13.8685C52.6928 13.8685 50.8779 12.0536 50.8779 9.7526ZM57.2236 9.7526C57.2236 8.58681 56.3836 7.56866 55.144 7.56866C53.8611 7.56866 53.0924 8.55627 53.0924 9.7526C53.0924 10.9184 53.9324 11.9365 55.172 11.9365C56.4549 11.9365 57.2236 10.9464 57.2236 9.7526Z" fill="#F0F0F0"/>
<path d="M68.7441 13.6911H66.5017V10.6672H63.7425V13.6911H61.5V5.78516H63.7425V8.82434H66.5017V5.78516H68.7441V13.6911Z" fill="#F0F0F0"/>
<path d="M71.1929 5.78516H73.4354V9.03051L76.2684 5.78516H78.8494L75.9425 9.03051L79.2184 13.6911H76.5636L74.4535 10.6825L73.4354 11.7897V13.6936H71.1929V5.78516Z" fill="#F0F0F0"/>
<path d="M79.8208 9.7526C79.8208 7.47957 81.6509 5.63672 84.1149 5.63672C86.5635 5.63672 88.3784 7.45157 88.3784 9.7526C88.3784 12.0256 86.5482 13.8685 84.0843 13.8685C81.6357 13.8685 79.8208 12.0536 79.8208 9.7526ZM86.1664 9.7526C86.1664 8.58681 85.3265 7.56866 84.0869 7.56866C82.804 7.56866 82.0353 8.55627 82.0353 9.7526C82.0353 10.9184 82.8753 11.9365 84.1149 11.9365C85.3977 11.9365 86.1664 10.9464 86.1664 9.7526Z" fill="#F0F0F0"/>
<path d="M97.4507 5.78282V13.6913H95.2082V7.69949H93.2024C93.2024 12.9353 92.3014 13.7779 90.3262 13.7779C90.0309 13.7779 89.4862 13.7193 89.1909 13.6455L89.3386 11.8306C89.4276 11.8459 89.7076 11.8739 89.8094 11.8739C90.6494 11.8739 91.0923 11.3877 91.0923 5.78027H97.4507V5.78282Z" fill="#F0F0F0"/>
<path d="M99.5176 9.7526C99.5176 7.47957 101.348 5.63672 103.812 5.63672C106.26 5.63672 108.075 7.45157 108.075 9.7526C108.075 12.0256 106.245 13.8685 103.781 13.8685C101.332 13.8685 99.5176 12.0536 99.5176 9.7526ZM105.861 9.7526C105.861 8.58681 105.021 7.56866 103.781 7.56866C102.498 7.56866 101.73 8.55627 101.73 9.7526C101.73 10.9184 102.569 11.9365 103.809 11.9365C105.092 11.9365 105.861 10.9464 105.861 9.7526Z" fill="#F0F0F0"/>
<path d="M112.379 7.70183V13.6911H110.137V5.78516H115.905V7.70183H112.379Z" fill="#F0F0F0"/>
<path d="M124.937 13.6911H122.768V9.08906L119.685 13.6911H117.573V5.78516H119.741V10.4025L122.824 5.78516H124.934V13.6911H124.937Z" fill="#F0F0F0"/>
<path d="M134.393 13.6911H132.15V11.1534H130.941L129.274 13.6911H126.678L128.699 10.7843C127.696 10.3999 127.047 9.64904 127.047 8.42471C127.047 6.84658 128.182 5.78516 130.249 5.78516H134.395V13.6911H134.393ZM132.15 9.53195V7.54147H130.615C129.803 7.54147 129.317 7.89527 129.317 8.54435C129.317 9.17814 129.819 9.53195 130.631 9.53195H132.15Z" fill="#F0F0F0"/>
</svg>
